<?xml version="1.0" encoding="utf-8"?>
<!-- Generator: Adobe Illustrator 24.3.0, SVG Export Plug-In . SVG Version: 6.00 Build 0)  -->
<svg version="1.1" id="Layer_1" xmlns="http://www.w3.org/2000/svg" xmlns:xlink="http://www.w3.org/1999/xlink" x="0px" y="0px"
	 viewBox="0 0 503.4 430.5" style="enable-background:new 0 0 503.4 430.5;" xml:space="preserve">
<style type="text/css">
	.st0{fill:#D92E27;}
	.st1{fill:#FFFFFF;}
</style>
<g>
	<rect class="st0" width="503.4" height="430.5"/>
	<g>
		<path class="st1" d="M248.2,322.2c100.3,0,170.5-39.7,201.1-59c5.4-3.2,2.1-8.6-3.2-6.4c-77.7,31.6-127.6,43.4-197.8,43.4
			S128.2,288.4,51,256.8c-5.4-2.1-8.6,3.2-3.2,6.4C77.2,282.5,148,322.2,248.2,322.2"/>
		<path class="st1" d="M389.8,176.9c0,13.4,16.6,17.2,24.7,19.3c4.3,1.1,12.3,3.2,12.9,8.6c0.5,5.9-6.4,8.6-12.9,8.6
			c-7,0-11.3-2.7-15-8c-1.6-2.1-3.8-2.7-6.4-2.1c-3.2,1.1-6.4,2.7-9.7,4.8c-2.1,1.1-2.7,3.2-1.6,5.9c5.4,12.9,19.3,16.6,31.6,16.6
			c19.3,0,35.9-8.6,40.2-25.7c4.3-16.6-9.7-23.1-22-26.8c-8-2.1-13.9-4.3-13.4-9.7c0.5-5.9,13.4-9.7,22.5,1.1c2.1,2.7,4.3,2.7,7,2.1
			c2.7-1.1,7.5-3.2,9.1-4.3c3.2-1.6,3.8-3.8,1.6-7c-4.8-8-15.5-13.9-28.4-13.9C405.3,148,389.8,160.3,389.8,176.9"/>
		<path class="st1" d="M124.4,116.3c-5.4,0.5-9.7,0.5-13.4,5.4c-12.9,15-42.4,60.6-65.4,102.4c-1.6,3.2-0.5,5.9,3.2,5.9
			c3.8,0,15,0,17.2,0c2.7,0,4.8-0.5,6.4-3.8c2.1-3.8,7-12.3,11.3-19.8h40.7c0,0,0.5,13.9,0.5,19.3c0,2.7,1.6,4.8,5.4,4.8h15
			c2.7,0,4.8-1.1,4.8-4.8c-0.5-14.5-4.3-86.3-5.4-102.9c-0.5-4.3-2.1-5.9-7-5.9C133.5,116.3,128.1,116.3,124.4,116.3 M122.8,142.1
			c0.5,13.4,1.6,44.5,1.6,44.5H92.8c7-13.4,19.3-32.7,29-44.5C122.8,140.5,122.8,142.1,122.8,142.1"/>
		<path class="st1" d="M331.9,231.6c-25.7,0-37.5-17.2-32.2-41.8c5.4-24.7,24.1-41.8,49.9-41.8s37.5,17.2,32.2,41.8
			C376.9,214.5,357.6,231.6,331.9,231.6 M333.5,213.9c14.5,0,20.4-11.8,24.1-24.1s4.8-24.1-9.7-24.1s-20.4,11.8-24.1,24.1
			C320.6,202.1,319,213.9,333.5,213.9"/>
		<path class="st1" d="M236.4,190.3c4.8-16.1,12.3-24.7,23.1-24.1c13.4,0.5,10.7,13.9,8,24.1c-4.3,15.5-11.8,23.6-23.1,23.1
			C233.2,211.8,233.8,198.9,236.4,190.3 M284.7,220.9c6.4-24.7,11.8-47.7,15.5-64.3c1.1-4.3-1.6-6.4-4.8-6.4c-2.1,0-8.6,0-10.7,0
			c-3.8,0-5.9,2.1-6.4,4.8c0,0.5-0.5,1.6-1.1,3.2c0,0.5-0.5,0.5-0.5,0c-1.6-2.7-8-9.7-19.8-9.7c-20.9,0-35.4,20.4-41.3,39.1
			c-3.8,11.8-4.3,25.2,0.5,32.7c4.3,7,11.3,10.7,22.5,11.3c9.1,0,17.2-3.2,20.9-8c0.5-0.5,1.1-0.5,0.5,0.5
			c-5.4,18.2-16.6,23.1-25.2,23.1c-5.9,0-9.7-2.1-11.8-3.8c-3.2-2.1-4.3-2.1-7.5-1.1c-3.2,1.1-7,2.1-10.2,4.3
			c-3.8,2.7-3.2,4.8-1.6,7c7,11.3,23.1,13.9,32.7,13.9C260.6,267.5,276.6,252,284.7,220.9"/>
		<path class="st1" d="M228.4,153.3c1.6-1.6,0.5-3.8-1.6-3.8c-13.4,0-25.7,0-35.4,8.6c0,0-0.5,0-0.5-0.5s0.5-2.1,1.1-4.3
			c0.5-2.1-0.5-4.3-3.2-4.3c-3.8,0-8,0-12.9,0c-2.7,0-4.8,1.1-5.4,4.3c-1.6,7.5-12.3,57.9-15,72.9c-0.5,2.1,1.1,3.8,3.2,3.8h15.5
			c2.7,0,4.3-1.6,4.8-3.8c2.7-11.8,5.9-27.9,7-33.8c1.6-8,4.8-15,8-17.2s7.5-3.8,16.1-4.3c3.8,0,5.4-1.1,7.5-4.3
			C220.9,161.9,223.6,158.2,228.4,153.3"/>
	</g>
</g>
</svg>
