<?xml version="1.0" encoding="utf-8"?>
<!-- Generator: Adobe Illustrator 24.3.0, SVG Export Plug-In . SVG Version: 6.00 Build 0)  -->
<svg version="1.1" id="networx-logo" xmlns="http://www.w3.org/2000/svg" xmlns:xlink="http://www.w3.org/1999/xlink" x="0px"
	 y="0px" viewBox="0 0 712.6 175.7" style="enable-background:new 0 0 712.6 175.7;" xml:space="preserve">
<style type="text/css">
	.st0{fill:#FF8839;}
	.st1{fill:#0062AB;}
	.st2{fill:#282828;}
</style>
<path class="st0" d="M0,105V19.3h12.1V31c2.1-4.4,5.4-7.6,9.9-9.7c4.6-2.1,10.6-3.1,18.1-3.1c11.2,0,19.1,2.3,23.6,6.8
	s6.8,12.5,6.8,23.9V105H57.8V51.5c0-8.9-1.3-14.8-3.9-17.7c-2.6-2.8-7.7-4.2-15.3-4.2c-9,0-15.5,2-19.6,6.1s-6.2,10.6-6.2,19.4V105
	H0L0,105z"/>
<path class="st0" d="M127,106.1c-12.8,0-21.8-2.5-26.8-7.5c-5.1-5-7.6-13.7-7.6-26.3V52c0-12.6,2.5-21.4,7.6-26.4s14-7.5,26.7-7.5
	h5.9c12.8,0,21.8,2.5,26.8,7.5c5.1,5,7.6,13.8,7.6,26.4v12.9L105.7,65c-0.1,0.9-0.1,1.8-0.1,2.9s0,2.5,0,4.4
	c0,8.8,1.4,14.8,4.2,17.8c2.8,3,8.5,4.5,17.1,4.5h5.9c7.6,0,13-1.1,15.9-3.3c3-2.2,4.7-6,5.2-11.5h13.2c-0.7,9.3-3.6,16-8.9,20.1
	c-5.3,4.1-13.7,6.2-25.2,6.2H127L127,106.1z M105.7,53.8h48.5v-3.3c0-8-1.4-13.5-4.3-16.4c-2.9-2.9-8.6-4.3-17.1-4.3h-5.9
	c-8.5,0-14.1,1.4-16.9,4.3s-4.2,8.3-4.2,16.4L105.7,53.8L105.7,53.8z"/>
<path class="st0" d="M188.3,30.1V19.3h10.5V0h12.7v19.3h42v10.8h-42v47.2c0,6.7,1.1,11.3,3.3,13.7c2.2,2.4,6.4,3.6,12.6,3.6
	c6.1,0,10.3-1.2,12.4-3.5c2.1-2.3,3.2-6.9,3.2-13.8v-2.5h12.9v0.7c0,12-2,20.2-6,24.3c-4,4.2-12.3,6.3-24.9,6.3
	c-9.8,0-16.6-2.2-20.5-6.6c-3.8-4.4-5.7-12.4-5.7-24V30.1H188.3z"/>
<path class="st1" d="M275.7,19.3h11.9L307.2,93l19.7-73.7h17.5L364.2,93l19.7-73.7H396L372.9,105h-17.5l-19.6-73.5l-20,73.5h-17.2
	L275.7,19.3z"/>
<path class="st1" d="M432.6,14.2c-4.1-2.9-8.1-5.8-12.2-8.7c0-0.1,0-0.1,0.1-0.2c13.9,3.2,27.3,6.3,41.2,9.6
	c0.3,0.1,0.9,0.2,0.9,0.2c-0.1,0-0.7,0.1-0.8,0.1c-2.2,0.2-4.5,0.2-6.6,0.6c-8.2,1.4-15.4,4.6-20.9,11.1c-2.7,3.2-4.5,6.8-5.6,10.9
	c-1.1,4.3-1.2,8.6-0.6,12.9c0.9,5.9,3.1,11.3,6.1,16.3c4.2,6.9,9.6,12.6,16,17.4c6.3,4.8,13.3,8.6,20.7,11.4c2.7,1,5.5,1.9,8.4,2.5
	c2.9,0.7,5.8,1.2,8.7,1.5c2.4,0.3,4.9,0.3,7.3,0.2c2.1-0.1,4.2-0.3,6.3-0.7c4.1-0.8,7.9-2.1,11.5-4.1c5.8-3.3,10.2-7.9,12.7-14.2
	c1.8-4.5,2.5-9.2,1.8-14c-0.3-2.2-0.6-4.4-1.2-6.5c-1-3.7-2.5-7.2-4.4-10.5c-3.8-6.8-8.8-12.6-14.7-17.7c-6-5.1-12.7-9.2-19.9-12.2
	c-3.2-1.3-6.7-2.6-10.1-3.3c-1.2-0.3-2.2-0.4-3.4-0.9c1,0.1,1.8,0.2,3,0.5c2.4,0.4,4.8,1.1,7.1,1.8c3.1,1,6.2,2.2,9.2,3.4
	c5.1,2.2,9.9,5,14.4,8.2c8.7,6.3,15.8,13.9,20.8,23.4c1.7,3.3,3.1,6.6,4,10.2c0.6,2.4,1.3,4.9,1.5,7.4c0.3,3.3,0.6,6.6,0.3,9.8
	c-0.5,6.3-2.7,12-6.5,17.1c-3.4,4.5-7.8,7.9-12.8,10.3c-3.3,1.6-6.8,2.8-10.3,3.5c-2.9,0.6-5.5,1.1-8.6,1.2c-2.2,0.1-3.8,0.1-5.6,0
	c-2.6-0.1-5-0.5-7.6-1.1c-2.8-0.6-5.7-1.2-8.5-1.9c-4.3-1.1-8.5-2.7-12.5-4.5c-6.5-2.9-12.7-6.4-18.5-10.5
	c-6.1-4.3-11.7-9.3-16.5-15.1c-4.6-5.5-8.3-11.5-10.8-18.2c-1-2.6-1.6-5.4-2.3-8.1c-0.9-3.5-1-7.2-0.8-10.8
	c0.5-6.6,2.6-12.6,6.5-17.9c2.3-3.1,5-5.9,8.3-8C429.2,15.9,430.9,15.1,432.6,14.2z"/>
<path class="st1" d="M465.2,16.4c-2.3,7.5-4.6,14.9-6.9,22.4c-2.5-3.2-4.8-6.3-7.3-9.5c-0.5,0.7-1,1.3-1.5,2
	c-1.7,2.6-2.9,5.4-3.5,8.5c-0.7,3.7-0.3,7.3,0.9,10.8c2.1,5.9,6,10.6,10.6,14.6c5.2,4.4,10.9,8,17.1,10.8c3.3,1.5,6.6,2.6,10.1,3.4
	c4.1,1,8.3,1.4,12.5,1c5.9-0.5,11.1-2.6,15-7.3c1.8-2.1,3-4.6,3.7-7.3c0.8-2.8,0.7-5.5,0.3-8.3c-0.8-5-2.9-9.6-5.5-13.9
	c-3.5-5.7-8-10.6-13.4-14.6c-3.8-2.9-8-5.1-12.4-7.1c-3.7-1.7-7.5-3.2-11.4-4.4c-0.3-0.1-0.5-0.2-0.7-0.5c0.8,0.2,1.7,0.3,2.5,0.5
	c7.6,1.7,14.6,4.7,21.1,8.8c5.8,3.7,10.9,8.2,15.3,13.6c3.4,4.2,6.1,8.8,7.9,13.8c1.4,3.9,2.2,7.8,2,11.9
	c-0.5,8.6-4.5,15.1-11.7,19.6c-3.1,1.9-6.5,3.1-10.1,3.9c-4.2,0.9-8.5,1.1-12.7,0.7c-4.2-0.3-8.4-1.3-12.4-2.6
	c-8.9-2.9-17-7.4-24.1-13.3c-5.9-4.9-10.8-10.8-14.1-17.8c-1.5-3.1-2.5-6.4-3-9.8c-0.9-6,0-11.8,3.1-17.1c2.7-4.6,6.7-7.6,11.5-9.7
	c2.8-1.3,5.6-2.2,8.6-2.6c2.5-0.4,5-0.4,7.5-0.6C464.5,16.4,464.8,16.5,465.2,16.4z"/>
<path class="st1" d="M559.4,105V19.3h12.3V31c1.8-4.4,4.6-7.7,8.4-9.8c3.8-2.1,8.8-3.1,15.1-3.1c9.3,0,15.9,2.3,19.6,6.8
	c3.8,4.5,5.7,12.5,5.7,23.9v0.7h-12.8V47c0-6.8-1.1-11.4-3.3-13.8s-6.3-3.5-12.3-3.5c-7.1,0-12.2,2-15.3,6s-4.7,10.5-4.7,19.6V105
	H559.4L559.4,105z"/>
<path class="st1" d="M634,105l32.5-45.8l-28.3-39.9h14.3l20.7,30l20.7-30h14.3l-28,39.9l32.5,45.8h-14.3l-25.1-36.1L648.5,105H634z"
	/>
<path class="st2" d="M1.5,175.1v-30.2h3.9v30.2H1.5z"/>
<path class="st2" d="M49,175.7l-14.5-16.1c-2.4-2.6-5.1-5.8-7.1-8.3h-0.1c0.1,2.7,0.1,5.4,0.1,7.9v15.9h-3.9v-30.2h2.7L39.7,160
	c1.9,2.1,4.6,5.3,6.6,7.7h0.1c-0.1-2.5-0.1-5.2-0.1-7.5V145h3.9v30.8L49,175.7L49,175.7z"/>
<path class="st2" d="M92.4,175.7l-14.5-16.1c-2.4-2.6-5.1-5.8-7.1-8.3h-0.1c0.1,2.7,0.1,5.4,0.1,7.9v15.9h-3.9v-30.2h2.7L83.1,160
	c1.9,2.1,4.6,5.3,6.6,7.7h0.1c-0.1-2.5-0.1-5.2-0.1-7.5V145h3.9v30.8L92.4,175.7L92.4,175.7z"/>
<path class="st2" d="M125,175.6c-8.2,0-15.9-6.1-15.9-15.7c0-9.5,7.7-15.6,15.9-15.6s15.9,6.1,15.9,15.6
	C140.9,169.6,133.1,175.6,125,175.6z M125,147.8c-6.1,0-12,4.6-12,12.3s5.9,12.3,12,12.3c6,0,12-4.7,12-12.3S131,147.8,125,147.8z"
	/>
<path class="st2" d="M168,175.6h-1.2l-12.1-30.7h4.1l6,15.3c0.9,2.3,1.9,5.1,2.7,7.7h0.1c0.9-2.6,1.8-5.3,2.7-7.7l6-15.3h3.7
	L168,175.6z"/>
<path class="st2" d="M213.9,175.1l-3.4-8.1h-12.3l-3.3,8.1h-3.8l12.6-30.6h1.4l12.6,30.6H213.9z M205.9,155.5
	c-0.5-1.2-1-2.7-1.4-4.2h-0.1c-0.4,1.4-1,3-1.5,4.2l-3.3,8.3h9.6L205.9,155.5z"/>
<path class="st2" d="M241,148.3v26.8h-3.9v-26.8h-10v-3.4H251v3.4H241z"/>
<path class="st2" d="M265.9,175.1v-30.2h16v3.4h-12.1v10h10.1v3.4h-10.1v10.1h13.8v3.4L265.9,175.1L265.9,175.1z"/>
<path class="st2" d="M338.5,175.1l-9.7-13.5h-4.1v13.5h-3.8v-30.2h8.7c4.4,0,9,2.9,9,8.3c0,4-2.5,6.6-5.6,7.7l10.5,14.1L338.5,175.1
	L338.5,175.1z M328.8,148.3h-4.2v10.1h4.3c3,0,5.6-1.7,5.6-5C334.5,150.1,331.9,148.3,328.8,148.3z"/>
<path class="st2" d="M356.5,175.1v-30.2h16v3.4h-12.1v10h10.1v3.4h-10.1v10.1h13.8v3.4L356.5,175.1L356.5,175.1z"/>
<path class="st2" d="M411.7,149.9c-1.6-1-4.6-2-7.7-2c-6.4,0-12.5,4.4-12.5,12.2s6.1,12.2,12.5,12.2c3.5,0,6-0.7,7.9-1.8l-0.4,3.5
	c-1.8,1-4.2,1.6-7.9,1.6c-7.9,0-15.9-5.6-15.9-15.4c0-9.8,8.1-15.4,15.9-15.4c3.9,0,6.9,0.9,8.8,2L411.7,149.9z"/>
<path class="st2" d="M446.6,175.1l-9.7-13.5h-4.1v13.5H429v-30.2h8.7c4.4,0,9,2.9,9,8.3c0,4-2.5,6.6-5.6,7.7l10.5,14.1L446.6,175.1
	L446.6,175.1z M436.9,148.3h-4.2v10.1h4.3c3,0,5.6-1.7,5.6-5C442.6,150.1,440,148.3,436.9,148.3z"/>
<path class="st2" d="M475.7,175.6c-7,0-12.1-4.1-12.1-11.1v-19.6h3.9v19.3c0,4.9,2.8,8,8.2,8s8.2-3.1,8.2-8v-19.3h3.8v19.6
	C487.7,171.5,482.7,175.6,475.7,175.6z"/>
<path class="st2" d="M505.9,175.1v-30.2h3.9v30.2H505.9z"/>
<path class="st2" d="M539,148.3v26.8h-3.9v-26.8h-10v-3.4H549v3.4H539z"/>
<path class="st2" d="M593.1,175.1l-1.2-14.6c-0.2-2.3-0.4-5-0.5-7.4h-0.1c-1,2.3-2.5,5.3-3.6,7.5l-7.3,14.7H579l-7.4-14.7
	c-1.1-2.1-2.4-5-3.5-7.4H568c-0.1,2.5-0.3,5.3-0.5,7.3l-1.2,14.6h-3.5l2.5-30.2h2.5l8.1,16.2c1.2,2.5,2.8,5.5,3.9,8.1h0.1
	c1-2.6,2.5-5.5,3.8-8.1l8.1-16.2h2.5l2.6,30.2L593.1,175.1L593.1,175.1z"/>
<path class="st2" d="M613.6,175.1v-30.2h16v3.4h-12.1v10h10.1v3.4h-10.1v10.1h13.8v3.4L613.6,175.1L613.6,175.1z"/>
<path class="st2" d="M671.6,175.7l-14.5-16.1c-2.4-2.6-5.1-5.8-7.1-8.3h-0.1c0.1,2.7,0.1,5.4,0.1,7.9v15.9h-3.9v-30.2h2.7l13.5,15.1
	c1.9,2.1,4.6,5.3,6.6,7.7h0.1c-0.1-2.5-0.1-5.2-0.1-7.5V145h3.9v30.8L671.6,175.7L671.6,175.7z"/>
<path class="st2" d="M700.5,148.3v26.8h-3.9v-26.8h-10v-3.4h23.9v3.4H700.5z"/>
</svg>
