<?xml version="1.0" encoding="utf-8"?>
<!-- Generator: Adobe Illustrator 24.3.0, SVG Export Plug-In . SVG Version: 6.00 Build 0)  -->
<svg version="1.1" id="Layer_1" xmlns="http://www.w3.org/2000/svg" xmlns:xlink="http://www.w3.org/1999/xlink" x="0px" y="0px"
	 viewBox="0 0 554.7 239.6" style="enable-background:new 0 0 554.7 239.6;" xml:space="preserve">
<style type="text/css">
	.st0{fill-rule:evenodd;clip-rule:evenodd;fill:#00524C;}
	.st1{fill:#FFB819;}
	.st2{fill-rule:evenodd;clip-rule:evenodd;fill:#FFB819;}
</style>
<g>
	<rect class="st0" width="554.7" height="239.6"/>
	<g>
		<path class="st1" d="M151.3,171c-5.1,0-9.3-1.6-12.4-4.5c-3.2-3-5-7.3-5-12c0-9.7,7-16.6,18.1-16.6c4,0,7.6,0.9,11.2,2.6v7.5
			c-3.6-2.3-7.1-3.4-10.7-3.4c-6.5,0-10.4,3.7-10.4,9.9c0,5.9,3.7,9.8,9.8,9.8c3.8,0,7.7-1.4,11.6-4v7.5
			C159.8,169.9,155.8,171,151.3,171z"/>
		<path class="st1" d="M200.2,156l-12.6-17.5h9.6l7,10.3l7.2-10.3h9.5L208.2,156v14.5h-8V156z"/>
		<path class="st1" d="M257.7,171c-5.1,0-9.3-1.6-12.4-4.5c-3.2-3-5-7.3-5-12c0-9.7,7-16.6,18.1-16.6c4,0,7.6,0.9,11.2,2.6v7.5
			c-3.6-2.3-7.1-3.4-10.7-3.4c-6.5,0-10.4,3.7-10.4,9.9c0,5.9,3.7,9.8,9.8,9.8c3.8,0,7.7-1.4,11.6-4v7.5
			C266.1,169.9,262.1,171,257.7,171z"/>
		<path class="st1" d="M298,138.5h8v25.8h13.8v6.2H298V138.5z"/>
		<path class="st1" d="M346.8,138.5h21.4v5.9h-13.4v6.5h12.8v5.9h-12.8v7.6h13.8v6h-21.8V138.5z"/>
		<path class="st1" d="M396.5,160.8c4,2.5,7.3,4,10.9,4c3.1,0,4.8-1,4.8-2.9s-1.5-2.5-4.3-3.5c-8.1-2.8-12-5.5-12-11.3
			c0-5.3,4.7-9.2,12.1-9.2c3.5,0,7.2,0.8,10.9,2.6v6.6c-4.1-2.1-7.5-3.2-10.4-3.2c-3.1,0-4.7,0.9-4.7,2.6c0,1.3,1.4,2.5,4.3,3.6
			s5.6,2,8,3.4c2.8,1.7,4.2,4.4,4.2,8c0,5.8-4.6,9.5-12.6,9.5c-4,0-7.7-1-11.1-3.1L396.5,160.8L396.5,160.8z"/>
	</g>
	<g>
		<polygon class="st2" points="323.6,71.9 348.5,71.9 376.1,95.1 384.1,71.9 402.4,71.9 391.4,103.5 364.4,103.5 339,80.5 
			331,103.5 312.8,103.5 320.8,80.1 317,71.9 		"/>
		<path class="st2" d="M283.5,71.9h-22.2h-0.8h-15.3l3.8,8.3l-32.4,23.3h19.8l7.6-5.2h36.5l3.7,5.2h20.1L283.5,71.9z M254,90.6
			l14.8-11l7.6,11H254z"/>
		<polyline class="st2" points="213.8,71.9 233.1,71.9 190.5,103.5 169.3,103.5 149.1,71.9 167.8,71.9 182.1,94.5 213.8,71.9 		"/>
		<polyline class="st2" points="74.6,69.1 137.6,69.1 143.9,78 96.2,78 94.4,83.5 134.5,83.5 132.3,90 92,90 90.3,95.3 138.2,95.3 
			135.4,103.7 69.1,103.7 78.4,77.4 74.6,69.1 		"/>
	</g>
	<path class="st2" d="M452.8,70.5c25.3,0,34.6,1.2,32.3,9.8l-0.2,0.9h-17.5v-0.9c0-2.3-12.1-2.5-16.6-2.5c-9,0-18.3-0.3-19.5,3.3
		c-1.1,3.3,7.4,1.8,17.2,1.8c31.2,0,33.6,4.6,31.7,9.7c-3.5,9.8-11.3,11.9-40.4,11.9c-15.4,0-38-1.2-32.9-11.7l0.5,0.1h17.5
		l-0.4,1.4c-0.8,3.1,11.7,2.8,18.2,2.8c15.3,0,18.9-1.5,19.6-3.8c0.7-2.2-3-2.8-16.9-2.8c-25.7,0-36.4-0.7-33-9.4
		C416,71.6,431.1,70.5,452.8,70.5z"/>
</g>
</svg>
