<?xml version="1.0" encoding="utf-8"?>
<!-- Generator: Adobe Illustrator 24.3.0, SVG Export Plug-In . SVG Version: 6.00 Build 0)  -->
<svg version="1.1" id="Layer_1" xmlns="http://www.w3.org/2000/svg" xmlns:xlink="http://www.w3.org/1999/xlink" x="0px" y="0px"
	 viewBox="0 0 359.8 230.3" style="enable-background:new 0 0 359.8 230.3;" xml:space="preserve">
<style type="text/css">
	.st0{fill:#1D1D1B;}
	.st1{fill:#2F88C9;}
</style>
<g>
	<g>
		<g>
			<path class="st0" d="M75.2,16.1c-0.6,1.1-1.1,1.7-1,2.5s0.9,1.4,1.4,2.3c0.4-1,1-1.7,0.9-2.5C76.5,17.7,75.4,16.7,75.2,16.1"/>
		</g>
	</g>
	<g>
		<g>
			<path class="st0" d="M89.7,16.1c0.6,1.1,1,1.7,1,2.5c-0.1,0.8-0.9,1.4-1.4,2.3c-0.4-1-1-1.7-0.9-2.5
				C88.5,17.7,89.5,16.7,89.7,16.1"/>
		</g>
	</g>
	<g>
		<g>
			<path class="st0" d="M66.9,15.5c0.5,0,1-0.4,1-1c0-0.5-0.4-1-1-1c-0.5,0-1,0.4-1,1C65.9,15,66.4,15.5,66.9,15.5"/>
		</g>
	</g>
	<g>
		<g>
			<path class="st0" d="M67.6,16.9c0-0.5-0.4-1-1-1c-0.5,0-1,0.4-1,1c0,0.5,0.4,1,1,1C67.1,17.8,67.6,17.4,67.6,16.9"/>
		</g>
	</g>
	<g>
		<g>
			<path class="st0" d="M68,19.2c0-0.5-0.4-1-1-1c-0.5,0-1,0.4-1,1c0,0.5,0.4,1,1,1S68,19.8,68,19.2"/>
		</g>
	</g>
	<g>
		<g>
			<path class="st0" d="M72.3,10.8c0.5,0,1-0.4,1-1c0-0.5-0.4-1-1-1c-0.5,0-1,0.4-1,1C71.3,10.4,71.8,10.8,72.3,10.8"/>
		</g>
	</g>
	<g>
		<g>
			<path class="st0" d="M69.9,11.6c0.5,0,1-0.4,1-1c0-0.5-0.4-1-1-1c-0.5,0-1,0.4-1,1C68.9,11.1,69.4,11.6,69.9,11.6"/>
		</g>
	</g>
	<g>
		<g>
			<path class="st0" d="M68,13.2c0.5,0,1-0.4,1-1c0-0.5-0.4-1-1-1c-0.5,0-1,0.4-1,1S67.4,13.2,68,13.2"/>
		</g>
	</g>
	<g>
		<g>
			<path class="st0" d="M74.9,11.1c0.5,0,1-0.4,1-1c0-0.5-0.4-1-1-1c-0.5,0-1,0.4-1,1C73.9,10.6,74.3,11.1,74.9,11.1"/>
		</g>
	</g>
	<g>
		<g>
			<path class="st0" d="M77.3,11.8c0.5,0,1-0.4,1-1c0-0.5-0.4-1-1-1c-0.5,0-1,0.4-1,1C76.3,11.3,76.8,11.8,77.3,11.8"/>
		</g>
	</g>
	<g>
		<g>
			<path class="st0" d="M79.6,12.8c0.5,0,1-0.4,1-1c0-0.5-0.4-1-1-1c-0.5,0-1,0.4-1,1C78.6,12.4,79,12.8,79.6,12.8"/>
		</g>
	</g>
	<g>
		<g>
			<path class="st0" d="M97,14.5c0,0.5,0.4,1,1,1c0.5,0,1-0.4,1-1c0-0.5-0.4-1-1-1S97,14,97,14.5"/>
		</g>
	</g>
	<g>
		<g>
			<path class="st0" d="M98.3,15.9c-0.5,0-1,0.4-1,1c0,0.5,0.4,1,1,1c0.5,0,1-0.4,1-1S98.8,15.9,98.3,15.9"/>
		</g>
	</g>
	<g>
		<g>
			<path class="st0" d="M97.8,18.3c-0.5,0-1,0.4-1,1c0,0.5,0.4,1,1,1c0.5,0,1-0.4,1-1S98.4,18.3,97.8,18.3"/>
		</g>
	</g>
	<g>
		<g>
			<path class="st0" d="M92.6,10.8c0.5,0,1-0.4,1-1c0-0.5-0.4-1-1-1c-0.5,0-1,0.4-1,1C91.6,10.4,92,10.8,92.6,10.8"/>
		</g>
	</g>
	<g>
		<g>
			<path class="st0" d="M95,11.6c0.5,0,1-0.4,1-1c0-0.5-0.4-1-1-1c-0.5,0-1,0.4-1,1C94,11.1,94.5,11.6,95,11.6"/>
		</g>
	</g>
	<g>
		<g>
			<path class="st0" d="M96.9,13.2c0.5,0,1-0.4,1-1c0-0.5-0.4-1-1-1c-0.5,0-1,0.4-1,1S96.4,13.2,96.9,13.2"/>
		</g>
	</g>
	<g>
		<g>
			<path class="st0" d="M90,11.1c0.5,0,1-0.4,1-1c0-0.5-0.4-1-1-1c-0.5,0-1,0.4-1,1C89,10.6,89.5,11.1,90,11.1"/>
		</g>
	</g>
	<g>
		<g>
			<path class="st0" d="M87.6,11.8c0.6,0,1-0.4,1-1c0-0.5-0.4-1-1-1c-0.5,0-1,0.4-1,1C86.6,11.3,87.1,11.8,87.6,11.8"/>
		</g>
	</g>
	<g>
		<g>
			<path class="st0" d="M84.3,11.8c0,0.5,0.4,1,1,1c0.5,0,1-0.4,1-1c0-0.5-0.4-1-1-1C84.8,10.9,84.3,11.3,84.3,11.8"/>
		</g>
	</g>
	<g>
		<g>
			<path class="st0" d="M80.8,17.1h1.1v-4.2c-0.4-0.1-0.8-0.2-1.1-0.3V17.1z"/>
		</g>
	</g>
	<g>
		<g>
			<path class="st0" d="M84.1,12.6c-0.3,0.2-0.7,0.3-1.1,0.3v4.2h1.1V12.6z"/>
		</g>
	</g>
	<g>
		<g>
			<path class="st0" d="M81.8,8V5.5c-1.2,0.3-2.2,1.2-2.4,2.5H81.8z"/>
		</g>
	</g>
	<g>
		<g>
			<path class="st0" d="M83.1,8h2.4c-0.2-1.2-1.2-2.2-2.4-2.5V8z"/>
		</g>
	</g>
	<g>
		<g>
			<path class="st0" d="M79.4,9.2c0.3,1.4,1.5,2.4,3,2.4s2.7-1,3-2.4C85.4,9.2,79.4,9.2,79.4,9.2z"/>
		</g>
	</g>
	<g>
		<g>
			<path class="st0" d="M84.1,5.1c-0.7-0.5-1.2-1.3-1.3-2.2C83.6,3,84.5,3.6,85,4.3V1c-0.5,0.7-1.4,1.3-2.2,1.4
				c0.1-0.8,0.6-1.6,1.3-2.4h-3.3c0.7,0.8,1.2,1.6,1.3,2.4c-0.8-0.1-1.7-0.7-2.2-1.4v3.4c0.5-0.7,1.4-1.3,2.2-1.4
				c-0.1,0.8-0.6,1.6-1.3,2.2L84.1,5.1C84.1,5.2,84.1,5.1,84.1,5.1z"/>
		</g>
	</g>
	<g>
		<g>
			<path class="st0" d="M84.2,75.2c-0.7,0-1.2-0.5-1.2-1.2s0.5-1.2,1.2-1.2s1.2,0.5,1.2,1.2C85.4,74.7,84.9,75.2,84.2,75.2
				 M78.5,73.4c-0.7,0-1.3-0.6-1.3-1.3s0.6-1.3,1.3-1.3c0.7,0,1.3,0.6,1.3,1.3S79.2,73.4,78.5,73.4 M76.5,67.6l-0.3-0.2
				c-0.6-0.5-1.1-0.5-1.6,0c-0.2,0.2-0.5,0.5-0.7,0.7l-0.3,0.4l0.2,0.2c0.6,0.5,0.7,1.1,0.5,1.4c-0.1,0.1-0.2,0.2-0.3,0.3
				c-0.3,0.1-0.7,0-1.2-0.3L72.6,70l-0.1,0.2c0,0.1-0.1,0.1-0.1,0.2c-0.1,0.1-0.1,0.2-0.2,0.3c-0.3,0.5-0.4,0.8-0.4,1.1
				c0,0.1,0,0.2,0,0.2c0.1,0.3,0.4,0.5,0.6,0.6l0.1,0.1c0.3,0.2,0.7,0.4,1,0.6c-0.6,0.3-1.1,0.3-1.7,0.1C71,73,70.4,72,70.4,71.6
				c0-0.7,0.3-1.7,0.9-2.6l0.1-0.1l-0.1-0.2c-0.2-0.3-0.3-0.6-0.4-0.8c0.3,0,0.6,0.1,1,0.2h0.2l0.1-0.1c0.4-0.4,1.7-1.7,2.9-1.7
				c0.5,0,1.1,0.3,1.5,0.8c0.3,0.4,0.5,0.8,0.6,1.2C76.8,67.9,76.7,67.7,76.5,67.6 M87.7,72.2c-3.1-0.8-6.7-2.1-10.2-3.6l0,0
				c0.1-0.7-0.2-1.5-0.7-2.1s-1.2-0.9-1.9-0.9c-0.3,0-0.6,0.1-0.9,0.2c-0.5-0.4-1-0.9-1.4-1.5c-1.3-1.5-2.3-3.3-3-5.2
				c-0.4-1.1-0.7-2.3-0.9-3.5c-0.2,1-1.3,2.3-3.2,2.3c0-0.2,0-0.7-0.2-0.8c-0.5,0.6-1.3,1.2-3,0.6c0.3,1.4,0.6,2.7,1.1,4
				c1,2.8,2.5,5.3,4.4,7.4c0.6,0.7,1.3,1.4,2,2c0,0.1,0,0.3,0,0.4c0,0.7,0.7,1.9,1.7,2.4c0.8,0.4,1.7,0.3,2.5-0.3
				c1.5,0.8,3.4,1.5,5.4,2.1c2.3,0.6,4.5,1,6.3,1c1.5,0,3.5-0.7,5.4-1.9c0.8-0.5,1.5-1,2.1-1.6c0.1-0.1,0.1-0.1,0.2-0.2
				C91.9,73.1,89.6,72.7,87.7,72.2"/>
		</g>
	</g>
	<g>
		<g>
			<path class="st0" d="M86.9,84.7c-0.2-0.4-0.5-0.6-0.8-0.6c-1.3,0-0.8,3.3-2.3,3.3c-0.7,0-1-0.4-1-0.9s0.3-0.6,0.3-1
				S82.8,85,82.5,85s-0.6,0.1-0.6,0.5s0.3,0.5,0.3,1s-0.3,0.9-1,0.9c-1.5,0-1-3.3-2.3-3.3c-0.3,0-0.6,0.2-0.8,0.6
				c-0.3-0.5-0.4-0.9-0.4-1.3c0-0.6,0.5-1.5,1.4-1.5c1.7,0,1.3,2.3,2.1,2.3c0.4,0,0.6-0.2,0.6-0.6c0-0.7-1.2-1.3-1.2-2.2
				c0-0.9,0.8-1.7,1.8-2.5c0.9,0.7,1.8,1.5,1.8,2.5c0,0.9-1.2,1.5-1.2,2.2c0,0.3,0.3,0.6,0.6,0.6c0.8,0,0.4-2.3,2.1-2.3
				c1,0,1.5,0.8,1.5,1.5C87.3,83.7,87.1,84.2,86.9,84.7 M82.5,89.3c-0.4,0-0.8-0.4-0.8-0.8c0-0.5,0.4-0.8,0.8-0.8s0.8,0.4,0.8,0.8
				C83.3,89,82.9,89.3,82.5,89.3 M85.8,81.3c-0.2,0-0.4,0-0.6,0.1v-3.7c-1.6-0.1-3.5-0.3-5.4-0.8v4.5c-0.2-0.1-0.4-0.1-0.7-0.1
				c-1.3,0-2.1,1.1-2.1,2.1c0,0.9,0.6,1.8,1,2.4c0.2-0.6,0.5-1,0.8-1c0.6,0,0.4,3.2,2.2,3.3c-0.1,0.2-0.1,0.3-0.1,0.5
				c0,0.8,0.7,1.5,1.5,1.5s1.5-0.7,1.5-1.5c0-0.2,0-0.3-0.1-0.5c1.9-0.1,1.6-3.3,2.2-3.3c0.3,0,0.5,0.4,0.8,1c0.5-0.6,1-1.4,1-2.4
				C87.9,82.4,87.1,81.3,85.8,81.3"/>
		</g>
	</g>
	<g>
		<g>
			<path class="st0" d="M129,85.7c-0.1-0.2-0.3-0.3-0.5-0.2c-4.3,1.3-9.6-2.3-14.8-5.8c-4.3-2.9-8.5-5.6-12-5.6
				c-1.3,0-2.5,0.3-3.5,0.8c-1.2,0.7-2.1,1.7-2.7,3.2c-0.6,1.4-1.2,2.4-1.7,3.2c-0.6,0.9-1,1.6-1,2.5c0,0.7,0.3,1.3,0.9,1.9
				c0.5,0.5,1.2,1,2.3,1.5c0.2,0.1,0.4,0.2,0.7,0.3c0.9,0.4,1.4,0.7,1.5,1.2c-1.7,0.7-3.9,1.4-6.4,1.8c-2.8,0.5-5.9,0.7-9.2,0.7
				c-3.3,0-6.4-0.3-9.2-0.7c-2.5-0.4-4.7-1.1-6.4-1.8c0.1-0.7,0.6-1,1.5-1.4c0.2-0.1,0.4-0.2,0.7-0.3c0.9-0.5,1.7-0.9,2.2-1.4
				c0.6-0.5,0.9-1.1,0.9-1.8c0-0.8-0.4-1.5-1-2.5c-0.5-0.8-1.1-1.8-1.7-3.2c-0.6-1.4-1.5-2.5-2.7-3.2c-1-0.5-2.2-0.8-3.4-0.8
				c-3.5,0-7.6,2.7-12,5.6c-5.2,3.4-10.5,7-14.8,5.8c-0.2-0.1-0.4,0.1-0.5,0.2c-0.1,0.2,0,0.4,0.2,0.5c1.3,0.6,2.5,1.5,3.6,2.4
				c1.5,1.2,3,2.4,4.6,2.4c1.5,0,3.2-0.5,5.2-1.5c1.7-0.9,3.5-2.1,5.3-3.3c3.4-2.3,6.9-4.7,10.3-5c-0.4,0.4-0.7,0.7-1,0.9
				c-1,0.9-1.8,1.6-1.8,3.2c0,1.2,0.4,2.1,1,3.3c0.2,0.3,0.4,0.7,0.6,1.2c0.4,0.8,0.5,1.5,0.7,2.4c0.1,0.4,0.2,0.8,0.3,1.4
				c0.2,0.8,0.6,2.3,3.1,3.5c2.8,1.4,7.7,2.2,14.5,2.2s11.7-0.7,14.5-2.2c2.5-1.2,2.8-2.7,3.1-3.5c0.1-0.5,0.2-1,0.3-1.4
				c0.2-0.9,0.4-1.6,0.7-2.4c0.3-0.6,0.5-1.1,0.8-1.5c0.5-1,0.9-1.7,0.9-2.8c0-1.6-0.9-2.4-1.9-3.3c-0.3-0.3-0.7-0.6-1.1-1
				c3.3,0.3,6.9,2.7,10.3,5c1.7,1.2,3.5,2.4,5.3,3.3c2,1,3.6,1.5,5.2,1.5s3.1-1.1,4.6-2.4c1.1-0.9,2.3-1.8,3.6-2.3
				C129,86.1,129.1,85.9,129,85.7"/>
		</g>
	</g>
	<g>
		<g>
			<path class="st0" d="M83,52.3V36.1c1.7,0.1,3.3,0.5,4.9,1.3c1.7,0.8,3.2,2,4.5,3.5s2.3,3.3,3,5.2s1.1,4,1.1,6.1H83V52.3z
				 M82.5,29.4c-4.6,0-7.7,1.3-9.6,2.6c-1.1-0.6-1.5-1.2-1.5-2c0-2.6,7.4-2.8,11.1-2.8s11.1,0.2,11.1,2.8c0,0.7-0.4,1.3-1.5,2
				C90.2,30.7,87.1,29.4,82.5,29.4 M82.2,52.3H68.5c0-2.1,0.4-4.2,1.1-6.1c0.7-2,1.7-3.7,3-5.2s2.8-2.7,4.5-3.5s3.4-1.2,5.2-1.3
				L82.2,52.3L82.2,52.3z M103.1,51.2c-0.5-0.4-1.3-1.1-1.7-1.9c-0.5-1.1-2.6-5.3-3-5.8C98.1,43,98,42.6,98,42.2
				c0-0.5,0.2-0.8,0.4-1.1c0.2-0.2,0.6-0.7,0.8-0.9c0.1-0.2,0.3-0.4,0.4-0.5c-0.8-1.3-1.6-2.4-2.6-3.5c-1.3-1.4-2.7-2.6-4.2-3.6
				c0.8-0.5,1.6-1.3,1.6-2.6c0-0.8-0.3-1.4-0.9-1.8c0.9-2.8,2.4-6.1,3.7-7.5l-2.8-1.2c0.7,1.1,0.8,2.4,0.6,3.1
				c-0.7-0.5-1.3-1.2-1.5-2.1c-0.1,0.8-0.6,2.2-1,3c0.8-0.4,1.4-0.6,2.3-0.2c-0.5,0.6-1.7,1.6-3.5,1.2c-1-0.2-2-0.8-1.9-1.5
				c0-0.4,0.4-1,1-0.9s0.6,1,0.4,1.4c0.8-0.5,1.6-2.8,0.4-3.1c-1-0.3-1.9,1.1-2.2,2.1c-0.2-1.2-0.7-2.4-1.7-2.4
				c-1.3,0.1-0.9,2.4-0.4,3c0.1-0.8,0.5-1.3,0.9-1.2c0.3,0,0.8,0.3,0.7,1c-0.1,0.8-1.2,1.2-2.4,1.2c-1.2,0-3.2-0.4-3.4-2.6
				c0.8,0.1,2,0.7,2.5,1.5c-0.2-1.4-0.2-2.3,0-3.7c-0.6,0.9-1.7,1.4-2.4,1.5c0.2-1,1-2,2-2.6h-5c1,0.6,1.8,1.6,2,2.6
				c-0.7-0.1-1.8-0.6-2.4-1.5c0.2,1.4,0.2,2.4,0,3.7c0.5-0.7,1.7-1.3,2.4-1.5c-0.2,2.2-2.2,2.6-3.4,2.6c-1.2,0-2.3-0.5-2.4-1.2
				s0.4-1,0.7-1c0.4,0,0.8,0.4,0.9,1.2c0.4-0.6,0.9-2.9-0.4-3c-1-0.1-1.5,1.1-1.7,2.4c-0.3-1-1.2-2.4-2.2-2.1
				c-1.2,0.4-0.4,2.7,0.4,3.1c-0.2-0.4-0.2-1.3,0.4-1.4s0.9,0.5,1,0.9c0,0.8-0.9,1.3-1.9,1.5c-1.8,0.4-3-0.5-3.5-1.2
				c0.8-0.3,1.5-0.2,2.3,0.2c-0.4-0.8-0.9-2.2-1-3c-0.2,0.9-0.8,1.6-1.6,2.1c-0.2-0.7-0.1-2,0.6-3.1l-2.8,1.2
				c1.3,1.5,2.9,4.8,3.7,7.6c-0.5,0.5-0.8,1.1-0.8,1.8c0,1.3,0.8,2.1,1.6,2.6c-1.5,1-2.9,2.2-4.2,3.6c-1.9,2.1-3.4,4.6-4.4,7.4
				c0.4,0.4,2,2.2,2.4,2.7c0.7,0.9,1.1,1.7,1.1,2.4c0,1.2,0.3,1.7,1,2.6c0.2,0.3,0.5,1.2,0.5,1.8h13.7v15c-0.5,0-1.1,0.2-1.6,0.7
				c1.6,0.6,3.1,1.2,4.6,1.7c0.1-1,0.3-1.6,0.8-2.2c0,0-2-0.2-3.1-0.2v-15h13.4c-0.1,2.1-0.4,4-1.1,5.9c-0.7,2-1.7,3.7-3,5.2
				c-1.3,1.5-2.8,2.7-4.5,3.5c-0.3,0.1-0.3,0.3-0.5,0.4c-0.2,0.3-0.5,0.7-0.7,1.2c-0.2,0.4-0.2,0.8-0.3,1.4c0.6,0.2,1,0.3,1.6,0.4
				c4.7,1.2,5.9,0.8,6.2,0.6l0,0c1.1-0.8,2-1.7,3-2.8c1.9-2.1,3.4-4.6,4.4-7.4c1.1-2.9,1.6-5.9,1.6-9.1
				C103.1,52,103.2,51.8,103.1,51.2"/>
		</g>
	</g>
	<g>
		<g>
			<path class="st0" d="M90.6,42.7c-0.1,0.1-0.2,0.3-0.1,0.4c0,0.1,0.2,0.2,0.4,0.3c-0.1,0.1-0.3,0.3-0.3,0.6c0.3,0,0.5,0,0.6-0.1
				c-0.1,0.2,0,0.4,0.1,0.5s0.2,0.1,0.4,0c1,1.7,1.7,3.5,2,5.5c-0.1-0.1-0.3-0.1-0.5-0.1c0,0.3,0.1,0.5,0.3,0.6h-3.4
				c0-0.2-0.1-0.4-0.2-0.4c-0.1-0.1-0.3,0-0.4,0.2c0-0.2-0.1-0.4-0.3-0.6c-0.2,0.2-0.3,0.4-0.3,0.6C88.7,50,88.6,50,88.4,50
				c-0.1,0-0.2,0.2-0.2,0.4h-2.9c0.1-0.1,0.2-0.3,0.2-0.6c-0.2,0-0.4,0.1-0.6,0.2v-4.6c0.2,0,0.4-0.1,0.5-0.2c0-0.1,0-0.3-0.2-0.5
				c0.2,0,0.4-0.1,0.6-0.3c-0.2-0.2-0.4-0.2-0.6-0.3c0.2-0.2,0.2-0.3,0.2-0.5c0-0.1-0.2-0.3-0.5-0.2v-3.9c0.1,0.1,0.3,0.2,0.5,0.2
				c0-0.2,0-0.4-0.1-0.6c0.9,0.3,1.8,0.7,2.6,1.3C88.9,40.9,89.8,41.7,90.6,42.7 M94.3,49.6c0.2,0.1,0.2,0.5-0.1,0.5
				c-0.3-2.4-1.2-4.8-2.6-6.8l0,0c0.3-0.1,0.5-0.3,0.6-0.7c-0.4-0.1-0.7,0.1-0.9,0.4c-0.1-0.1-0.2-0.3-0.3-0.4
				c-0.9-1.1-1.8-2-2.9-2.7c-1-0.7-2.1-1.2-3.2-1.5c0-0.3,0.4-0.3,0.5-0.1c0-0.4-0.3-0.6-0.5-0.6c-0.1,0-0.2,0.1-0.2,0.3
				c-0.1-0.2-0.3-0.3-0.6-0.3c0,0.3,0.1,0.5,0.2,0.6c-0.2,0-0.3,0.1-0.4,0.2c-0.1,0.2,0,0.6,0.5,0.6c-0.2-0.2-0.1-0.5,0.1-0.5V44
				c-0.3-0.1-0.6-0.1-0.9,0.2c0.3,0.3,0.6,0.3,0.9,0.2v5.7c-0.3,0-0.4-0.3-0.1-0.5c-0.4,0-0.6,0.4-0.5,0.6c0.1,0.1,0.2,0.2,0.4,0.2
				C84.1,50.6,84,50.8,84,51c0.3,0,0.5-0.1,0.6-0.2c0,0.2,0.1,0.4,0.2,0.4c0.2,0.1,0.6-0.1,0.6-0.5c-0.1,0.2-0.5,0.1-0.5-0.1h4
				c-0.1,0.3,0,0.6,0.2,0.9c0.3-0.3,0.3-0.6,0.2-0.9h4.4c0,0.3-0.3,0.4-0.5,0.1c0,0.4,0.4,0.6,0.6,0.5c0.1-0.1,0.2-0.2,0.2-0.4
				c0.1,0.1,0.3,0.2,0.6,0.2c0-0.3-0.1-0.5-0.2-0.6c0.2,0,0.4-0.1,0.4-0.2C95,50,94.8,49.6,94.3,49.6"/>
		</g>
	</g>
	<g>
		<g>
			<path class="st0" d="M92,48.2c0.2-0.1,0.3-0.2,0.4-0.3c-0.2,0.1-0.3,0-0.4,0c0.1-0.1,0.3,0,0.1-0.2c-0.2-0.3-0.3-0.3-0.4-0.1
				c-0.2,0.2-1.2,0-1.2-0.8c0.1,0.1,0.2,0.2,0.4,0.3c0,0,0.1,0,0.1,0.1h0.1c0.1,0,0.2,0,0.3,0c0,0,0,0,0.1,0l0,0
				c0.2-0.1,0.4-0.2,0.4-0.4c0-0.4-0.4-0.6-0.8-1c-0.2-0.2-0.3-0.3-0.4-0.4c-0.2-0.3,0-0.6-0.5-1.2c0-0.1,0-0.3-0.1-0.5
				c-0.2,0.4-0.3,1.1,0.2,1.7c0.4,0.5,1.4,1,1.4,1.4c0,0.1-0.1,0.2-0.2,0.2s-0.1,0-0.1,0h-0.1c-0.1,0-0.1-0.1-0.2-0.1
				c-0.1-0.1-0.2-0.1-0.3-0.3c-0.4-0.4-0.8-0.9-1-1.2c-0.4-0.6-0.2-1.1-0.2-1.6c0.3-0.4-0.2-1.3-0.5-1.5c0,0,0.1-0.2,0-0.5
				c-0.1,0-0.2,0-0.3,0c-0.1-0.2-0.1-0.2-0.2-0.2c-0.2,0-0.2-0.1-0.2-0.2c-0.1,0.1-0.1,0.2-0.3,0.2c-0.2,0-0.2,0-0.3,0
				c-0.1,0.1-0.2,0.1-0.3,0.1c-0.2,0-0.2,0.1-0.2,0.2s0,0.2,0.1,0.3c0,0,0,0,0.1,0l0.1,0.2l0.1-0.2c0-0.2,0.3-0.2,0.3,0
				c0,0.1,0.1,0.1-0.1,0.2c-0.2,0-0.2,0-0.4,0c-0.1,0-0.1,0.1-0.1,0.2s0.1,0.2,0.3,0.1c0.2-0.1,0.6-0.1,0.6,0.1c0,0.5-0.5,0.4-0.7,1
				c-0.1-0.1-0.3-0.2-0.3-0.3c-0.1-0.1-0.2-0.3-0.4-0.5c-0.1-0.1-0.3-0.2-0.4-0.3c-0.2-0.1-0.2-0.2-0.2-0.4s0.1-0.3,0.1-0.5v-0.1
				c0-0.1-0.2-0.2-0.2-0.2s0.1,0.1,0.1,0.2l-0.1,0.1c0,0-0.1,0.1,0,0.2l0,0c0,0,0,0,0,0.1l0,0c0-0.1-0.1-0.3-0.2-0.3h-0.1l0,0
				c0-0.1-0.1-0.2-0.3-0.1h0.1v0.1c0,0.1,0.1,0.2,0.2,0.2l0,0c0,0,0,0,0,0.1l0,0c-0.2-0.1-0.3,0-0.3,0.1v0.1c-0.1,0-0.1,0.2,0,0.3
				v-0.1l0,0l0.1,0.1h0.1c0,0,0,0,0.1,0c0,0,0,0,0.1,0l0,0c-0.1,0.1-0.1,0.3,0,0.3c-0.1,0.1-0.3,0.1-0.3-0.1
				c-0.2,0.3,0.1,0.5,0.4,0.4c0,0.1,0,0.3,0.1,0.3c0,0,0-0.1,0.1-0.1l0,0c0,0.1,0,0.2,0.1,0.2v-0.1c0,0.1,0.1,0.1,0.1,0.2
				c0.1,0.2,0.4,0.8,0.9,1c-0.3,0.2-0.5,0.4-0.7,0.6s-0.4,0.3-0.5,0.2c-0.1,0-0.1-0.1-0.2-0.2c-0.1,0-0.1-0.1-0.2,0h-0.1
				c-0.1,0-0.3,0-0.3,0.1c0.1,0,0.1,0,0.2,0v0.1c0,0.1,0.1,0.2,0.3,0.1l0,0c0,0-0.1,0.1-0.2,0c-0.1,0-0.2-0.1-0.3,0c0,0,0,0-0.1,0.1
				l0,0c-0.1,0-0.2,0.3-0.1,0.4c0,0,0-0.1,0.1-0.2c0,0,0,0.1,0.1,0.1c0.1,0.1,0.2,0.2,0.4-0.1l0,0c0,0.1-0.1,0.3,0,0.4h0.1l0,0
				c0,0.2,0.3,0.2,0.3,0.2c-0.1,0-0.2-0.1-0.2-0.2h0.1c0.1-0.1,0-0.2,0-0.3l0,0c0,0.1,0.1,0.2,0.3,0.1c0.1,0,0.1-0.1,0.1-0.2
				c0.2-0.1,0.4-0.1,0.5-0.1c0-0.1,0.1-0.3,0.3-0.3c0.2-0.1,0.3,0,0.4,0.1c0-0.1,0.1-0.2,0.2-0.4c0,0.8,1.1,0.8,1.4,1.3
				c-0.4-0.1-0.7-0.2-0.9-0.2c-0.3,0.1-0.7,0.3-0.8,0.6c-0.1,0.3,0.2,0.7,0.5,0.9c-0.3,0.1-0.5,0-0.7,0l0,0c-0.3,0-0.3-0.4-0.6-0.3
				c0,0-0.1,0-0.1,0.1l0,0c-0.1,0-0.3,0.1-0.2,0.3c0,0,0.1-0.1,0.2-0.1v0.1c0,0,0,0.1,0.1,0.1s0.1,0,0.1,0l0,0
				c0,0.1-0.4-0.1-0.3,0.3c0,0,0,0.1,0.1,0.1c0,0.1,0.1,0.2,0.2,0.1l-0.1-0.1h0.1c0,0,0,0,0.1-0.1l0,0l0,0c0,0,0,0,0,0.1v0.1
				c0,0.1,0.1,0.2,0.3,0.1c0,0-0.2,0-0.2-0.1h0.1v-0.1l0,0h0.1c0,0,0,0,0.1,0c0,0.1,0.1,0.1,0.2,0.1s0.1-0.1,0.1-0.1s0.1,0,0.1,0.1
				c0-0.1,0.1-0.2,0.3,0l0.2-0.1c0,0,0.2,0.1,0.3,0c0.2-0.1,0.1-0.1,0.1-0.3c-0.1-0.3-0.2-0.2-0.2-0.5c-0.1-0.4,0.5-0.7,0.8-0.6
				c0.1,0.3,0.4,1,1.1,1.2c0.4,0.1,0.5-0.3,0.7-0.2c0,0,0,0,0.1,0.1c0,0.2,0,0.4,0,0.5s-0.3,0-0.4,0s-0.1,0.1-0.1,0.1
				c-0.1,0-0.3,0.1-0.3,0.3c0,0,0.1-0.1,0.2-0.1V49c0,0.2,0.2,0.2,0.3,0.1c0,0,0.1,0,0,0c-0.1,0.1-0.3,0.2-0.1,0.3c0,0,0,0,0.1,0
				c0,0.1,0.1,0.2,0.2,0.2c0-0.1,0-0.1,0-0.2h0.1c0.1,0,0.1-0.2,0.2-0.3l0,0c0,0.1-0.1,0.3,0,0.3h0.1c0,0.1,0.1,0.2,0.3,0.1
				l-0.1-0.1l0.1-0.1c0.1-0.2-0.1-0.2-0.1-0.4c0-0.1,0.3,0,0.3-0.3l0,0c0.1-0.1,0.2-0.1,0.2-0.2C92.2,48.3,92,48.2,92,48.2L92,48.2z
				"/>
		</g>
	</g>
	<g>
		<g>
			<path class="st0" d="M79.5,55.7h-0.2c-0.2,0-0.5,0.1-0.5,0.4s0.2,0.4,0.4,0.5h0.1c0,0.1,0,0.1,0,0.2c-0.1,0.4-0.2,1.1-0.3,1.9
				l-2-3.1c1-0.4,1.7-0.8,2.1-0.8C79.5,54.8,79.6,55,79.5,55.7 M78.7,60.8l-3.2-4.6c0.4-0.1,0.7-0.2,1-0.3l2.4,3.5
				C78.9,59.8,78.8,60.3,78.7,60.8 M78.4,62.9l-4.6-6.6c0.2,0,0.3,0,0.4,0c0.2,0,0.5,0,0.7,0l3.7,5.3C78.5,62,78.4,62.5,78.4,62.9
				 M73.2,56.3l5,7.2C75.5,62.5,72.9,60.1,73.2,56.3 M80.7,55.8h-0.2v-0.2c0-0.8-0.5-1.4-1.3-1.4s-2.3,1-4.4,1c-0.9,0-2-0.4-2.6-0.8
				L71.9,55c0,0,0,0,0-0.1c0-0.3-0.2-0.5-0.5-0.5s-0.5,0.2-0.5,0.5s0.2,0.5,0.5,0.5c0.2,0,0.3-0.1,0.4-0.2l-0.3,0.6
				c0.1,0,0.2,0.1,0.3,0.1c-0.3,3.2,2,7.2,6.2,8.4c0.6-0.2,1.2-0.1,1.2,0.6c0,0.4-0.2,0.6-0.6,0.6c-0.2,0-0.4-0.1-0.4-0.3
				c0-0.3,0.5-0.1,0.5-0.3c0.1-0.3-0.1-0.4-0.4-0.4s-0.7,0.2-0.7,0.7c0,0.6,0.4,0.9,0.9,0.9s1.4-0.3,1.3-1.4c0.2,0,0.5,0,0.5-0.2
				v-0.6h-0.2l0.2-7.2h0.2c0.3,0,0.5-0.1,0.5-0.4C81.1,55.9,80.9,55.8,80.7,55.8"/>
		</g>
	</g>
	<g>
		<g>
			<path class="st0" d="M77,40.4C77,40.4,77.1,40.3,77,40.4c0.1-0.1,0.2-0.1,0.2-0.2s0-0.1-0.1-0.1c0.1,0,0.1,0,0.1-0.1h-0.1
				c0,0,0,0,0.1-0.1c0,0,0,0,0.1,0l0.3,0.1c0,0,0.1,0,0.1,0.1v0.1c0,0,0-0.1-0.1-0.1c0,0,0,0,0,0.1c-0.1,0-0.1-0.1-0.2,0v0.1v0.1
				c0,0.1-0.1,0.1-0.2,0.1C77,40.6,77,40.5,77,40.4 M77.3,39.8c0,0.1-0.1,0.1-0.2,0.1c-0.1-0.1,0-0.1-0.1-0.2
				C77.1,39.7,77.3,39.8,77.3,39.8 M77.5,39.9c0,0,0.2,0.1,0.3,0.1c-0.1,0-0.1,0.1-0.2,0.1C77.5,40.1,77.5,40,77.5,39.9 M76.8,40.1
				L76.8,40.1L76.8,40.1 M79.8,41.1c1,0,1.5-0.3,1.5-0.6c0-1.1-2.7-0.4-2.7-1.1c0-0.1,0.1-0.2,0.2-0.3l0,0c1.4-0.1,1.4-1.1,2.4-1.2
				c-1.2-0.2-1.3,0.8-1.8,0.8c0.3-0.1,0.4-0.4,0.3-0.6c-0.2,0.3-0.8,0.3-1.1,0.7c0,0.1-0.1,0.1-0.1,0.2c-0.2,0.1-0.3,0.2-0.3,0.4
				c0,1,2.7,0.3,2.7,1.1c0,0.3-0.5,0.4-1.2,0.4c-0.6,0-1-0.4-2-0.1c0-0.2,0.4-0.5,0.2-0.7c0.1,0,0.2-0.1,0.2-0.2
				c-0.1-0.1-0.1-0.1-0.2-0.1c0-0.1,0-0.1,0-0.1s0-0.1-0.1-0.1c0,0-0.1-0.1-0.2-0.2s-0.2-0.1-0.2-0.1h-0.1c-0.1,0-0.1,0-0.1,0.1
				c-0.1,0-0.1-0.1-0.2-0.1c0,0.1-0.1,0.2,0,0.3c-0.1,0-0.2,0.3-0.3,0.2c0,0.1,0.1,0.1,0.1,0.1c-0.1,0.1-0.1,0.3-0.2,0.3
				c0,0,0,0.1,0.1,0.1c-0.1,0.2-0.1,0.5-0.1,0.6c-0.1-0.1-0.1-0.1-0.2-0.2c-0.4,0-0.4-0.1-0.4-0.2s0.1-0.3,0.1-0.4V40
				c0-0.1-0.1-0.2-0.2-0.1L76,40l-0.1,0.1c0,0-0.1,0.1,0,0.1l0,0c0,0,0,0,0,0.1l0,0c0-0.1-0.1-0.2-0.1-0.3h-0.1l0,0
				c0-0.1-0.1-0.2-0.2-0.1h0.1V40c0,0.1,0.1,0.1,0.2,0.2l0,0l0,0l0,0c-0.2-0.1-0.3,0-0.3,0.1v0.1c-0.1,0-0.1,0.1,0,0.2
				c0,0,0-0.1,0.1-0.1l0,0l0,0h0.1l0,0c0,0,0,0,0.1,0l0,0c-0.1,0.1-0.1,0.2,0,0.3l0,0c0,0.2-0.4,0.2-0.3,0c-0.2,0.2,0.1,0.4,0.3,0.3
				l0,0c0,0.1,0,0.1,0.1,0.1c0,0,0,0,0.1,0l0,0c0,0.1,0,0.1,0.1,0.1v-0.1c0,0,0.1,0.2,0.3,0.3c-0.2,0.1-0.6,0.2-0.6,0.2
				s-0.4,0-0.5,0c-0.2,0.1-0.5,0.2-0.6,0.1c0-0.1,0-0.1-0.1-0.2c0-0.1-0.1-0.1-0.1-0.1h-0.1c-0.1-0.1-0.2-0.1-0.3,0
				c0,0,0.1,0,0.1,0.1v0.1c0,0,0,0.1,0.2,0.2l0,0h-0.1c-0.1-0.1-0.1-0.2-0.2-0.1c0,0,0,0-0.1,0l0,0c-0.1,0-0.3,0.1-0.2,0.2l0.1-0.1
				V42c0,0.1,0.1,0.2,0.3,0.1l0,0c-0.1,0.1-0.2,0.2-0.1,0.3c0,0,0,0,0.1,0l0,0c0,0.1,0.1,0.2,0.2,0.2c0,0-0.1-0.1-0.1-0.2h0.1
				c0.1-0.1,0.1-0.2,0.1-0.2l0,0c0,0.1,0,0.2,0.2,0.2c0.1,0,0.2-0.1,0.2-0.2l0,0c0,0,0.1,0.1,0.1,0.2c0,0,0.1,0,0.1-0.1
				c0,0.1,0,0.2,0,0.2s0.2-0.1,0.2-0.2c0,0,0,0,0.1,0.1l0,0c0.1,0,0.1,0,0.3,0l0,0c0,0.1,0,0.1,0,0.1s0-0.1,0.1-0.1
				c0,0,0,0.1,0.1,0.2c0-0.4,0.2-0.2,0.5-0.4l0,0c0,0,0,0.1-0.1,0.1c0.1,0,0.3-0.1,0.3-0.2l0.1-0.1c0.1,0,0.2,0,0.3-0.1
				c0,0,0,0.1,0,0.2c0.2,0,0.5-0.3,0.6-0.3c0.5-0.1-0.3-0.5,0.7-0.4c0.1,0,0.3-0.1,0.3-0.1c-0.1,0.2-0.1,0.5,0.1,0.5
				c0.1,0,0.2,0.1,0.3,0.1l0,0c-0.1,0-0.2,0-0.2,0.1c-0.3,0.2-0.3-0.4-0.5-0.3c0,0-0.1,0-0.1,0.1c-0.1,0-0.2,0.1-0.2,0.2
				c0,0,0.1-0.1,0.2-0.1V42c0,0,0,0.1,0.1,0.1s0.1,0,0.1,0l0,0c0,0.1-0.3-0.1-0.3,0.2v0.1c0,0.1,0.1,0.2,0.2,0.1c0,0-0.1,0-0.1-0.1
				h0.1l0,0l0,0l0,0c0,0,0,0,0,0.1v0.1c0,0.1,0.1,0.2,0.3,0.1c0,0-0.1,0-0.1-0.1h0.1v-0.1l0,0c0,0,0,0,0.1,0l0,0
				c0,0.1,0.1,0.1,0.2,0.1c0.2-0.1,0-0.2,0.2-0.2h0.1c0.1,0,0.3,0,0.4,0c0-0.1,0-0.3-0.1-0.4c-0.1,0,0-0.1-0.1-0.3
				c0.2,0.1,0.3,0.1,0.5,0.1c0.4,0,0-0.1,0.2-0.2s0.4-0.1,0.5,0c0,0,0.1,0,0.1,0.1c0,0.2,0,0.2,0,0.3s-0.2,0-0.3,0
				c-0.1,0-0.1,0-0.1,0c-0.1,0-0.2,0.1-0.2,0.2c0,0,0.1-0.1,0.2-0.1l0,0c0,0.1,0.2,0.2,0.2,0.1l0,0c-0.1,0.1-0.2,0.2-0.1,0.2
				c0,0,0,0,0.1,0c0,0.1,0,0.2,0.1,0.2c0,0,0-0.1,0-0.2h0.1c0.1,0,0.1-0.2,0.1-0.2l0,0c0,0.1-0.1,0.2,0,0.2c0,0,0,0,0.1,0
				c0,0.1,0.1,0.1,0.2,0.1c0,0-0.1,0-0.1-0.1l0.1-0.1c0.1-0.2-0.1-0.2-0.1-0.3s0.2,0,0.2-0.2c0,0,0-0.1-0.1-0.1l0,0l0,0
				c0,0,0.1,0,0.1-0.1c-0.1,0-0.1-0.1-0.1-0.2l0,0c0,0,0.1-0.1,0.1-0.2c0,0.1-0.2,0.1-0.2,0c0,0,0-0.1-0.2-0.1
				C80.4,41.4,80.3,41.2,79.8,41.1C79.8,41.2,79.7,41.2,79.8,41.1"/>
		</g>
	</g>
	<g>
		<g>
			<path class="st0" d="M75.4,46.3L75.4,46.3L75.4,46.3 M74.6,44.7C74.6,44.6,74.7,44.6,74.6,44.7c0.2-0.1,0.2-0.1,0.2-0.2
				s0-0.1-0.1-0.2c0.1,0,0.1,0,0.1-0.1s-0.1,0-0.1,0s0-0.1,0.1-0.1h0.1l0.3,0.1c0,0,0.1,0,0.1,0.1v0.1c0,0,0-0.1-0.1-0.1v0.1
				c-0.1,0-0.1-0.1-0.2,0c0,0.1,0,0.1,0,0.2c0,0,0,0.1,0,0.2s-0.1,0.2-0.2,0.1C74.5,44.8,74.5,44.7,74.6,44.7 M74.9,43.9
				c0,0.1-0.2,0.2-0.2,0.1c-0.1-0.1,0-0.1-0.1-0.3C74.7,43.8,74.9,43.9,74.9,43.9 M75.2,44c0,0,0.3,0.1,0.4,0.1
				c-0.2,0-0.1,0.1-0.2,0.1C75.2,44.2,75.2,44.1,75.2,44 M73.6,45.4L73.6,45.4L73.6,45.4 M81.2,44.8c0-0.3-0.3-0.5-1.3-0.5
				s-3.1,0.4-3.1-0.2c0-0.3,0.4-0.2,0.9-0.2c0,0,0.1,0.1,0.2,0.1c1.2,0.4,2.7-0.3,3.4-0.1c-0.9-0.7-1.6,0-2.6-0.2
				c0.5,0,0.7-0.1,0.8-0.3c-0.4,0.3-1.2-0.1-1.7,0.2c0,0-0.1,0-0.1,0.1c-0.7,0-1.2,0-1.2,0.4c0,1,2.6,0.4,3.4,0.4s1,0.1,1,0.2
				c0,0.2-0.8,0.3-1.3,0.3c-0.7,0-2.8-0.4-4.1-0.1c0.1-0.2,0.3-0.5,0.2-0.6c0.1,0,0.2-0.1,0.2-0.2C75.8,44,75.7,44,75.7,44
				c0-0.1,0-0.1-0.1-0.2c0,0,0-0.2-0.1-0.2c0,0-0.1-0.1-0.3-0.2c-0.2-0.1-0.2-0.1-0.3-0.1h-0.2c-0.1,0-0.2,0-0.2,0.1
				c-0.1-0.1-0.1-0.1-0.2-0.1c0,0.1-0.1,0.2,0,0.3c-0.1,0-0.2,0.3-0.3,0.3c0,0.1,0.1,0.1,0.1,0.1c-0.1,0.2-0.1,0.4-0.2,0.4
				c0.1,0.1,0.1,0.1,0.2,0.1c0,0.1,0,0.3,0,0.4l-0.2-0.1c0,0,0,0-0.1,0h-0.1h0.1h-0.1c-0.1-0.1-0.2-0.2-0.4-0.4
				c-0.2-0.1-0.2-0.2-0.2-0.4s0.1-0.3,0.1-0.5c0,0,0-0.1,0-0.2S73,43.1,73,43.1s0.1,0.1,0.1,0.2L73,43.4c0,0,0,0.1,0,0.2l0,0
				c0,0,0,0,0,0.1l0,0c0-0.1-0.1-0.3-0.2-0.3h-0.1l0,0c0-0.1-0.1-0.2-0.3-0.1h0.1v0.1c0,0.1,0.1,0.2,0.2,0.2l0,0c0,0,0,0,0,0.1l0,0
				c-0.2-0.1-0.3,0-0.3,0.1v0.1c-0.1,0.1-0.1,0.2,0,0.3c0-0.1,0-0.1,0.1-0.1l0,0v0.1h0.1l0,0c0,0,0,0,0.1,0l0,0
				c-0.2,0.1-0.1,0.3,0.1,0.3l0,0c0,0.3-0.4,0.2-0.4,0c-0.2,0.3,0.1,0.5,0.4,0.4l0,0c0,0,0,0.1,0.1,0.1c0,0,0-0.1,0.1-0.1l0,0
				c0,0.1,0,0.1,0.1,0.2c0-0.1,0-0.1,0-0.1c0.1,0,0.2,0.2,0.4,0.3c0.2,0.1,0.3,0.3,0.4,0.2c0,0.2,0.1,0.4,0.1,0.4
				c-0.1,0-0.6,0-0.7,0c-0.2,0.1-0.6,0.3-0.8,0.1c0-0.1,0-0.1-0.1-0.2c0-0.1-0.1-0.1-0.1-0.1h-0.1c-0.1-0.1-0.2-0.1-0.3,0
				c0.1,0,0.1,0,0.2,0.1v0.1c0,0.1,0,0.1,0.3,0.2l0,0c0,0-0.1,0-0.2,0c-0.1-0.1-0.1-0.2-0.3-0.1c0,0,0,0-0.1,0l0,0
				c-0.1,0-0.3,0.1-0.2,0.3c0,0,0.1-0.1,0.2-0.1v0.1c0,0.1,0.1,0.3,0.4,0.1l0,0c-0.1,0.1-0.3,0.2-0.1,0.3c0,0,0,0,0.1,0l0,0
				c0,0.2,0.2,0.3,0.2,0.3s-0.1-0.1-0.1-0.2h0.1c0.1-0.1,0.1-0.2,0.2-0.3l0,0c0,0.1,0,0.2,0.2,0.2s0.2-0.1,0.2-0.2l0,0
				c0.1,0,0.1,0.1,0.1,0.2l0.1-0.1c0,0.1,0,0.2-0.1,0.3c0.1,0,0.2-0.1,0.3-0.3c0,0,0,0.1,0.1,0.1l0,0c0.1,0,0.2,0,0.3,0l0,0
				c0,0.1,0,0.1,0,0.2c0,0,0-0.1,0.1-0.1c0,0,0,0.2,0.1,0.3c0-0.4,0.3-0.3,0.5-0.4l0,0c0,0,0,0.1-0.1,0.2c0.3,0.1,0.8-0.4,0.8-0.6
				c0.1,0,0.2,0,0.3,0c0.9,0.1,0.3-0.8,1.6-0.5c0.1,0,0.3-0.1,0.3-0.2c-0.1,0.2-0.1,0.5,0.1,0.6c0.1,0,0.3,0.1,0.3,0.1l0,0
				c-0.1,0-0.2,0-0.3,0.1c-0.3,0.2-0.3-0.4-0.6-0.3c0,0-0.1,0-0.1,0.1c-0.1,0-0.3,0.1-0.3,0.3c0,0,0.1-0.1,0.2-0.1v0.1
				c0,0,0,0.1,0.1,0.1s0.1,0,0.1,0l0,0c0,0.1-0.4-0.1-0.3,0.2c0,0,0,0.1,0.1,0.1c0,0.1,0.1,0.2,0.2,0.1l-0.1-0.1h0.1l0,0l0,0l0,0
				c0,0,0,0,0,0.1v0.1c0,0.1,0.2,0.2,0.3,0.1c0,0-0.1,0-0.2-0.1h0.1V47l0,0c0,0,0,0,0.1,0c0,0,0,0,0.1,0c0,0.1,0.1,0.1,0.2,0.1
				c0.2-0.1,0-0.3,0.2-0.3h0.1c0.2,0,0.4,0,0.5,0c0-0.1,0-0.4-0.2-0.5c-0.1-0.1,0-0.2-0.1-0.3c0.2,0.1,0.4,0.1,0.6,0.1
				c0.5,0,0.6-0.1,0.7-0.2c0.2-0.1,0.5-0.1,0.5,0c0.1,0,0.1,0,0.1,0.1c0,0.2,0,0.3,0,0.4s-0.2,0-0.4,0c-0.1,0-0.1,0-0.1,0.1
				c-0.1,0-0.2,0.1-0.2,0.2c0,0,0.1-0.1,0.2-0.1v0.1c0,0.2,0.2,0.2,0.3,0.1c0,0,0.1,0,0,0c-0.1,0.1-0.2,0.2-0.1,0.3c0,0,0,0,0.1,0
				c0,0.1,0.1,0.2,0.1,0.2c0-0.1,0-0.1,0-0.2h0.1c0.1,0,0-0.2,0.2-0.2l0,0c0,0.1-0.1,0.2,0,0.3h0.1c0,0.1,0.1,0.2,0.3,0.1
				c0,0-0.1,0-0.1-0.1l0.1-0.1c0.1-0.2-0.1-0.2-0.1-0.3s0.2,0,0.2-0.3c0-0.1,0-0.1-0.1-0.1l0,0c0.1,0,0.1,0,0.2-0.1
				C81,46,81,45.9,81,45.8l0,0c0.1,0,0.1-0.1,0.1-0.3c-0.1,0.1-0.3,0.2-0.3,0c0,0,0-0.1-0.2-0.1c-0.3,0-0.5,0-1.1-0.1
				C80.2,45.3,81.2,45.2,81.2,44.8"/>
		</g>
	</g>
	<g>
		<g>
			<path class="st0" d="M73.5,48.9C73.5,48.8,73.5,48.8,73.5,48.9c0.2-0.1,0.2-0.1,0.2-0.2s0-0.1-0.1-0.1c0.1,0,0.1-0.1,0.1-0.1
				h-0.1c0,0,0-0.1,0.1-0.1h0.1l0.3,0.1c0,0,0.1,0,0.1,0.1v0.1c0,0,0-0.1-0.1-0.1c0,0,0,0,0,0.1c-0.1,0-0.1,0-0.2,0
				c0,0.1,0,0.1,0,0.1v0.1c0,0.1-0.1,0.2-0.2,0.1C73.4,49.1,73.5,49,73.5,48.9 M73.8,48.2c0,0.1-0.1,0.2-0.2,0.1s0-0.1-0.1-0.3
				C73.6,48.1,73.8,48.2,73.8,48.2 M74,48.3c0,0,0.3,0.1,0.4,0.1c-0.2,0-0.1,0.1-0.2,0.1C74.1,48.5,74,48.4,74,48.3 M80.7,49
				c0-0.3-0.3-0.5-1.2-0.5c-0.9,0-3.7,0.3-3.7-0.2c0-0.3,1-0.2,1.7-0.2c0,0,0.1,0.1,0.2,0.1c1.2,0.3,2.4-0.5,3.3-0.2
				c-0.7-0.6-1.5,0.1-2.4-0.1c0.5,0,1.1-0.1,1.1-0.3c-0.4,0.3-1.6-0.2-2,0.1c0,0-0.1,0-0.1,0.1c-0.9,0-1.9-0.1-1.9,0.4
				c0,0.9,3.2,0.4,4,0.4s0.9,0.1,0.9,0.2c0,0.2-0.8,0.3-1.2,0.3c-0.7,0-3.7-0.4-4.9,0c0.1-0.2,0.4-0.5,0.2-0.7
				c0.1-0.1,0.2-0.1,0.2-0.2c-0.1-0.1-0.1-0.1-0.2-0.1c0-0.1,0-0.1-0.1-0.2c0,0,0-0.1-0.1-0.2c0,0-0.1-0.1-0.3-0.2
				c-0.1-0.1-0.2-0.1-0.3-0.1h-0.2c-0.1,0-0.1,0-0.2,0.1c0-0.1-0.1-0.1-0.2-0.1c0,0.1-0.1,0.2,0,0.3c-0.1,0-0.2,0.3-0.3,0.3
				c0,0.1,0.1,0.1,0.1,0.1c-0.1,0.2-0.1,0.4-0.2,0.4c0,0.1,0.1,0.1,0.1,0.1c0,0.1,0,0.2,0,0.3h-0.1c-0.1,0-0.1,0-0.1,0s-0.1,0-0.2,0
				s-0.2-0.2-0.5-0.4c-0.2-0.1-0.2-0.2-0.2-0.4s0.1-0.3,0.1-0.4c0,0,0-0.1-0.1-0.1c0-0.1-0.2-0.2-0.2-0.2c0.1,0,0.1,0.1,0.1,0.2
				l-0.1,0.1c0,0,0,0.1,0,0.2l0,0c0,0,0,0,0,0.1l0,0c0-0.1-0.1-0.3-0.2-0.3h-0.1l0,0c0-0.1-0.1-0.2-0.3-0.1c0,0,0.1,0,0.1,0.1v0.1
				c0,0.1,0.1,0.2,0.2,0.2l0,0c0,0,0,0,0,0.1l0,0c-0.2-0.1-0.3,0-0.3,0.1v0.1c-0.1,0.1-0.1,0.2,0,0.3c0,0,0-0.1,0.1-0.1l0,0
				c0,0,0.1,0,0.1,0.1h0.1c0,0,0,0,0.1,0c0,0,0,0,0.1,0l0,0c-0.1,0.1-0.1,0.3,0.1,0.3l0,0c0,0.2-0.4,0.2-0.3,0
				c-0.2,0.3,0.1,0.5,0.4,0.4l0,0c0,0,0,0.1,0.1,0.1c0,0,0-0.1,0.1-0.1l0,0c0,0.1,0,0.2,0.1,0.2c0-0.1,0-0.1,0-0.1s0.2,0.4,0.6,0.6
				c0.1,0,0.2,0,0.2-0.1c0,0,0,0.1,0.1,0.1c0,0.2,0.1,0.4,0.1,0.4c-0.1,0-0.6,0-0.8,0c-0.2,0.1-0.6,0.3-0.7,0.1c0-0.1,0-0.1-0.1-0.2
				c0-0.1-0.1-0.1-0.1-0.1h-0.1c-0.1-0.1-0.2-0.1-0.3,0c0,0,0.1,0,0.2,0.1v0.1c0,0.1,0,0.1,0.2,0.2l0,0c0,0-0.1,0-0.2,0
				c-0.1-0.1-0.1-0.2-0.2-0.1c0,0,0,0-0.1,0l0,0c-0.1,0-0.3,0.1-0.2,0.3l0.1-0.1v0.1c0,0.1,0.1,0.2,0.4,0.1l0,0
				c-0.1,0.1-0.2,0.2-0.1,0.3c0,0,0,0,0.1,0.1l0,0c0,0.2,0.1,0.3,0.2,0.3c0,0-0.1-0.1-0.1-0.2h0.1c0.1,0,0.1-0.2,0.1-0.3l0,0
				c0,0.1,0,0.2,0.2,0.2c0.1,0,0.2-0.1,0.2-0.2l0,0c0.1,0,0.1,0.1,0.1,0.2l0.1-0.1c0,0.1,0,0.2-0.1,0.3c0.1,0,0.2-0.1,0.3-0.3
				l0.1,0.1l0,0c0.1,0,0.2,0,0.3,0l0,0c0,0.1,0,0.1,0,0.2c0,0,0-0.1,0.1-0.1c0,0,0,0.2,0.1,0.2c0-0.4,0.5-0.2,0.8-0.4l0,0
				c0,0,0,0.1-0.1,0.1c0.1,0,0.2-0.1,0.3-0.1l0,0l0.4-0.2v-0.1c0.1,0,0.1,0,0.1,0l0,0c0.3,0,0.2-0.2,0.3-0.2
				c1.5,0.2,0.6-0.6,2.4-0.5c0.1,0,0.1,0,0.2-0.1c-0.1,0.2-0.1,0.5,0.1,0.5c0.1,0,0.2,0.1,0.3,0.1l0,0c-0.1,0-0.2,0-0.2,0.1
				c-0.3,0.2-0.3-0.4-0.6-0.3c0,0-0.1,0-0.1,0.1c-0.1,0-0.3,0.1-0.2,0.3c0,0,0.1-0.1,0.2-0.1v0.1c0,0,0,0.1,0.1,0.1s0.1,0,0.1,0l0,0
				c0,0.1-0.4-0.1-0.3,0.2v0.1c0,0.1,0.1,0.2,0.2,0.1l-0.1-0.1H77c0,0,0,0,0-0.1l0,0l0,0c0,0,0,0,0,0.1v0.1c0,0.1,0.2,0.2,0.3,0.1
				c0,0-0.1,0-0.2-0.1h0.1v-0.1l0,0c0,0,0,0,0.1,0h0.1c0,0.1,0.1,0.1,0.2,0.1c0.2-0.1,0-0.2,0.2-0.3h0.1c0.2,0,0.4,0,0.4,0
				c0-0.1,0-0.3-0.1-0.4c-0.1,0,0-0.2-0.1-0.3c0.2,0.1,0.4,0.1,0.6,0.1c0.4,0,0.5-0.1,0.7-0.2s0.4-0.1,0.5,0c0,0,0.1,0,0.1,0.1
				c0,0.2,0,0.2,0,0.3s-0.2,0-0.3,0c-0.1,0-0.1,0-0.1,0.1c-0.1,0-0.2,0.1-0.2,0.2c0,0,0.1-0.1,0.2-0.1l0,0c0,0.2,0.2,0.2,0.3,0.1
				c0,0,0.1,0,0,0c-0.1,0.1-0.2,0.2-0.1,0.3c0,0,0,0,0.1,0c0,0.1,0.1,0.2,0.1,0.2s0-0.1,0-0.2h0.1c0.1,0,0-0.2,0.2-0.2l0,0
				c0,0.1-0.1,0.2,0,0.3c0,0,0,0,0.1,0c0,0.1,0.1,0.1,0.3,0.1c0,0-0.1,0-0.1-0.1l0.1-0.1c0.1-0.2-0.1-0.2-0.1-0.3s0.2,0,0.2-0.3
				c0,0,0-0.1-0.1-0.1l0,0l0,0c0.1,0,0.1,0,0.2-0.1c-0.2,0-0.1-0.1-0.1-0.2l0,0c0,0,0.1-0.1,0.1-0.2c0,0.1-0.2,0.2-0.2,0
				c0,0,0-0.1-0.2-0.1c-0.3,0-0.5,0-1-0.1C79.8,49.5,80.7,49.4,80.7,49"/>
		</g>
	</g>
	<g>
		<g>
			<path class="st0" d="M87.8,56.4L87.8,56.4L87.8,56.4 M86.4,54.3L86.4,54.3L86.4,54.3 M86.4,54.6L86.4,54.6L86.4,54.6z M86.6,55
				C86.6,54.9,86.7,54.9,86.6,55c0.2-0.1,0.2-0.1,0.2-0.2s0-0.1-0.1-0.1c0.1,0,0.1,0,0.1-0.1h-0.1v-0.1h0.1l0.3,0.1
				c0,0,0.1,0,0.1,0.1v0.1c0,0,0-0.1-0.1-0.1c0,0,0,0,0,0.1c-0.1,0-0.1-0.1-0.2,0c0,0.1,0,0.1,0,0.1s0,0.1,0,0.2s-0.1,0.2-0.2,0.1
				C86.6,55.2,86.6,55,86.6,55 M86.9,54.3c0,0.1-0.1,0.2-0.2,0.1s0-0.1-0.1-0.2C86.7,54.1,86.9,54.2,86.9,54.3 M87.2,54.4
				c0,0,0.3,0.1,0.4,0.1c-0.2,0-0.1,0.1-0.2,0.1C87.2,54.6,87.1,54.5,87.2,54.4 M93.7,56.1C93.7,56.1,93.7,56,93.7,56.1
				c0.1-0.1,0.1-0.1,0.1-0.3c-0.1,0.1-0.2,0.2-0.3,0c0,0,0-0.1-0.2-0.1c-0.3,0-0.5,0-1.1-0.1c0,0-0.1,0,0,0c0.5,0,1.5-0.1,1.5-0.5
				c0-0.3-0.3-0.5-1.2-0.5c-0.9,0-3.7,0.3-3.7-0.2c0-0.3,1-0.2,1.7-0.2c0,0.1,0.1,0.1,0.2,0.1c1.2,0.3,2.5-0.5,3.2-0.3
				c-0.9-0.3-1.5,0.2-2.4,0c0.5,0,1.1-0.1,1.1-0.2c-0.4,0.3-1.6-0.2-2,0.1c0,0-0.1,0-0.1,0.1c-0.9,0-1.9-0.1-1.9,0.4
				c0,0.9,3.2,0.4,4,0.4s0.9,0.1,0.9,0.2c0,0.2-0.8,0.3-1.2,0.3c-0.7,0-3.7-0.4-4.9,0c0.1-0.2,0.4-0.5,0.2-0.7
				c0.1-0.1,0.2-0.1,0.2-0.2c-0.1-0.1-0.1-0.1-0.2-0.1c0-0.1,0-0.1-0.1-0.2c0,0,0-0.1-0.1-0.2c0-0.1-0.1-0.1-0.3-0.2
				c-0.1-0.1-0.2-0.1-0.3-0.1h-0.2c-0.1,0-0.1,0-0.1,0.1c-0.1-0.1-0.1-0.1-0.2-0.1c0,0.1-0.1,0.2,0,0.3c-0.1,0-0.2,0.3-0.3,0.2
				c0,0.1,0.1,0.1,0.1,0.1c-0.1,0.2-0.1,0.4-0.2,0.4c0.1,0.1,0.1,0.1,0.2,0.1c0,0.1,0,0.2,0,0.3l-0.2-0.1c-0.1,0-0.1,0-0.1,0
				s-0.1,0-0.2,0s-0.2-0.2-0.5-0.4C85,54.7,85,54.6,85,54.4s0.1-0.3,0.1-0.4c0,0,0-0.1-0.1-0.1c0-0.1-0.2-0.2-0.2-0.2
				s0.1,0.1,0.1,0.2L84.8,54c0,0,0,0.1,0,0.2l0,0c0,0,0,0,0,0.1l0,0c0-0.1-0.1-0.3-0.2-0.3h-0.1l0,0c0-0.1-0.1-0.2-0.3-0.1h0.1V54
				c0,0.1,0.1,0.2,0.2,0.2l0,0l0,0l0,0c-0.2-0.1-0.3,0-0.3,0.1v0.1c-0.1,0-0.1,0.2,0,0.2v-0.1l0,0c0,0,0,0,0.1,0h0.1l0,0
				c0,0,0,0,0.1,0l0,0c-0.1,0.1-0.1,0.3,0.1,0.3l0,0c0,0.2-0.4,0.2-0.3-0.1c-0.2,0.3,0.1,0.5,0.4,0.4l0,0c0,0,0,0.1,0.1,0.1
				c0,0,0,0,0.1,0l0,0c0,0.1,0,0.2,0.1,0.2c0-0.1,0-0.1,0-0.1c0.1,0,0.2,0.4,0.6,0.6c0,0,0.1-0.1,0.2-0.1c0,0.1,0.1,0.1,0.1,0.2H86
				c0,0.2,0.2,0.4,0.1,0.4c0,0-0.4,0-0.5,0c-0.2,0.1-0.6,0.2-0.7,0.1c0-0.1,0-0.1-0.1-0.2c0-0.1-0.1-0.1-0.1-0.1h-0.1
				c-0.1-0.1-0.2-0.1-0.3,0c0.1,0,0.1,0,0.2,0.1v0.1c0,0.1,0,0.2,0.3,0.2l0,0h-0.1c-0.1-0.1-0.1-0.2-0.2-0.1c0,0,0,0-0.1,0l0,0
				c-0.1,0-0.3,0.1-0.2,0.3c0,0,0-0.1,0.1-0.1v0.1c0,0.1,0.1,0.2,0.4,0.1l0,0c-0.1,0.1-0.2,0.2-0.1,0.3c0,0,0,0,0.1,0.1l0,0
				c0,0.2,0.1,0.3,0.2,0.3c0,0-0.1-0.1-0.1-0.2h0.1c0.1-0.1,0.1-0.2,0.2-0.3l0,0c0,0.1,0,0.2,0.2,0.2c0.1,0,0.2-0.1,0.2-0.2l0,0
				c0.1,0,0.1,0.1,0.1,0.2l0.1-0.1c0,0.1,0,0.2-0.1,0.3c0.1,0,0.2-0.1,0.3-0.3c0,0,0,0.1,0.1,0.1l0,0c0.1,0,0.2,0,0.3,0l0,0
				c0,0.1,0,0.1,0,0.2c0,0,0-0.1,0.1-0.1c0,0,0,0.2,0.1,0.3c0-0.4,0.3-0.2,0.5-0.4l0,0l-0.1,0.1c0.1,0.1,0.5-0.2,0.5-0.3
				c0,0,0.1-0.1,0.3-0.1c0.3,0,0.2-0.2,0.3-0.2c1.5,0.2,0.6-0.6,2.4-0.5c0.1,0,0.1-0.1,0.2-0.2c-0.1,0.2-0.1,0.5,0.1,0.6
				c0.1,0,0.2,0.1,0.3,0.1l0,0c-0.1,0-0.2,0-0.3,0.1c-0.3,0.2-0.3-0.4-0.6-0.3c0,0-0.1,0-0.1,0.1c-0.1,0-0.3,0.1-0.2,0.2
				c0,0,0.1-0.1,0.2-0.1v0.1c0,0,0,0.1,0.1,0.1s0.1,0,0.1,0l0,0c0,0.1-0.4-0.1-0.3,0.2c0,0,0,0.1,0.1,0.1c0,0.1,0.1,0.2,0.2,0.1
				l-0.1-0.1h0.1c0,0,0,0,0-0.1l0,0l0,0c0,0,0,0,0,0.1v0.1c0,0.1,0.1,0.2,0.3,0.1c0,0-0.1,0-0.2-0.1h0.1v-0.1l0,0h0.1c0,0,0,0,0.1,0
				c0,0.1,0.1,0.1,0.2,0.1c0.2-0.1,0-0.2,0.2-0.3h0.1c0.1,0,0.4,0,0.4,0c0-0.1,0-0.3-0.1-0.4c-0.1,0,0-0.2-0.1-0.3
				c0.2,0.1,0.3,0.1,0.6,0.1c0.4,0,0.5-0.1,0.8-0.2c0.2-0.1,0.4-0.1,0.5-0.1s0.1,0,0.1,0.1c-0.1,0.2,0,0.2,0,0.3
				c-0.1,0.1-0.2,0-0.3,0c-0.1,0-0.1,0-0.1,0.1c-0.1,0-0.2,0.1-0.2,0.2c0,0,0.1-0.1,0.2-0.1l0,0c0,0.2,0.2,0.2,0.3,0.1
				c0,0,0.1,0,0,0c-0.1,0.1-0.3,0.2-0.1,0.3c0,0,0,0,0.1,0c0,0.1,0,0.2,0.1,0.2c0,0,0-0.1,0-0.2h0.1c0.1,0,0.1-0.2,0.2-0.2l0,0
				c0,0.1-0.1,0.2,0,0.3c0,0,0,0,0.1,0c0,0.1,0.1,0.1,0.2,0.1c0,0-0.1,0-0.1-0.1l0.1-0.1c0.1-0.2-0.1-0.2-0.1-0.3s0.2,0,0.2-0.3
				c0,0,0-0.1-0.1-0.1l0,0c0.1,0,0.1,0,0.2-0.1C93.7,56.3,93.8,56.2,93.7,56.1"/>
		</g>
	</g>
	<g>
		<g>
			<path class="st0" d="M87.1,58.7c-0.1,0-0.1-0.1-0.1-0.2c0,0,0.2,0.1,0.3,0.1C87.2,58.6,87.2,58.7,87.1,58.7 M87,58.8
				C87,58.8,87,58.7,87,58.8C86.9,58.7,86.9,58.8,87,58.8c-0.2,0-0.2-0.1-0.2,0s0,0.1,0,0.1V59c0,0.1-0.1,0.2-0.2,0.1
				c-0.1,0-0.1-0.2-0.1-0.2c0-0.1,0.1-0.1,0.1-0.1c0.1,0,0.1,0,0.1-0.1s0-0.1-0.1-0.1c0.1,0,0.1-0.1,0.1-0.1h-0.1c0,0,0,0,0.1-0.1
				h0.1l0.3,0.1c0,0,0.1,0,0.1,0.1C87,58.8,87,58.8,87,58.8 M86.8,58.3c0,0.1-0.1,0.1-0.2,0.1c-0.1-0.1,0-0.1-0.1-0.2
				C86.6,58.2,86.8,58.3,86.8,58.3 M89.6,58.4c0,0.1,0.1,0.1,0.2,0.2c1.1,0.3,2.4-0.5,3.1-0.3c-0.9-0.3-1.4,0.2-2.3,0
				c0.5,0,1-0.1,1.1-0.2c-0.4,0.3-1.5-0.2-1.9,0.1c0,0-0.1,0-0.1,0.1c-0.6,0-1.1,0-1.1,0.4c0,0.9,2.3,0.4,3.1,0.4
				c0.7,0,0.6,0.1,0.6,0.2c0,0.2-0.8,0.3-1.3,0.3c-0.6,0-2.5-0.3-3.7-0.1c0.1-0.2,0.3-0.4,0.2-0.6c0.1,0,0.2-0.1,0.2-0.2
				c-0.1-0.1-0.1-0.1-0.2-0.1c0-0.1,0-0.1,0-0.2c0,0,0-0.1-0.1-0.1c0,0-0.1-0.1-0.3-0.2C87,58,86.9,58,86.8,58h-0.2
				c-0.1,0-0.1,0-0.1,0.1c-0.1,0-0.1-0.1-0.2-0.1c0,0.1-0.1,0.2,0,0.3c-0.1,0-0.2,0.3-0.3,0.2c0,0.1,0.1,0.1,0.1,0.1
				c-0.1,0.2-0.1,0.3-0.2,0.3L86,59c0,0.1-0.1,0.2-0.1,0.3h-0.1l0,0c-0.1,0-0.2,0-0.5-0.1c-0.2-0.1-0.2-0.2-0.2-0.4s0.1-0.3,0.1-0.4
				v-0.1c0-0.1-0.2-0.2-0.2-0.2s0.1,0.1,0.1,0.2L85,58.4c0,0-0.1,0.1,0,0.2l0,0c0,0,0,0,0,0.1l0,0c0-0.1-0.1-0.3-0.2-0.3
				c0,0,0,0-0.1,0l0,0c0-0.1-0.1-0.2-0.2-0.1c0,0,0.1,0,0.1,0.1v0.1c0,0.1,0.1,0.2,0.2,0.2l0,0l0,0l0,0c-0.2-0.1-0.3,0-0.3,0.1v0.1
				c-0.1,0.1-0.1,0.2,0,0.2V59l0,0c0,0,0,0,0.1,0h0.1l0,0c0,0,0,0,0.1,0l0,0c-0.1,0.1-0.1,0.3,0.1,0.3l0,0c0,0.2-0.3,0.2-0.3-0.1
				c-0.2,0.3,0.1,0.5,0.4,0.4l0,0c0,0.1,0,0.1,0.1,0.1v-0.1l0,0c0,0.1,0,0.1,0.1,0.2v-0.1c0,0,0-0.1,0.3,0.1c0,0.1,0.1,0.1,0.1,0.1
				h0.2c0,0.2,0,0.4,0,0.4c-0.1,0-0.4,0-0.5,0c-0.2,0.1-0.6,0.2-0.7,0.1c0-0.1,0-0.1-0.1-0.2c0-0.1-0.1-0.1-0.1-0.1h-0.1
				c-0.1-0.1-0.2-0.1-0.3,0c0,0,0.1,0,0.2,0.1v0.1c0,0.1,0,0.1,0.2,0.2l0,0h-0.1c-0.1-0.1-0.1-0.2-0.2-0.1c0,0,0,0-0.1,0l0,0
				c-0.1,0-0.3,0.1-0.2,0.3l0.1-0.1v0.1c0,0.1,0.1,0.2,0.3,0.1l0,0c-0.1,0.1-0.2,0.2-0.1,0.3c0,0,0,0,0.1,0l0,0
				c0,0.2,0.1,0.3,0.2,0.3c0,0-0.1-0.1-0.1-0.2h0.1c0.1-0.1,0.1-0.2,0.1-0.2l0,0c0,0.1,0,0.2,0.2,0.2c0.1,0,0.2-0.1,0.2-0.2l0,0
				c0,0,0.1,0.1,0.1,0.2l0.1-0.1c0,0.1,0,0.2-0.1,0.3c0.1,0,0.2-0.1,0.2-0.3c0,0,0,0.1,0.1,0.1l0,0c0,0,0.1,0,0.3,0l0,0
				c0,0.1,0,0.1,0,0.2c0,0,0-0.1,0.1-0.1c0,0,0,0.2,0.1,0.2c0-0.4,0.4-0.3,0.6-0.5l0,0l-0.1,0.1c0.3,0.2,0.5-0.2,0.6-0.4
				c0,0,0,0,0.1-0.1v0.1c0.2,0,0.2-0.2,0.3-0.2c0.8,0.1,0.2-0.6,1.4-0.4c0.1,0,0.2-0.1,0.3-0.1c-0.1,0.2-0.1,0.5,0.1,0.5
				c0.1,0,0.2,0.1,0.3,0.1l0,0c-0.1,0-0.2,0-0.2,0.1c-0.3,0.2-0.3-0.4-0.5-0.3h-0.1c-0.1,0-0.3,0.1-0.2,0.2c0,0,0.1-0.1,0.2-0.1v0.1
				c0,0,0,0.1,0.1,0.1s0.1,0,0.1,0l0,0c0,0.1-0.3-0.1-0.3,0.2c0,0,0,0.1,0.1,0.1c0,0.1,0.1,0.2,0.2,0.1L88.7,61h0.1l0,0l0,0l0,0
				c0,0,0,0,0,0.1v0.1c0,0.1,0.1,0.2,0.3,0.1c0,0-0.1,0-0.2-0.1H89v-0.1l0,0c0,0,0,0,0.1,0c0,0,0,0,0.1,0c0,0.1,0.1,0.1,0.2,0.1
				c0.2-0.1,0-0.2,0.2-0.2h0.1c0.1,0,0.4,0,0.4,0c0-0.1,0-0.3-0.1-0.4c-0.1,0,0-0.2-0.1-0.3c0.2,0.1,0.3,0.1,0.5,0.1
				c0.4,0,0.6,0,0.8-0.2c0.2-0.1,0.4-0.1,0.5,0c0.1,0,0.1,0,0.1,0.1c-0.1,0.2,0,0.2-0.1,0.3s-0.2,0-0.3,0c-0.1,0-0.1,0.1-0.1,0.1
				c-0.1,0-0.3,0.1-0.3,0.2c0,0,0.1-0.1,0.2-0.1c0,0,0,0,0,0.1s0.1,0.2,0.2,0.1c0,0,0.1,0,0,0c-0.1,0.1-0.3,0.2-0.2,0.3
				c0,0,0,0,0.1,0c0,0.1,0,0.2,0.1,0.2c0,0,0-0.1,0.1-0.2h0.1c0.1,0,0.1-0.2,0.2-0.2l0,0c-0.1,0.1-0.1,0.2,0,0.3c0,0,0,0,0.1,0
				c0,0.1,0.1,0.1,0.2,0.1c0,0-0.1,0-0.1-0.1l0.1-0.1c0.1-0.2-0.1-0.2-0.1-0.3s0.2,0,0.3-0.2c0,0,0-0.1-0.1-0.1l0,0l0,0
				c0.1,0,0.1,0,0.2-0.1c-0.2,0-0.1-0.1-0.1-0.2l0,0c0.1,0,0.1-0.1,0.1-0.2c-0.1,0.1-0.3,0.2-0.2,0c0,0,0-0.1-0.1-0.1
				c-0.3,0-0.6,0-1.1-0.1l0,0c0.5,0,1.5-0.1,1.5-0.4s-0.1-0.4-0.9-0.4c-0.9,0-2.8,0.3-2.8-0.2C88.8,58.3,89.2,58.4,89.6,58.4"/>
		</g>
	</g>
	<g>
		<g>
			<path class="st0" d="M86.1,63.1C86.1,63,86.2,63,86.1,63.1c0.2-0.1,0.2-0.1,0.2-0.2s0-0.1-0.1-0.1c0.1,0,0.1,0,0.1-0.1h-0.1v-0.1
				c0,0,0,0,0.1,0l0.3,0.1c0,0,0,0,0,0.1v0.1c0,0,0-0.1-0.1-0.1c0,0,0,0,0,0.1c-0.1,0-0.1,0-0.2,0c0,0.1,0,0.1,0,0.1v0.1
				C86.3,63.2,86.2,63.2,86.1,63.1C86.1,63.2,86.1,63.1,86.1,63.1 M86.4,62.4c0,0.1-0.1,0.1-0.2,0.1c-0.1-0.1,0-0.1-0.1-0.2
				C86.2,62.3,86.4,62.4,86.4,62.4 M86.6,62.5c0,0,0.2,0.1,0.3,0.1c-0.1,0-0.1,0.1-0.2,0.1C86.6,62.7,86.6,62.6,86.6,62.5
				 M88.7,62.4c0,0.1,0.1,0.1,0.2,0.2c1.1,0.3,2.4-0.5,3.1-0.3c-0.9-0.3-1.4,0.2-2.3,0c0.5,0,1-0.1,1.1-0.2
				c-0.4,0.2-1.5-0.2-1.9,0.1l-0.1,0.1c-0.3,0.1-0.6,0.3-0.6,0.5c0,0.7,2.9,0.2,2.9,0.4s-0.6,0.4-1.3,0.4c-0.6,0-1.6-0.4-2.8-0.1
				l0,0c0.1-0.2,0.3-0.5,0.2-0.7c0.1,0,0.2-0.1,0.2-0.2c-0.1-0.1-0.1-0.1-0.2-0.1c0-0.1,0-0.1-0.1-0.1c0,0,0-0.1-0.1-0.1
				c0,0-0.1-0.1-0.2-0.2S86.6,62,86.5,62h-0.1c-0.1,0-0.1,0-0.1,0.1c-0.1,0-0.1-0.1-0.2-0.1c-0.1,0.1-0.1,0.2,0,0.3
				c-0.1,0-0.2,0.3-0.3,0.2c0,0.1,0.1,0.1,0.1,0.1c-0.1,0.2-0.1,0.3-0.2,0.3c0,0.1,0.1,0.1,0.1,0.1c-0.1,0.2-0.1,0.5,0,0.7
				c-0.2-0.2-0.4-0.6-0.6-0.7S85,62.8,85,62.7s0.1-0.3,0.1-0.4v-0.1c0-0.1-0.1-0.2-0.2-0.1l0.1,0.1l-0.1,0.1v0.1l0,0c0,0,0,0,0,0.1
				l0,0c0-0.1-0.1-0.2-0.2-0.3h-0.1l0,0c0-0.1-0.1-0.2-0.2-0.1h0.1v0.1c0,0.1,0.1,0.1,0.2,0.1l0,0l0,0l0,0c-0.2-0.1-0.3,0-0.3,0.1
				v0.1c-0.1,0-0.1,0.1,0,0.2v-0.1l0,0h0.1c0,0,0,0,0.1,0l0,0c0,0,0,0,0.1,0l0,0c-0.1,0.1-0.1,0.3,0.1,0.3l0,0c0,0.2-0.3,0.2-0.3,0
				c-0.2,0.3,0.1,0.5,0.4,0.3l0,0c0,0,0,0.1,0.1,0.1v-0.1l0,0c0,0.1,0,0.1,0.1,0.2v-0.1c0.1,0,0,0.4,0.3,0.5
				c0.1,0.2,0.2,0.3,0.4,0.3c0.1,0.1,0.1,0.3,0.1,0.3c-0.1,0-0.4,0-0.6,0c-0.1,0.1-0.2,0.1-0.4,0.1l0,0l0,0c-0.1,0-0.2,0-0.3-0.1
				c0-0.1,0-0.1-0.1-0.2c0-0.1-0.1-0.1-0.1-0.1h-0.1c-0.1-0.1-0.2-0.1-0.3,0c0.1,0,0.1,0,0.1,0.1v0.1c0,0,0,0.1,0.2,0.2l0,0h-0.1
				c-0.1-0.1-0.1-0.2-0.2-0.1c0,0,0,0-0.1,0l0,0c-0.1,0-0.3,0.1-0.2,0.3l0.1-0.1v0.1c0,0.1,0.1,0.2,0.3,0l0,0
				C84,64.8,83.9,64.9,84,65l0,0l0,0c0,0.1,0.1,0.2,0.2,0.2c0,0-0.1-0.1-0.1-0.2h0.1c0.1,0,0.1-0.2,0.1-0.2l0,0c0,0.1,0,0.2,0.2,0.2
				c0.1,0,0.2-0.1,0.2-0.2l0,0c0.1,0,0.1,0.1,0.1,0.2l0.1-0.1c0,0.1,0,0.2-0.1,0.2c0.1,0,0.2-0.1,0.2-0.2l0.1,0.1l0,0
				c0.1,0,0.1,0,0.3,0l0,0c0,0.1,0,0.1,0,0.2c0,0,0-0.1,0.1-0.1c0,0,0,0.1,0.1,0.2c0-0.4,0.2-0.2,0.5-0.4l0,0L86,65
				c0.1,0,0.3-0.1,0.3-0.3c0-0.1,0.2-0.2,0.2-0.6h0.1c0.3,0,0.4-0.2,0.7-0.3c-0.1,0.1-0.1,0.3-0.1,0.4c0,0.2,0.2,0.4,0.3,0.4l0,0
				c-0.1,0-0.2,0-0.2,0.1c-0.2,0.2-0.3-0.4-0.5-0.3c0,0-0.1,0-0.1,0.1c-0.1,0-0.2,0.1-0.2,0.2c0,0,0.1-0.1,0.2-0.1l0,0
				c0,0.1,0,0.1,0.1,0.1s0.1,0,0.1,0l0,0c0,0.1-0.3-0.1-0.3,0.2V65c0,0.1,0.1,0.2,0.2,0.1L86.7,65h0.1c0,0,0,0,0-0.1l0,0l0,0
				c0,0,0,0,0,0.1v0.1c0,0.1,0.1,0.2,0.3,0.1c0,0-0.1,0-0.1-0.1h0.1V65l0,0h0.1l0,0c0,0.1,0.1,0.1,0.2,0.1c0.2-0.1,0-0.2,0.2-0.2
				h0.1c0.1,0,0.2,0.1,0.3,0c0-0.1,0-0.3-0.1-0.4c-0.1,0,0.1-0.6-0.3-0.8c0.2,0,0.8,0.1,0.9,0c0.2,0,0.4,0.2,0.4,0.2V64
				c-0.2,0.1-0.1,0.2-0.2,0.2l0,0c-0.1,0-0.1-0.1-0.2-0.2c-0.1,0-0.1,0-0.1,0c-0.1,0-0.2,0-0.3,0.1c0.1,0,0.1,0,0.2,0l0,0v0.1l0,0
				l0,0c-0.1,0-0.3,0-0.2,0.1c0,0,0,0,0,0.1c-0.1,0-0.1,0.2,0,0.2c0,0,0-0.1,0.1-0.1v0.1c0.1,0.1,0.2-0.1,0.3-0.1l0,0
				c-0.1,0.1-0.2,0.1-0.2,0.2c0,0,0,0,0,0.1s0,0.2,0.1,0.2v-0.1h0.1c0.2-0.1,0.1-0.2,0.1-0.3c0.1-0.1,0.2,0.1,0.3,0
				c0,0,0.1-0.1,0-0.1l0,0c0,0,0.1,0.1,0.2,0.1c-0.1-0.1,0-0.1,0.1-0.2l0,0c0.1,0,0.1,0,0.2-0.1c-0.1,0-0.3-0.1-0.2-0.2
				c0.2-0.1,0.2-0.2,0.1-0.3c-0.1-0.2-0.5-0.2-0.5-0.4h0.3c1,0,1.6-0.3,1.6-0.6c0-0.6-2.9,0.1-2.9-0.4
				C88.3,62.6,88.5,62.5,88.7,62.4"/>
		</g>
	</g>
	<g>
		<g>
			<path class="st0" d="M41.8,11.9c0-0.4-0.3-0.7-0.7-0.7s-0.7,0.3-0.7,0.7s0.3,0.7,0.7,0.7C41.5,12.6,41.8,12.3,41.8,11.9"/>
		</g>
	</g>
	<g>
		<g>
			<path class="st0" d="M41.5,10c0-0.4-0.3-0.7-0.7-0.7s-0.7,0.3-0.7,0.7s0.3,0.7,0.7,0.7S41.5,10.4,41.5,10"/>
		</g>
	</g>
	<g>
		<g>
			<path class="st0" d="M41.9,9.2c0.4,0,0.7-0.3,0.7-0.7s-0.3-0.7-0.7-0.7s-0.7,0.3-0.7,0.7S41.6,9.2,41.9,9.2"/>
		</g>
	</g>
	<g>
		<g>
			<path class="st0" d="M43.8,9.1c0.4,0,0.7-0.3,0.7-0.7s-0.3-0.7-0.7-0.7S43.1,8,43.1,8.4S43.4,9.1,43.8,9.1"/>
		</g>
	</g>
	<g>
		<g>
			<path class="st0" d="M51.8,7.8c0.3,0.3,0.7,0.3,1,0s0.3-0.7,0-1s-0.7-0.3-1,0S51.5,7.5,51.8,7.8"/>
		</g>
	</g>
	<g>
		<g>
			<path class="st0" d="M51.6,6.3c0.3-0.3,0.3-0.7,0-1s-0.7-0.3-1,0s-0.3,0.7,0,1C50.9,6.6,51.4,6.6,51.6,6.3"/>
		</g>
	</g>
	<g>
		<g>
			<path class="st0" d="M49.8,6c0.3-0.3,0.3-0.7,0-1s-0.7-0.3-1,0s-0.3,0.7,0,1C49,6.3,49.5,6.3,49.8,6"/>
		</g>
	</g>
	<g>
		<g>
			<path class="st0" d="M48.2,7.2c0.3-0.3,0.3-0.7,0-1s-0.7-0.3-1,0s-0.3,0.7,0,1C47.5,7.4,47.9,7.4,48.2,7.2"/>
		</g>
	</g>
	<g>
		<g>
			<path class="st0" d="M43.7,6.2l0.6,1.2L45,6.5h0.1c0.1,0.4,0.1,1.1,0.1,1.5c0,0.5,0.4,0.9,0.9,0.9S47,8.5,47,8
				c0-0.3-0.2-0.6-0.5-0.8c-0.4-0.3-0.7-0.6-1-0.9V6.2l1.2,0.1L46.2,5l-0.9,0.8c0,0,0,0-0.1,0l-0.1-1.3L44,5l0.8,1v0.1L43.7,6.2z"/>
		</g>
	</g>
	<g>
		<g>
			<path class="st0" d="M51.8,8.4c0.3,0.4,0.4,0.6,0.4,1c-0.2-0.1-0.5-0.3-0.7-0.7l0.1,1.6c0.2-0.3,0.4-0.5,0.6-0.6
				c-0.1,1.1-0.5,1.5-0.8,1.6c-0.4,0.1-0.8-0.2-0.8-0.5c-0.1-0.5,0.3-0.8,0.7-0.4c0.1-1-0.7-1-1.1-0.6c0.4-0.9,0.2-1.6-0.6-2.1
				c-0.5,0.9-0.3,1.5,0.4,2.1c-0.6-0.3-1.2,0.2-0.7,0.9c0.1-0.6,0.7-0.5,0.8,0c0.1,0.4-0.3,1-1,1.2c-1,0.3-1.3-0.3-1.6-0.9
				c0.2-0.1,0.7-0.1,1.3,0.3l-0.5-1.6c-0.2,0.6-0.6,0.8-1,1c0-0.5,0.3-1.4,0.3-1.4l-1.9,0.8c0,0,0.9,0.4,1.2,0.8
				c-0.4,0.2-0.8,0.2-1.4,0l0.8,1.5c0.1-0.7,0.5-1.1,0.7-1.1c0.2,0.6,0.4,1.3-0.5,1.7c-0.7,0.3-1.3,0.2-1.6-0.2
				c-0.3-0.5,0-0.9,0.6-0.6c-0.1-0.9-0.9-0.9-1.1-0.2c0-0.9-0.2-1.5-1.2-1.8c-0.2,1,0.1,1.5,1,1.9c-0.5-0.1-1.1,0.5-0.4,1.1
				c0-0.6,0.5-0.7,0.8-0.3c0.2,0.3,0.2,0.7-0.2,1c-0.3,0.2-0.9,0.2-1.7-0.5c0.2-0.1,0.5-0.1,0.8,0l-1-1.3c0.1,0.5,0,0.8-0.1,1
				c-0.2-0.2-0.3-0.5-0.4-1L41.3,13c0.7,0.5,1.6,1.2,2.6,2.6c1.1-0.7,3.1-1.6,4.3-2.1s3.3-1.2,4.6-1.5c-0.3-1.8-0.1-2.9,0.1-3.7
				L51.8,8.4z"/>
		</g>
	</g>
	<g>
		<g>
			<path class="st0" d="M54.1,17.7c-1,0.8-2.3,0.1-2.9-0.9c1.4-0.6,2.9-1.2,4-1.8C54.2,16.4,54.8,17.1,54.1,17.7 M53.8,27.9
				c-1.3,0.6-2.2-0.6-2.5-1.3c-0.2-0.8-0.5-1.4-0.1-1.7c0.5-0.5,0.7-0.9,0.4-1.6c-0.4-0.8-1.2-0.4-2.1-0.2c0.4-0.7,0.4-1.3-0.1-1.2
				c-0.7,0.1-0.7,1.2-1.1,1c-0.4-0.1-0.2-0.8-0.2-1.1c0-0.5,0.3-0.6,0.8-0.8l3.7-1.4c0.5-0.2,0.8-0.3,1.1,0.1
				c0.2,0.2,0.8,0.5,0.6,0.9s-0.9-0.4-1.5,0c-0.5,0.3-0.1,0.7,0.8,0.9c-0.8,0.5-1.6,0.8-1.4,1.6c0.2,0.7,0.6,0.9,1.4,0.9
				c0.4,0,0.7,0.6,1.1,1.3C55.1,26,55.2,27.3,53.8,27.9 M46.9,20.5c-1,0.1-0.9-0.9-2.7-1.3c1.2-0.2,2.8-0.9,4.1-1.4
				C48.6,19,48.1,20.4,46.9,20.5 M67.2,53.1c0.3-0.7-1.1-1.6-1.3-2.7c-0.2-1.1,0-2.1-1.3-3.5c-1.2-1.4-5.4-5.9-6.7-7.3
				c0.3,0,1.1-0.2,1.9,0.5c0.5,0.4,1.4,1.3,2.2,2.1c1.1-2.8,2.5-5,4.5-7.2c0.2-0.3,0.5-0.6,0.8-0.8c-0.7,0.2-1.8,0.4-2.5,0.8
				c0-1.2,0-2.2-0.8-3c0.3-1.7,0-3.8-3.8-6.4c2,0.5,3.1,2.3,4.7,0.9c-1.4,0-1.4-3-6.3-5.5c1.9,0,3.3,3,5.5,1.3c-2-0.2-2.7-3.9-6.4-5
				c1.3,0.2,2.6,0.8,3.7-0.7c-1.3,0.3-2-0.9-3.4-1c0.5-1.6,0.4-2.6-0.2-3.8c-1,0.1-2,0.4-2.7,0.9c-0.1-0.9-1-0.9-1.8-0.9
				c0,0.4,0.2,0.9-0.2,1c-0.7,0.1-2.8,0.7-4.5,1.4s-3.6,1.9-4.2,2.2c-0.4,0.2-0.6-0.3-0.8-0.6c-0.6,0.5-1.2,1.2-0.8,1.8
				c-0.9,0.1-2,0.3-2.9,1c0,1.1,0.9,2.2,2.3,2.8c-2.3,2.3-0.2,4.3-2.2,6.3c2.8,0.1,2.3-3.8,3.7-4.4c-0.1,2.8-1.7,3.2-1.7,6.2
				c0,1.6,0.9,3.3,0.1,4.4c2.4-0.6,1.7-5.9,3.2-7.4c0.3,0.9,0.1,1.8-0.2,2.6c-0.8,2.4,0.1,5.8-1.2,6.8c2.4-0.2,2.7-4.1,4.7-5.5
				c-1.7,3.5-3.4,10.9-6,14.6c-4.1,5.5-6.5,12.3-10.3,12.3c-1.7,0-2.9-1-2.9-3.1c0-6.3,10.8-10.6,10.8-17.3c0-3-2.4-4.1-3.9-4.1
				c-1,0-2.3,0.5-3.3,1.4c-0.4-0.2-0.9-0.3-1.3-0.3c-3.8,0-2.8,6.9-6.1,6.8c1.3,0.7,3.6-0.7,4.9-2.6c-0.6,4.4-7,3.3-6.5,8.6
				c0.9-4.2,11.1-3.6,11.1-9.9c0-0.7-0.4-1.3-0.9-1.8c0.8-0.5,1.5-0.7,2.2-0.7c1.2,0,2.3,0.9,2.3,2.7c0,5.6-10.7,10.4-10.7,17.2
				c0,1.2,0.3,2.1,0.9,2.9c-0.7,0.3-1.5,0.2-2.2-0.6c-0.1,1.8,2.5,2.9,4.1,2c0.4,0.1,0.7,0.2,1.1,0.2c-0.5,1.3-2.1,1.7-3,1.6
				c2.6,2.1,7.2-0.6,7-3c2.1-1.7,3.4-4.6,4.9-6.5c-0.1,0.4-0.2,0.9-0.2,1.3c-1.5,2.8-3,5.3-3.4,9c-0.3,3.1-1.9,5.9-4.1,5.9
				c-0.5,0-1.3-0.6-1.6-0.3c-0.7,0.6,0,1.2,0,1.8c0,0.9-1.7,1.7-1.7,4.5c0,1.2,0.7,2.7,0.4,3.5c0.7-0.4,1.6-1.5,2-3
				c0.7,3.6-1.5,3.4,0.1,6.6c0.2-1.1,1.3-1.5,1.9-1.1c0.7,0.4,0.3,0.7-0.1,1.2c-0.5,0.5-0.9,2.9,1.3,2.7C35,82.6,35,82,36,81.8
				c1.5-0.3,1.9,0.4,3.5,0.4c1,0,1.3-1.3,2-1.3c0.8,0,0.8,0.6,0.5,1.1c1.3-0.3,1.5-1,1.5-1.7s-0.6-1.2-0.1-1.4
				c0.4-0.3,1.9,0,1.3,1.2c0.7-0.1,1.1-0.7,1.1-1.6s-1-1.4-2-1.3c-0.2-0.6-1-0.9-1.8-0.9c-1.8,0-1.5,1.4-2.7,1.4
				c-1.9,0-3.8-2.5-3.8-6.7c0-2.3,2.4-2.8,4.2-3.6c1.7-0.7,4.8-2.6,6.6-5.7c1.4-2.4,1.5-5,1.3-8.1c2.4,1.4,2.7,3.4,2.7,4.9
				c0,1.9-1,2.7-1.8,3c-0.7,0.3-0.9,0.2-0.9,0.6c-0.1,0.5,0.2,0.8,0.5,0.9c0.9,0.4,0.7,1.3,0.9,2.2c0.2,0.9,1.1,2.4,2.4,3.4
				c0.1-0.6,0.1-1.5,0-2.6c1.9,0.9,0.4,4.7,4,4.7c-0.7-0.4-0.5-1.4-0.1-1.5c0.4-0.2,0.9,0.2,1.6,1.2c0.7,1,0.5,0.9,2.2,0.9
				s0.9-0.6,1.9-0.6c0.9,0,0.8,1.1,0.3,1.8c1.5-0.5,2-1.6,1.5-2.8c1.4-0.7,2.1,0.3,2.3,1c1.3-1.3,0-2.9-1-3.1c0-0.5-0.4-1-1-1
				s-1.1-0.1-1.7,0c-0.6,0-1,0.9-1.7,0.9c-2.3,0-6.8-4.1-6.8-5.9s4.3-2.9,4.3-5.6c0-3.6-3.5-4.8-6.5-7.2c1.1-1.2,4.2-1.5,5.9-0.6
				c0.2-1,0.8-0.8,1.1-2.5c0.6,1.5,0,2.8,0.6,3.5c0.5-0.7,1.8-0.6,1.7-2.5c0.4,1.2-0.5,3,0.4,3.8c0.2-1,0.7-1.2,1.1-1.2
				c0.4,0,0.7,0.3,0.7,0.8c0,1.4-1.8,0.8-1.8,2.4c0,0.7,0.9,0.9,0.9,1.4c0,0.4-0.7,1.1-1.6,0.6c0.3,0.6,0.9,1.2,1.6,1.2
				c0.8,0,1.6-0.6,2-1.4c0.4,1,0.1,2.2-0.6,2.3c0.8,0.4,2.7,0,2.4-2.4c1.1,0.2,1.6,0.9,1,2.2c0.9-0.2,1.7-0.6,1.7-1.6
				C67.7,54.2,66.9,54,67.2,53.1"/>
		</g>
	</g>
	<g>
		<g>
			<path class="st0" d="M136.7,70.4c0-1.3,1-2.3,2.3-2.3c1.2,0,2.2,1,2.2,2.3c0,1.2-1,2.3-2.2,2.3C137.8,72.7,136.7,71.6,136.7,70.4
				 M136,70.4c0,1.7,1.4,3,3,3c1.7,0,3-1.4,3-3c0-1.7-1.4-3-3-3C137.3,67.4,136,68.7,136,70.4"/>
		</g>
	</g>
	<g>
		<g>
			<path class="st0" d="M126,75.9c-0.9-0.2-1.5-0.8-1.4-1.4c0.1-0.3,0.3-0.5,0.4-0.6c0.4-0.2,0.8-0.3,1.3-0.2
				c0.8,0.1,1.4,0.7,1.4,1.3v0.1C127.7,75.7,126.9,76.1,126,75.9 M124.7,73.2c-0.4,0.3-0.7,0.7-0.7,1.1c-0.1,0.5,0.1,1.1,0.5,1.5
				s0.9,0.7,1.5,0.8c0.6,0.1,1.2,0,1.7-0.2c0.5-0.3,0.9-0.7,1-1.3c0.2-1.1-0.7-2.1-2-2.3C125.9,72.7,125.2,72.8,124.7,73.2"/>
		</g>
	</g>
	<g>
		<g>
			<path class="st0" d="M107.8,32.4c0-0.4,0.2-0.8,0.6-1.2c0.3-0.3,0.8-0.4,1.1-0.3c0.2,0,0.4,0.1,0.6,0.3c0.2,0.2,0.2,0.5,0.1,0.6
				c0,0.4-0.3,0.8-0.6,1c-0.6,0.5-1.4,0.5-1.7,0C107.8,32.8,107.8,32.6,107.8,32.4 M108,30.7c-0.9,0.7-1.2,2-0.6,2.7l0,0
				c0.6,0.8,1.9,0.8,2.8,0.1c0.5-0.4,0.8-1,0.9-1.5c0.1-0.4-0.1-0.9-0.3-1.2c-0.2-0.3-0.6-0.5-1.1-0.6
				C109.1,30.1,108.5,30.3,108,30.7"/>
		</g>
	</g>
	<g>
		<g>
			<path class="st0" d="M122.3,71.6L122.3,71.6c-0.3,0-0.5-0.2-0.7-0.3c-0.3-0.3-0.5-0.8-0.5-1.3s0.2-1,0.5-1.3
				c0.1-0.2,0.4-0.3,0.7-0.3c0.6,0,1.2,0.7,1.1,1.6c0,0.5-0.2,1-0.5,1.3C122.8,71.5,122.6,71.6,122.3,71.6 M121.1,68.2
				c-0.5,0.4-0.7,1.1-0.7,1.8v0.1c0,0.7,0.2,1.3,0.7,1.8c0.3,0.4,0.8,0.6,1.2,0.6c0.5,0,0.9-0.2,1.3-0.5c0.5-0.4,0.7-1.1,0.7-1.8
				c0-0.6-0.2-1.2-0.5-1.6c-0.4-0.5-0.8-0.7-1.4-0.8C121.9,67.6,121.4,67.8,121.1,68.2"/>
		</g>
	</g>
	<g>
		<g>
			<path class="st0" d="M106.9,46.6c-0.8-0.4-1.2-1.2-0.9-1.7c0.1-0.3,0.4-0.4,0.6-0.5c0.4-0.1,0.9-0.1,1.4,0.1s0.8,0.6,0.9,1
				c0.1,0.2,0.1,0.5,0,0.8s-0.4,0.4-0.6,0.5C107.8,46.9,107.3,46.9,106.9,46.6 M106.3,43.7c-0.5,0.2-0.8,0.5-1,0.9
				c-0.5,1,0.1,2.2,1.3,2.8c0.7,0.3,1.4,0.4,2,0.2c0.5-0.2,0.8-0.5,1-0.9s0.2-0.9,0-1.3c-0.2-0.6-0.7-1.1-1.3-1.4
				C107.6,43.5,106.9,43.5,106.3,43.7"/>
		</g>
	</g>
	<g>
		<g>
			<path class="st0" d="M128.2,57.5c-0.5,0.7-1.3,1-1.9,0.6s-0.6-1.3-0.1-2s1.3-1,1.9-0.6C128.7,55.9,128.7,56.8,128.2,57.5
				 M124.7,63.1c-0.5,0.7-1.3,0.9-1.9,0.6c-0.6-0.4-0.6-1.3-0.1-2s1.3-1,1.9-0.6C125.1,61.5,125.2,62.4,124.7,63.1 M112.4,32.2
				c0.4-1.3,1.2-3.9,1.2-3.9l1.4,0.5c-0.4,0.2-0.9,0.5-1.3,0.9c0.3,0.1,0.9,0.2,1.2-0.1l-0.6,1.4c-0.1-0.2-0.5-0.7-0.9-0.8
				c-0.3,1.1,0.4,1.5,0.9,1.8c0.8,0.4,1.4,0.5,1.6,0.1c0.3-0.5-0.3-1.1-1-0.8c-0.1-0.7,0.3-1.1,0.8-1.1c0.4,0,0.7,0.3,0.8,0.8
				c0-1.2,0.5-2.1,1.6-2.4c0.4,1.1,0.1,1.9-0.8,2.7c0.5-0.2,1-0.2,1.2,0.1c0.3,0.4,0.2,1-0.5,1.3c-0.1-0.7-1-0.8-1.3-0.3
				s0.1,0.9,0.9,1.4c0.9,0.5,1.6,0.2,2.1-0.6c-0.3-0.1-0.8,0-1.3,0.3l0.9-1.7c0,0.3,0.2,0.7,0.6,1c0.1-0.4,0.3-1.1,0-1.7l2,1.1
				c-0.7,0.1-1.1,0.6-1.4,0.9c0.5,0.2,0.9,0.1,1.2,0l-1,1.7c0-0.6-0.2-1-0.4-1.2c-0.4,0.8-0.3,1.6,0.5,2.1s1.3,0.6,1.6,0.1
				c0.3-0.5-0.2-1.2-0.9-0.9c0-0.7,0.4-1.1,0.9-1.1c0.4,0,0.7,0.5,0.7,0.9c0.3-1.1,0.8-1.8,2-2c0.3,1.1-0.3,2-1.3,2.6
				c0.5-0.1,0.9-0.1,1.1,0.3s0.1,1-0.6,1.2c-0.1-0.8-1-0.9-1.2-0.4c-0.2,0.4,0.1,0.8,0.9,1.3c0.5,0.3,1.2,0.7,2-0.1
				c-0.3-0.3-0.9-0.4-1.1-0.4l0.9-1.2c0,0.5,0.3,0.9,0.5,1.1c0.1-0.6,0.2-1.2,0.2-1.6l1.2,0.9c0,0-1.9,2-2.8,3L112.4,32.2z
				 M127.3,49.1c0-0.2,0.1-0.5,0.3-0.7c0.2-0.2,0.5-0.3,0.7-0.2c0.4,0,0.9,0.2,1.2,0.6s0.5,0.8,0.5,1.3c0,0.2-0.1,0.5-0.3,0.7l0,0
				c-0.2,0.2-0.5,0.2-0.7,0.2c-0.4,0-0.9-0.2-1.2-0.6C127.4,50,127.2,49.5,127.3,49.1 M132.7,74.1c0.1-0.4,0.4-0.8,0.8-1.1
				c0.4-0.3,0.9-0.4,1.3-0.3c0.2,0.1,0.5,0.2,0.6,0.4c0.2,0.3,0.2,0.5,0.1,0.7c-0.1,0.4-0.4,0.8-0.8,1.1c-0.7,0.5-1.6,0.4-2-0.1
				C132.6,74.5,132.6,74.2,132.7,74.1 M106.8,36.4c0,0.4-0.2,0.8-0.5,1.1c-0.1,0.1-0.3,0.2-0.6,0.2c-0.5,0-0.9-0.6-0.9-1.3v-0.1
				c0-0.4,0.2-0.8,0.5-1.1c0.1-0.1,0.3-0.2,0.6-0.2c0.3,0,0.4,0.2,0.6,0.3C106.7,35.6,106.9,36,106.8,36.4 M114.8,20
				c0.4-0.8,0-2,1.5-2c0.7,0,1.4,0.7,2.3,1C117.1,19.1,115.9,19.4,114.8,20 M138.1,40.6c1,2.7,2.9,3.7,4.5,3
				c-3.3-0.4-0.6-6.1-4.9-6.1c-0.2,0-0.5,0-0.7,0.1c-0.7-0.8-1.6-1.1-2.8-1.1c-1.8,0-5,1.8-5,5.4c0,7.8,9.1,8.5,9.1,15.4
				c0,2-1.5,3.3-3.2,3.3c-1.5,0-2.8-1.7-4-4.4c-0.6-1.3-1.9-3-3.3-4.8c0.4,0.3,0.9,0.5,1.3,0.5c0.5,0,0.9-0.2,1.3-0.5
				c0.3-0.3,0.5-0.7,0.5-1.2V50c0-0.6-0.3-1.3-0.7-1.8c-0.5-0.5-1.1-0.8-1.8-0.8c-0.5,0-0.9,0.1-1.3,0.5c-0.3,0.3-0.5,0.7-0.5,1.2
				v0.1c0,0.3,0.1,0.5,0.1,0.8c-2-2.6-3.8-5.1-3.8-6.4c0-1.2,0.8-2.3,1.9-3.6l0.4,0.2l0.3-0.3c0.4-0.4,1.1-1.2,2.7-2.9l0.1-0.1l0,0
				l0.4-0.4l-1-0.8c0.3-0.6,0.5-1.2,0.6-1.9c0.3,1.2,1,2.1,1.8,1.8c-0.6-1.3,0.6-3-0.2-6.2c0.7,1.2,1.8,1.9,2.6,1.7
				c-2-1.8,0.6-4.3-2-8.1c0.9,0.3,1.4,0.1,1.8-0.3c-2.4-0.3-1.3-3.4-5.5-4.5c1-0.2,1.7-0.8,1.5-1.3c-1.1,0.8-2.1-1.5-5.7-1.4
				c-0.2-1.4-1.5-2.8-2.9-3.5c0.3,1.1,0,2-0.3,2.8L107.5,3c-0.4-0.3-0.5-0.4-0.6-0.3c-0.1,0.1-0.1,0.3,0.1,0.6L117.1,16
				c-0.8,0.3-1.5,0.6-2.3,0.9c-0.5,0.2-0.9,0.7-0.9,1.3c-1.9,0.9-3.5,2.1-4.4,2.9c-0.6,0.6-1.1,0.7-0.6,2c0.2,0.5-0.4,1.7,1,0.8
				c1-0.6,3.2-1.8,3.5-1c0.2,0.4-0.9,0.9-1.7,1.2c-0.7,0.3-1.5,0.9-1.4,1.2c0.1,0.3,0.7,0,0.7,0.3c0.1,0.3,0.3,0.6,0.6,0.6
				c0.3,0,0.7-0.6,0.9-0.4c0.3,0.2-0.1,1.6-0.3,1.9c1.2-0.1,1.9-1.2,1.9-2.1s0.3-1.1,0.4-1.2c0.2-0.1,0.4,0.9,0.1,1.5
				c0.6-0.1,1.2-0.9,1.2-2.4c0.3-0.2,0.6-0.4,0.8-0.4c0.4,0,1.2,1.1,2.2,1.1c2,0,3.1-1.6,3.3-2.4c0.1-0.6,0-1.2-0.3-1.7
				c0.7,0.6,1,1.5,1,2.2c0,2.9-5,4.2-7.1,6.2c-0.1,0.1-0.2,0.1-0.2,0.2l-2.4-0.9l-0.2,0.5c0,0,0,0.1-0.2,0.4
				c-0.2,0.8-0.8,2.5-1.1,3.5l-0.1,0.4l0.2,0.1c-1.4,1.9-2.5,4-2.8,6.1c-0.6-0.6-1.1-1.1-1.7-1.6c0.1-0.2,0.1-0.4,0.1-0.7
				c0-0.6-0.2-1.3-0.5-1.7c-0.3-0.3-0.7-0.5-1.1-0.6c-0.4,0-0.8,0.1-1.2,0.4c-0.1,0.1-0.1,0.1-0.2,0.2c-0.1-0.1-0.2-0.1-0.3-0.2
				c-0.8-0.6-1.7-1.3-2.3-2c-0.3-0.3-0.5-0.4-1-0.4c-0.2,0-0.7,0-1.1,0s-0.6,0.3-0.9,0.6c-0.2,0.2-0.7,0.6-1.4,1.1
				c0.3,0.3,0.6,0.6,0.9,0.9c0.1,0.2,0.3,0.4,0.4,0.5c0.2-0.1,0.3-0.2,0.4-0.3c0.2-0.2,0.6-0.3,0.9-0.3s0.7,0.2,1,0.7
				c0.2,0.3,2.1,2.8,3.7,4.6c-0.2,0.1-0.3,0.1-0.5,0.2c-0.7,0.3-2.2,0.2-2.9,0.2c-0.7-0.1-0.8-0.2-1.3,0.5c-0.2,0.3-0.4,0.6-0.6,0.9
				s-0.4,0.6,0.1,1.4c0.7,1.2,2.4,4.3,3,5.7s1.2,1.6,2.4,2.1c1.1,0.5,3,1.5,3.2,1.8l0.1-1.1c-0.3-0.3-1.4-0.7-1.8-0.9
				c-0.4-0.1-0.5-0.3,0-0.3s1.8,0.5,2.7,0.8c-0.3-1.1-1.3-2.2-1.9-2.9c-0.8-0.2-1.6-0.2-1.9,0c0,0.2-0.1,0.5-0.4,0.5
				s-0.5-0.3-0.4-0.6s0.6-0.4,0.5-1s-0.9-0.7-1.3-0.8c-0.7-1-1.5-2.4-1.8-3s-0.1-0.9,0.1-1.1c0.6-0.5,1.8,0.3,4.2,0.4
				c0.8,0,1.9,0.1,3,0.1c0.3,2.8,1.4,5.5,5.3,6.4c1.9,0.5,3.9,1.9,4.5,3.7c-7.8-0.1-9,2.9-9,5.8c0,3.2,2.7,3.1,2.7,5.5
				c0,2.1-6.5,3-8.5,3.3c-1.7,0.2-2.6,0.6-3.4,1.4s-1.6,1.6-3.1,3c0,0,0.6,0.1,1.2,0.1l1.1-1.4c0.3-0.5,0.6-0.9,0.8-0.8
				c0.2,0,0.1,0.4-0.2,0.9l-0.9,1.5c3.8,0.3,4.1-1.2,4.1-1.8c0-0.6-1-1-0.4-1.3c0.5-0.4,1-0.1,1.5,0.4c0.4,0.5,0.6,0.9,1.6,0.5
				c0,0,8.4-3.5,9.4-3.9s0.7-0.8,0.1-1.3s-0.7-1.4-0.7-2.2c0-2.5,1.5-3.3,4.2-3.3c0,0.4-0.1,0.8-0.1,1.2c0,3.9,6,7.8,7.6,7.8
				c0.7,0,1.7-0.5,1.7,1.8c0,1.7,0.4,3,0.1,5c-0.3,2-0.9,2.3-2.1,3.2c-1.2,0.8-2.4,3.5-2.9,4.1c0.5,0.4,1.1,0.4,1.6-0.9
				c0.4-1.1,0.8-1.8,1.3-2.1c-0.5,1.2-0.8,2.9-1,3.4c1.5,0.3,4-1.1,4-2.2s-0.9-1-0.9-1.7c0-0.3,0.4-0.7,0.9-0.7
				c0.6,0,1.1,0.5,1.1,0.7c0.7-0.4,1.1-1,1.1-2.6c0-0.6,0-1.3-0.1-1.9c0,0.1,0.1,0.2,0.1,0.2c0.3,0.5,0.8,0.7,1.4,0.8
				c0.6,0,1.2-0.1,1.7-0.5c0.6-0.4,1-1,1.1-1.6c0-0.1,0-0.3,0-0.4c0-0.3-0.1-0.7-0.3-0.9c-0.2-0.4-0.6-0.6-1.1-0.7
				c-0.6-0.1-1.3,0-1.9,0.4c-0.6,0.4-0.9,0.9-1.1,1.5c-0.1-2.1-0.3-4.2-0.2-5c0.1-1.2,0.1-1.7-0.3-1.9c-0.4-0.2-0.8,0.5-1.4,0.5
				c-0.6,0-2.3-1.6-2.3-3.3s1.8-3.9,1.8-6.3c0-0.7,0.4-1.1,0.7-0.4c0.4,0.8,0.9,1.9,1.7,2.8c-0.5,2.9,2.7,5.8,5.4,3.7
				c-1.3,0.2-2.2-1-2.8-2.1c0.2,0,0.5,0.1,0.7,0.1c0.1,0,0.3,0,0.4,0c0.9,1.2,3.9,1.1,4.7-1.8c-0.5,0.6-1.6,1.1-2.4,1
				c1.1-0.9,1.7-2.3,1.7-3.8c0-7.4-9-8.3-9-15.1c0-2.5,2.2-4.1,3.7-4.1c0.6,0,1,0.2,1.4,0.5c-0.6,0.6-0.9,1.5-0.8,2.6
				c0.2,5.4,9,5.1,9.1,7.7C144.9,44.6,138.4,45.8,138.1,40.6"/>
		</g>
	</g>
</g>
<g>
	<path d="M49.4,158.5c-2.2,0.9-4.5,1.3-6.8,1.3c-2.9,0-5.5-0.5-7.7-1.6c-2.3-1.1-4.2-2.5-5.8-4.3c-1.6-1.8-2.8-3.9-3.6-6.2
		c-0.8-2.3-1.2-4.8-1.2-7.3c0-2.8,0.4-5.5,1.2-8c0.8-2.5,1.9-4.8,3.5-6.7c1.5-1.9,3.4-3.4,5.7-4.6c2.3-1.1,5-1.7,8-1.7
		c2.1,0,4.1,0.2,5.9,0.7c1.9,0.5,3.5,1.3,5,2.3s2.7,2.4,3.7,4s1.7,3.5,2,5.8h-5.1c-0.3-1.5-0.7-2.7-1.4-3.8s-1.5-1.9-2.5-2.6
		s-2.2-1.2-3.4-1.5s-2.6-0.5-4.1-0.5c-2.3,0-4.3,0.5-6,1.4s-3,2.2-4.1,3.7c-1.1,1.5-1.8,3.3-2.3,5.2c-0.5,2-0.8,4-0.8,6
		s0.3,4,0.9,5.8c0.6,1.9,1.4,3.5,2.5,4.9c1.1,1.4,2.5,2.6,4.1,3.4c1.6,0.8,3.5,1.3,5.7,1.3c2,0,3.8-0.3,5.3-1
		c1.5-0.6,2.9-1.5,3.9-2.7c1.1-1.1,1.9-2.5,2.4-4s0.8-3.2,0.7-4.9H42.7v-4.3h16.9V159h-3.2l-1.4-4.8
		C53.5,156.2,51.7,157.7,49.4,158.5z"/>
	<path d="M65.4,139.3c0.6-1.8,1.4-3.3,2.6-4.6s2.6-2.3,4.3-3.1c1.7-0.8,3.6-1.1,5.8-1.1c2.2,0,4.2,0.4,5.9,1.1
		c1.7,0.8,3.1,1.8,4.2,3.1c1.2,1.3,2,2.9,2.6,4.6c0.6,1.8,0.9,3.7,0.9,5.8s-0.3,4-0.9,5.7c-0.6,1.8-1.4,3.3-2.6,4.6
		s-2.6,2.3-4.2,3.1s-3.6,1.1-5.9,1.1c-2.2,0-4.1-0.4-5.8-1.1c-1.7-0.7-3.1-1.8-4.3-3.1c-1.2-1.3-2-2.9-2.6-4.6
		c-0.6-1.8-0.9-3.7-0.9-5.7C64.6,143,64.8,141.1,65.4,139.3z M70.1,149.6c0.4,1.3,1.1,2.4,1.9,3.3c0.8,0.9,1.7,1.6,2.8,2
		c1.1,0.5,2.2,0.7,3.4,0.7s2.3-0.2,3.4-0.7s2-1.1,2.8-2s1.4-2,1.9-3.3c0.4-1.3,0.7-2.8,0.7-4.5s-0.2-3.2-0.7-4.5s-1.1-2.4-1.9-3.3
		c-0.8-0.9-1.7-1.6-2.8-2.1c-1.1-0.5-2.2-0.7-3.4-0.7s-2.3,0.2-3.4,0.7s-2,1.2-2.8,2.1c-0.8,0.9-1.4,2-1.9,3.3s-0.7,2.8-0.7,4.5
		S69.6,148.3,70.1,149.6z"/>
	<path d="M102.9,159l-10.4-27.9h5.1l7.8,23.3h0.1l7.6-23.3h4.8L107.8,159H102.9z"/>
	<path d="M140.1,157.2c-2.1,1.6-4.7,2.4-7.9,2.4c-2.2,0-4.2-0.4-5.8-1.1s-3-1.7-4.1-3s-2-2.8-2.5-4.6c-0.6-1.8-0.9-3.8-0.9-5.9
		c0-2.1,0.3-4.1,1-5.8c0.6-1.8,1.6-3.3,2.7-4.6c1.2-1.3,2.6-2.3,4.2-3c1.6-0.7,3.4-1.1,5.3-1.1c2.5,0,4.5,0.5,6.2,1.5
		c1.6,1,3,2.3,3.9,3.9c1,1.6,1.7,3.3,2.1,5.2s0.5,3.7,0.5,5.3h-20.9c0,1.2,0.1,2.4,0.4,3.5s0.8,2.1,1.6,2.9c0.7,0.8,1.6,1.5,2.8,2
		c1.1,0.5,2.4,0.8,3.9,0.8c1.9,0,3.5-0.4,4.8-1.3c1.2-0.9,2.1-2.3,2.5-4.1h4.5C143.5,153.3,142.2,155.6,140.1,157.2z M139,139.3
		c-0.4-1-1-1.8-1.7-2.5s-1.5-1.3-2.5-1.7s-2-0.6-3.2-0.6s-2.3,0.2-3.2,0.6c-1,0.4-1.8,1-2.5,1.7s-1.2,1.6-1.6,2.5
		c-0.4,1-0.6,2-0.7,3.1h16C139.6,141.3,139.4,140.3,139,139.3z"/>
	<path d="M153.2,131.1v5.9h0.1c1.1-2.3,2.5-3.9,4.1-5s3.7-1.6,6.2-1.5v4.9c-1.8,0-3.4,0.3-4.7,0.8s-2.3,1.2-3.1,2.2
		s-1.4,2.2-1.7,3.5c-0.4,1.4-0.5,3-0.5,4.8V159H149v-27.9H153.2z"/>
	<path d="M170.9,131.1v4.4h0.1c1.9-3.4,4.9-5.1,9.1-5.1c1.8,0,3.4,0.3,4.6,0.8c1.2,0.5,2.2,1.2,3,2.1c0.8,0.9,1.3,2,1.6,3.2
		s0.5,2.6,0.5,4.1V159h-4.6v-18.9c0-1.7-0.5-3.1-1.5-4.1s-2.4-1.5-4.2-1.5c-1.4,0-2.6,0.2-3.6,0.6c-1,0.4-1.9,1-2.6,1.8
		c-0.7,0.8-1.2,1.7-1.5,2.8s-0.5,2.2-0.5,3.5V159h-4.6v-27.9H170.9z"/>
	<path d="M200.1,131.1v4.1h0.1c2.1-3.2,5.1-4.8,9-4.8c1.7,0,3.3,0.4,4.7,1.1c1.4,0.7,2.4,1.9,3,3.7c0.9-1.5,2.2-2.7,3.7-3.5
		s3.2-1.2,5-1.2c1.4,0,2.7,0.2,3.8,0.5s2.1,0.8,2.9,1.4c0.8,0.6,1.4,1.5,1.9,2.5c0.4,1,0.7,2.3,0.7,3.7V159h-4.6v-18.3
		c0-0.9-0.1-1.7-0.2-2.4c-0.1-0.8-0.4-1.4-0.8-2c-0.4-0.6-0.9-1-1.6-1.3c-0.7-0.3-1.6-0.5-2.7-0.5c-2.3,0-4.1,0.6-5.3,1.9
		s-1.9,3-1.9,5.2V159h-4.6v-18.3c0-0.9-0.1-1.7-0.2-2.5c-0.2-0.8-0.4-1.4-0.8-2c-0.4-0.6-0.9-1-1.6-1.3c-0.7-0.3-1.5-0.5-2.6-0.5
		c-1.3,0-2.5,0.3-3.4,0.8c-1,0.5-1.7,1.2-2.3,1.9c-0.6,0.8-1,1.5-1.3,2.3s-0.4,1.5-0.4,2V159H196v-27.9H200.1z"/>
	<path d="M260.9,157.2c-2.1,1.6-4.7,2.4-7.9,2.4c-2.2,0-4.2-0.4-5.8-1.1c-1.6-0.7-3-1.7-4.1-3s-2-2.8-2.5-4.6
		c-0.6-1.8-0.9-3.8-0.9-5.9c0-2.1,0.3-4.1,1-5.8c0.6-1.8,1.6-3.3,2.7-4.6s2.6-2.3,4.2-3c1.6-0.7,3.4-1.1,5.3-1.1
		c2.5,0,4.5,0.5,6.2,1.5c1.6,1,3,2.3,3.9,3.9c1,1.6,1.7,3.3,2.1,5.2s0.5,3.7,0.5,5.3h-20.9c0,1.2,0.1,2.4,0.4,3.5
		c0.3,1.1,0.8,2.1,1.6,2.9c0.7,0.8,1.6,1.5,2.8,2c1.1,0.5,2.4,0.8,3.9,0.8c1.9,0,3.5-0.4,4.8-1.3c1.2-0.9,2.1-2.3,2.5-4.1h4.5
		C264.3,153.3,263,155.6,260.9,157.2z M259.8,139.3c-0.4-1-1-1.8-1.7-2.5s-1.5-1.3-2.5-1.7s-2-0.6-3.2-0.6s-2.3,0.2-3.2,0.6
		c-1,0.4-1.8,1-2.5,1.7s-1.2,1.6-1.6,2.5c-0.4,1-0.6,2-0.7,3.1h16C260.4,141.3,260.2,140.3,259.8,139.3z"/>
	<path d="M274.1,131.1v4.4h0.1c1.9-3.4,4.9-5.1,9.1-5.1c1.8,0,3.4,0.3,4.6,0.8s2.2,1.2,3,2.1c0.8,0.9,1.3,2,1.6,3.2
		c0.3,1.2,0.5,2.6,0.5,4.1V159h-4.6v-18.9c0-1.7-0.5-3.1-1.5-4.1s-2.4-1.5-4.2-1.5c-1.4,0-2.6,0.2-3.6,0.6c-1,0.4-1.9,1-2.6,1.8
		s-1.2,1.7-1.5,2.8s-0.5,2.2-0.5,3.5V159h-4.6v-27.9H274.1z"/>
	<path d="M310.7,131.1v4h-5.6v17.3c0,0.5,0,1,0.1,1.3s0.3,0.6,0.5,0.8c0.3,0.2,0.6,0.3,1.1,0.4c0.4,0.1,1,0.1,1.8,0.1h2.1v4h-3.5
		c-1.2,0-2.2-0.1-3.1-0.2c-0.8-0.2-1.5-0.5-2.1-0.9c-0.5-0.4-0.9-1-1.2-1.8c-0.3-0.8-0.4-1.8-0.4-3.1v-17.8h-4.8v-4h4.8v-8.4h4.6
		v8.4h5.7V131.1z"/>
</g>
<g>
	<path d="M39.4,180.4c5.9,0,10.5,1.5,13.7,4.5s4.8,7.6,4.8,13.8c0,3.2-0.4,6.1-1.1,8.6c-0.7,2.5-1.8,4.6-3.3,6.3s-3.4,3-5.8,3.9
		c-2.3,0.9-5.1,1.3-8.3,1.3H26.2v-38.6h13.2V180.4z M39.9,214.7c0.6,0,1.3,0,2.2-0.1s1.8-0.3,2.8-0.6s1.9-0.8,2.9-1.5
		c1-0.6,1.8-1.5,2.6-2.6s1.4-2.5,1.9-4.2s0.7-3.7,0.7-6.1c0-2.3-0.2-4.4-0.7-6.2s-1.2-3.4-2.2-4.6c-1-1.3-2.3-2.2-4-2.9
		c-1.6-0.7-3.6-1-6-1h-8.6v29.9L39.9,214.7L39.9,214.7z"/>
	<path d="M63.4,186.1v-5.6H68v5.6H63.4z M68,191.1V219h-4.6v-27.9H68z"/>
	<path d="M95.4,226.9c-2.1,2.3-5.4,3.4-9.8,3.4c-1.3,0-2.6-0.1-4-0.4c-1.3-0.3-2.6-0.8-3.7-1.4s-2-1.5-2.7-2.5s-1.1-2.3-1.2-3.8h4.6
		c0,0.8,0.3,1.5,0.8,2.1s1.1,1,1.8,1.4c0.7,0.4,1.5,0.6,2.3,0.8s1.6,0.2,2.4,0.2c1.5,0,2.8-0.3,3.8-0.8s1.9-1.2,2.6-2.2
		c0.7-0.9,1.2-2,1.5-3.3s0.5-2.7,0.5-4.3v-1.8h-0.1c-0.8,1.7-2,3-3.6,3.8s-3.3,1.2-5.1,1.2c-2.1,0-3.9-0.4-5.5-1.1
		c-1.5-0.8-2.8-1.8-3.9-3.1c-1-1.3-1.8-2.8-2.3-4.5s-0.8-3.5-0.8-5.4c0-1.7,0.2-3.4,0.6-5.1c0.4-1.7,1.2-3.3,2.2-4.8
		c1-1.4,2.3-2.6,4-3.5s3.7-1.4,6.1-1.4c1.8,0,3.4,0.4,4.9,1.2s2.6,1.9,3.5,3.5h0.1v-4h4.3v25.5C98.5,221.2,97.5,224.6,95.4,226.9z
		 M89.5,214.3c1.1-0.6,1.9-1.5,2.6-2.5c0.6-1,1.1-2.2,1.4-3.5s0.5-2.6,0.5-3.9c0-1.2-0.1-2.4-0.4-3.6c-0.3-1.2-0.7-2.3-1.4-3.2
		c-0.6-1-1.4-1.7-2.5-2.3c-1-0.6-2.2-0.9-3.7-0.9s-2.7,0.3-3.8,0.8c-1,0.6-1.9,1.3-2.6,2.2s-1.2,2-1.5,3.2s-0.5,2.5-0.5,3.8
		s0.1,2.5,0.4,3.8s0.7,2.4,1.3,3.4c0.6,1,1.4,1.9,2.4,2.5s2.3,0.9,3.8,0.9S88.5,215,89.5,214.3z"/>
	<path d="M104.8,186.1v-5.6h4.6v5.6H104.8z M109.4,191.1V219h-4.6v-27.9H109.4z"/>
	<path d="M127.6,191.1v4H122v17.3c0,0.5,0,1,0.1,1.3s0.3,0.6,0.5,0.8c0.3,0.2,0.6,0.3,1.1,0.4c0.4,0.1,1,0.1,1.8,0.1h2.1v4h-3.5
		c-1.2,0-2.2-0.1-3.1-0.2c-0.8-0.2-1.5-0.5-2.1-0.9c-0.5-0.4-0.9-1-1.2-1.8c-0.3-0.8-0.4-1.8-0.4-3.1v-17.8h-4.8v-4h4.8v-8.4h4.6
		v8.4L127.6,191.1L127.6,191.1z"/>
	<path d="M156.8,218.9c-0.8,0.5-1.9,0.7-3.3,0.7c-1.2,0-2.1-0.3-2.8-1s-1.1-1.8-1.1-3.3c-1.3,1.5-2.7,2.6-4.4,3.3s-3.5,1-5.4,1
		c-1.3,0-2.5-0.1-3.6-0.4s-2.1-0.7-2.9-1.4c-0.8-0.6-1.5-1.4-2-2.4s-0.7-2.2-0.7-3.6c0-1.6,0.3-2.9,0.8-3.9s1.3-1.8,2.1-2.5
		c0.9-0.6,1.9-1.1,3-1.4c1.1-0.3,2.3-0.6,3.5-0.8c1.3-0.3,2.5-0.4,3.6-0.6c1.1-0.1,2.1-0.3,3-0.5s1.5-0.6,2.1-1
		c0.5-0.4,0.8-1.1,0.8-2c0-1-0.2-1.8-0.6-2.4s-0.9-1.1-1.5-1.4c-0.6-0.3-1.3-0.5-2-0.6s-1.5-0.2-2.2-0.2c-1.9,0-3.6,0.4-4.9,1.1
		c-1.3,0.7-2,2.1-2.1,4.2h-4.6c0.1-1.7,0.4-3.2,1.1-4.4c0.6-1.2,1.5-2.2,2.6-2.9s2.3-1.3,3.7-1.6s2.9-0.5,4.5-0.5
		c1.3,0,2.5,0.1,3.8,0.3s2.4,0.5,3.4,1.1s1.8,1.3,2.4,2.3c0.6,1,0.9,2.3,0.9,3.9v14.3c0,1.1,0.1,1.9,0.2,2.4
		c0.1,0.5,0.5,0.8,1.3,0.8c0.4,0,0.9-0.1,1.4-0.2v3.6L156.8,218.9L156.8,218.9z M149.4,204.6c-0.6,0.4-1.3,0.7-2.3,0.9
		c-0.9,0.2-1.9,0.4-2.9,0.5s-2.1,0.3-3.1,0.4c-1,0.2-2,0.4-2.8,0.8c-0.8,0.4-1.5,0.9-2,1.5c-0.5,0.7-0.8,1.6-0.8,2.7
		c0,0.8,0.2,1.4,0.5,1.9s0.7,0.9,1.2,1.3c0.5,0.3,1.1,0.6,1.7,0.7c0.6,0.1,1.3,0.2,2.1,0.2c1.5,0,2.8-0.2,3.9-0.6
		c1.1-0.4,2-0.9,2.6-1.6c0.7-0.6,1.2-1.3,1.5-2s0.5-1.4,0.5-2.1L149.4,204.6L149.4,204.6z"/>
	<path d="M165.4,180.4V219h-4.6v-38.6H165.4z"/>
	<path d="M207.6,185.7c-1.7-1.2-3.9-1.9-6.6-1.9c-1.1,0-2.1,0.1-3.2,0.3c-1,0.2-2,0.6-2.8,1.1s-1.5,1.2-1.9,2s-0.7,1.9-0.7,3.2
		c0,1.2,0.4,2.2,1.1,2.9c0.7,0.7,1.6,1.3,2.8,1.8s2.5,0.9,4,1.2s3,0.6,4.5,1s3,0.8,4.5,1.3s2.8,1.1,4,2c1.2,0.8,2.1,1.9,2.8,3.1
		c0.7,1.3,1.1,2.8,1.1,4.8c0,2.1-0.5,3.8-1.4,5.3s-2.1,2.6-3.5,3.6c-1.4,0.9-3.1,1.6-4.8,2c-1.8,0.4-3.6,0.6-5.3,0.6
		c-2.2,0-4.2-0.3-6.1-0.8c-1.9-0.5-3.6-1.4-5.1-2.5s-2.6-2.5-3.5-4.2c-0.8-1.7-1.3-3.7-1.3-6.1h4.9c0,1.6,0.3,3,0.9,4.2
		c0.6,1.2,1.5,2.1,2.5,2.9s2.2,1.3,3.6,1.7c1.4,0.4,2.8,0.5,4.2,0.5c1.2,0,2.3-0.1,3.5-0.3s2.2-0.6,3.2-1.1c0.9-0.5,1.7-1.2,2.3-2.1
		c0.6-0.9,0.9-2.1,0.9-3.5c0-1.3-0.4-2.4-1.1-3.2c-0.7-0.8-1.6-1.5-2.8-2s-2.5-0.9-4-1.3c-1.5-0.3-3-0.7-4.5-1s-3-0.7-4.5-1.2
		s-2.8-1-4-1.8c-1.2-0.7-2.1-1.7-2.8-2.9s-1.1-2.6-1.1-4.4c0-1.9,0.4-3.6,1.2-5s1.8-2.6,3.2-3.5c1.3-0.9,2.8-1.6,4.5-2.1
		s3.4-0.7,5.2-0.7c2,0,3.8,0.2,5.5,0.7s3.2,1.2,4.5,2.2s2.3,2.3,3,3.8s1.1,3.4,1.2,5.5h-4.9C210.3,189,209.3,186.9,207.6,185.7z"/>
	<path d="M241.7,217.2c-2.1,1.6-4.7,2.4-7.9,2.4c-2.2,0-4.2-0.4-5.8-1.1s-3-1.7-4.1-3s-2-2.8-2.5-4.6c-0.6-1.8-0.9-3.8-0.9-5.9
		c0-2.1,0.3-4.1,1-5.8c0.6-1.8,1.6-3.3,2.7-4.6c1.2-1.3,2.6-2.3,4.2-3c1.6-0.7,3.4-1.1,5.3-1.1c2.5,0,4.5,0.5,6.2,1.5
		c1.6,1,3,2.3,3.9,3.9c1,1.6,1.7,3.3,2.1,5.2s0.5,3.7,0.5,5.3h-20.9c0,1.2,0.1,2.4,0.4,3.5c0.3,1.1,0.8,2.1,1.6,2.9
		c0.7,0.8,1.6,1.5,2.8,2c1.1,0.5,2.4,0.8,3.9,0.8c1.9,0,3.5-0.4,4.8-1.3c1.2-0.9,2.1-2.3,2.5-4.1h4.5
		C245.1,213.3,243.8,215.6,241.7,217.2z M240.6,199.3c-0.4-1-1-1.8-1.7-2.5s-1.5-1.3-2.5-1.7s-2-0.6-3.2-0.6s-2.3,0.2-3.2,0.6
		c-1,0.4-1.8,1-2.5,1.7s-1.2,1.6-1.6,2.5c-0.4,1-0.6,2-0.7,3.1h16C241.2,201.3,241,200.3,240.6,199.3z"/>
	<path d="M254.7,191.1v5.9h0.1c1.1-2.3,2.5-3.9,4.1-5s3.7-1.6,6.2-1.5v4.9c-1.8,0-3.4,0.3-4.7,0.8c-1.3,0.5-2.3,1.2-3.1,2.2
		c-0.8,1-1.4,2.2-1.7,3.5c-0.4,1.4-0.5,3-0.5,4.8V219h-4.6v-27.9H254.7z"/>
	<path d="M277.2,219l-10.4-27.9h5.1l7.8,23.3h0.1l7.6-23.3h4.8L282.1,219H277.2z"/>
	<path d="M295.8,186.1v-5.6h4.6v5.6H295.8z M300.4,191.1V219h-4.6v-27.9H300.4z"/>
	<path d="M323.6,195.9c-1.2-1-2.7-1.5-4.6-1.5c-1.7,0-3,0.3-4.2,0.9c-1.1,0.6-2,1.4-2.7,2.4s-1.1,2.2-1.4,3.5s-0.4,2.7-0.4,4.1
		c0,1.3,0.2,2.6,0.5,3.8s0.8,2.3,1.4,3.3s1.5,1.7,2.5,2.3s2.3,0.9,3.7,0.9c2.3,0,4-0.6,5.3-1.8s2.1-2.9,2.3-5h4.7
		c-0.5,3.5-1.8,6.1-3.9,8s-4.9,2.8-8.5,2.8c-2.1,0-4-0.3-5.6-1s-3-1.7-4.1-2.9c-1.1-1.3-1.9-2.8-2.5-4.5s-0.8-3.7-0.8-5.8
		s0.3-4,0.8-5.9c0.5-1.8,1.4-3.4,2.5-4.8c1.1-1.4,2.5-2.4,4.1-3.2c1.7-0.8,3.6-1.2,5.8-1.2c1.6,0,3.1,0.2,4.5,0.6
		c1.4,0.4,2.6,1,3.7,1.8s1.9,1.8,2.6,3s1.1,2.6,1.3,4.3h-4.8C325.5,198.3,324.8,196.9,323.6,195.9z"/>
	<path d="M355.1,217.2c-2.1,1.6-4.7,2.4-7.9,2.4c-2.2,0-4.2-0.4-5.8-1.1c-1.6-0.7-3-1.7-4.1-3s-2-2.8-2.5-4.6
		c-0.6-1.8-0.9-3.8-0.9-5.9c0-2.1,0.3-4.1,1-5.8c0.6-1.8,1.6-3.3,2.7-4.6s2.6-2.3,4.2-3s3.4-1.1,5.3-1.1c2.5,0,4.5,0.5,6.2,1.5
		c1.6,1,3,2.3,3.9,3.9c1,1.6,1.7,3.3,2.1,5.2s0.5,3.7,0.5,5.3h-20.9c0,1.2,0.1,2.4,0.4,3.5s0.8,2.1,1.6,2.9c0.7,0.8,1.6,1.5,2.8,2
		c1.1,0.5,2.4,0.8,3.9,0.8c1.9,0,3.5-0.4,4.8-1.3c1.2-0.9,2.1-2.3,2.5-4.1h4.5C358.6,213.3,357.2,215.6,355.1,217.2z M354,199.3
		c-0.4-1-1-1.8-1.7-2.5s-1.5-1.3-2.5-1.7s-2-0.6-3.2-0.6s-2.3,0.2-3.2,0.6c-1,0.4-1.8,1-2.5,1.7s-1.2,1.6-1.6,2.5
		c-0.4,1-0.6,2-0.7,3.1h16C354.7,201.3,354.4,200.3,354,199.3z"/>
</g>
<g>
	<g>
		<g>
			<rect class="st1" width="4" height="220"/>
		</g>
	</g>
</g>
</svg>
