<?xml version="1.0" encoding="utf-8"?>
<!-- Generator: Adobe Illustrator 24.3.0, SVG Export Plug-In . SVG Version: 6.00 Build 0)  -->
<svg version="1.1" id="Layer_1" xmlns="http://www.w3.org/2000/svg" xmlns:xlink="http://www.w3.org/1999/xlink" x="0px" y="0px"
	 viewBox="0 0 457.7 122.1" style="enable-background:new 0 0 457.7 122.1;" xml:space="preserve">
<style type="text/css">
	.st0{fill:#45152C;}
	.st1{fill:#EDEAE1;}
	.st2{fill:#EF4A7F;}
	.st3{fill-rule:evenodd;clip-rule:evenodd;fill:#EF4A7F;}
</style>
<rect y="0" class="st0" width="457.7" height="122.1"/>
<g>
	<path class="st1" d="M62.9,60.7c0-4.6-2.8-7.7-7.2-7.7s-7.4,3.1-7.4,7.7v17.2c0,0.9-0.9,1.6-1.8,1.6H37c-1,0-1.7-0.8-1.7-1.7V28.2
		c0-1,0.8-1.7,1.7-1.7h9.5c0.9,0,1.8,0.7,1.8,1.6V45c2.3-2.2,5.8-4.1,11.3-4.1c11.8,0,16.4,8.6,16.4,18.8V78c0,0.9-0.9,1.6-1.8,1.6
		h-9.5c-0.9,0-1.8-0.7-1.8-1.6C62.9,78,62.9,60.7,62.9,60.7z"/>
	<path class="st1" d="M137,44.6c2-2.3,5.7-3.7,10-3.7c9.8,0,18.4,7.4,18.4,19.8s-8.6,20-18.5,20c-3.4,0-7.9-0.9-9.9-3.5v0.6
		c0,1-0.8,1.7-1.7,1.7h-9.5c-1,0-1.7-0.8-1.7-1.7V28.2c0-1,0.8-1.7,1.7-1.7h9.5c0.9,0,1.7,0.8,1.7,1.7V44.6z M144.7,68.5
		c4.2,0,7.6-3.5,7.6-7.7s-3.3-7.7-7.6-7.7c-4.2,0-7.6,3.5-7.6,7.7C137.1,65.1,140.5,68.5,144.7,68.5"/>
	<path class="st1" d="M181.7,44.6c2-2.3,5.7-3.7,10-3.7c9.8,0,18.4,7.4,18.4,19.8s-8.6,20-18.5,20c-3.4,0-7.9-0.9-9.9-3.5v0.6
		c0,1-0.8,1.7-1.7,1.7h-9.5c-1,0-1.7-0.8-1.7-1.7V28.2c0-1,0.8-1.7,1.7-1.7h9.5c0.9,0,1.7,0.8,1.7,1.7V44.6z M189.4,68.5
		c4.2,0,7.6-3.5,7.6-7.7s-3.3-7.7-7.6-7.7c-4.2,0-7.6,3.5-7.6,7.7C181.8,65.1,185.1,68.5,189.4,68.5"/>
	<path class="st2" d="M306.7,77.9c0,0.9-0.9,1.6-1.8,1.6h-9.5c-1,0-1.7-0.8-1.7-1.7v-34c0-1,0.8-1.7,1.7-1.7h9
		c0.9,0,1.8,0.7,1.8,1.6v2.1c2.3-3.2,6.4-4.4,9.4-4.4h2.1c0.8,0,2,0.3,2,2.3V53c0,2-1.6,2.3-2.3,2.3h-3.7c-5,0-7,1.3-7,5.6V77.9z"/>
	<path class="st2" d="M351,42h9.5c1,0,1.7,0.8,1.7,1.7v34c0,1-0.8,1.7-1.7,1.7H351c-1,0-1.7-0.8-1.7-1.7v-1.1c-1.6,2.3-5.2,4-9.7,4
		c-9.5,0-18.7-7.6-18.7-20s9.2-19.8,18.8-19.8c4.5,0,8,1.7,9.6,4v-1.1C349.3,42.8,350.1,42,351,42 M341.6,53.1
		c-4.2,0-7.6,3.5-7.6,7.7s3.3,7.7,7.6,7.7c4.2,0,7.6-3.5,7.6-7.7S345.9,53.1,341.6,53.1"/>
	<path class="st2" d="M392.7,25C392.7,24.9,392.6,24.9,392.7,25c-0.1,0-0.1,0-0.1,0c-2.3-0.7-4.7-1.1-6.7-1.1
		c-7.2,0-14.4,4.2-14.4,15.2v3h-4.6c-1,0-1.7,0.8-1.7,1.7v7.7c0,1,0.8,1.8,1.7,1.8h4.6v24.5c0,1,0.8,1.8,1.8,1.8h9.5
		c1,0,1.7-0.8,1.7-1.8V53.2h4.9c1,0,1.8-0.8,1.8-1.8v-7.7c0-1-0.8-1.7-1.8-1.7h-4.9v-2.4c0-3.4,2.3-3.5,3-3.5c0.4,0,0.9,0,1.5,0.2
		c0.1,0,0.1,0.1,0.2,0.1c0,0,0,0,0.1,0c0.9,0.3,1.9-0.2,2.2-1.1l0,0l2.2-8.1l0.1-0.4C393.9,26,393.5,25.2,392.7,25"/>
	<path class="st2" d="M421.3,79.2L421.3,79.2c-0.1,0-0.1,0-0.1,0c-2.3,0.7-4.7,1.1-6.7,1.1c-7.2,0-14.4-4.2-14.4-15.2V53.2h-4.6
		c-1,0-1.7-0.8-1.7-1.7v-7.7c0-1,0.8-1.8,1.7-1.8h4.6v-9.2c0-1,0.8-1.8,1.8-1.8h9.6c1,0,1.7,0.8,1.7,1.8V42h7.1c1,0,1.8,0.8,1.8,1.8
		v7.7c0,1-0.8,1.7-1.8,1.7h-7.1v11.2c0,3.4,2.3,3.5,3,3.5c0.4,0,0.9,0,1.5-0.2c0.1,0,0.1-0.1,0.2-0.1c0,0,0,0,0.1,0
		c0.9-0.3,1.9,0.2,2.2,1.1l2.2,8.2l0.1,0.4C422.5,78.1,422.1,78.9,421.3,79.2"/>
	<path class="st2" d="M289.1,70c-0.1-0.1-0.3-0.2-0.4-0.3l-6.8-4.7l0,0c-0.5-0.3-1-0.4-1.3-0.4c-0.5,0-0.9,0.2-1.3,0.6
		c-0.3,0.3-0.5,0.6-0.7,0.8l0,0c-1.4,1.4-3.1,2.4-5.4,2.4c-4.4,0-7.6-3.4-7.6-7.7c0-4.2,3.3-7.7,7.6-7.7c2.8,0,4.7,1.3,6.2,3.3
		c0.3,0.3,0.8,0.5,1.3,0.5c0.3,0,0.8-0.1,1.3-0.4l6.8-4.8l0,0c0.1-0.1,0.2-0.2,0.4-0.3c0.5-0.4,0.8-0.9,0.8-1.5
		c0-0.4-0.1-0.7-0.4-1.2c-3.3-5-10-7.9-16.7-7.9c-11.7,0-20.5,8.9-20.5,20.1c0,10.8,8.1,19.7,20.1,19.7c6.8,0,13.8-2.9,17.1-8l0,0
		c0.2-0.5,0.4-0.8,0.4-1.2C289.9,70.9,289.6,70.4,289.1,70"/>
	<path class="st1" d="M250.7,42h-10.6c-1,0-1.6,0.9-1.8,1.8l-5.5,20.8l-0.1,0.5c-0.3,0.7-0.6,1.1-1.3,1.1c-0.8,0-1-0.5-1.3-1.1
		l-0.2-0.7l-5.3-20.7c-0.2-0.9-0.8-1.8-1.8-1.8h-11.2c-1.1,0-1.6,0.6-1.6,1.4c0,0.3,0.1,0.8,0.3,1.6l8.6,29.2c0.9,2.6,3.4,5.4,8,5.4
		h2.3l-1.4,4.6c-0.7,2.3-2.9,3-4.3,3c-1.7,0-3.2-0.8-4.3-1.6c-0.8-0.5-1.1-0.8-2-0.8c-0.2,0-1,0.1-1.5,0.8l-4.1,6.1
		c-0.4,0.5-0.6,1.1-0.6,1.6s0.3,1.1,0.8,1.6c0.8,0.8,2,1.6,2.7,2c2.7,1.5,5.8,2.2,8.8,2.2c3.6,0,7.1-1.1,9.7-2.7
		c2.9-1.8,5.2-4.6,6.8-9.9L252,45c0.2-0.8,0.3-1.3,0.3-1.6C252.3,42.6,251.8,42,250.7,42"/>
	<path class="st1" d="M120.6,60.9c0,11-9.2,19.8-20.7,19.8s-20.7-8.8-20.7-19.8c0-11.1,9.2-20,20.7-20S120.6,49.8,120.6,60.9
		 M107.4,60.8c0-4.2-3.3-7.7-7.6-7.7s-7.6,3.5-7.6,7.7s3.3,7.6,7.6,7.6S107.4,65,107.4,60.8"/>
	<path class="st3" d="M449.9,23.2c-1.1-0.1-2.2-1.5-2-2.8c0.2-1.1-0.1-2.4,0.2-3.6c0.2-0.9,0.8-4,0.6-5.1c-0.2-0.4-0.3-0.8-0.5-1.2
		c0-0.5,0-1,0.1-1.4c-1.1-0.5-2.6-0.4-4-0.7c-1-0.2-2-0.4-3-0.6c-1-0.2-1.8,0.1-2.7,0c-2.8-0.4-2.6,2.5-5.2-0.2
		c0-1.2,0.9-1.1,1.7-1.4c0.2-0.1,0.4-0.3,0.7-0.4c0.4,0,0.8,0,1.2,0.1c2.4-0.5,5.1,0,7.3,0.6c0.4,0.1,1.1,0,1.4,0.1
		c1.4,0.3,3.2-0.9,4.2-0.4c0.3,0.2,1.3,1.4,1.3,1.8c0.1,0.6-0.3,1.4,0.1,1.8c-0.2,0.1-0.2,0-0.3,0.2c0,0.8,0.3,1.2,0.4,1.9
		c-0.1,0.3-0.3,0.4-0.4,0.8c0,0.1,0.1,0.2,0.1,0.3h0.3c0,1-0.2,1.7-0.4,2.4c0,0-0.1,0-0.1-0.1c-0.1-0.2,0-0.1-0.2-0.2
		c0,0.1,0,0.1-0.1,0.2c-0.2,0.3,0,0.6,0.1,1c-0.6,0.2-0.1,1.2-0.3,1.8c-0.1,0.4-0.5,2.7-0.4,3c0.2,0.5,0.5,0.8,0.4,1.5
		c-0.3,0-0.4,0-0.6,0.1C449.9,22.8,449.9,23,449.9,23.2"/>
	<path class="st3" d="M84.1,5.6c0.8,0,1.8,0.3,2.1,0.7c0.2,0.3,0.2,0.7,0.2,1.1c-0.3-0.1-0.4,0-0.6,0.2l0,0C85.9,8,86,7.8,85.9,8
		c-0.5-0.5-2.8-0.1-3.9,0.1c-1.3,0.2-3.2-0.1-4.9,0.2c-1.3,0.2-2.7,0.3-4,0.1c-1.6-0.3-3.5,1.1-3.7-1.2c1.1-1.1,2.5-0.7,4.4-0.9
		c2-0.2,5-0.1,7.2-0.4C81.9,5.7,83.2,6,84.1,5.6"/>
	<path class="st3" d="M205.3,5.6c1,0,1.5,0.3,2.1,0.7c0.1,0.4,0.1,0.7,0.1,1.1c-0.3,0-0.4,0.1-0.6,0.3C207,8,207.1,7.8,207,8
		c-0.2-0.2-0.3-0.3-0.6-0.3c-0.3-0.1-2.6,0.4-3.3,0.5c-1.7,0.1-3.4,0.1-5.1,0.2c-1.2,0.2-2.5,0.3-3.7,0.1c-1.5-0.3-3.7,1.1-3.7-1.3
		c1.9-1.5,8.4-0.7,11.6-1.2C203.1,5.7,204.4,6,205.3,5.6"/>
	<path class="st3" d="M357.9,5.6c0.9,0,1.5,0.3,2.1,0.7c0.1,0.4,0.2,0.8,0.3,1.1c-0.2-0.1-0.4,0-0.6,0.1c0,0.1,0,0.2-0.1,0.4
		c-1.2-0.3-3.3,0.3-4.7,0.5c-0.3-0.1-0.7-0.1-1-0.2c-2.3,0.3-5.2,0.6-7.2,0.2c-0.2,0.1-0.4,0.1-0.7,0.2c-1.5,0.3-2.2-0.2-2.9-1
		c0-0.1,0-0.3,0.1-0.4c0.6-1.1,2.8-0.7,4.3-0.8c2-0.1,5-0.1,7.2-0.4C355.7,5.7,357,6,357.9,5.6"/>
	<path class="st3" d="M11,5.8c1.8,0,3.5,0.1,5.3,0.1c1.2,0.3,2.4,0.6,3.6,0.9c0.6,0,1.2,0,1.8-0.1c0.5,0.1,1,0.2,1.4,0.4
		c0.7-0.1,1.5-0.4,2.3-0.2V7c-0.6,3.7-7.4,2-10.6,1.5c-0.7-0.1-1.4,0.2-1.9,0.4c-0.7,0.1-1.3,0-1.8,0.4C11,9.2,11,9.1,10.7,9
		c0,0,0,0-0.1,0.1c0.3,2.8-1.3,6.9-0.7,10.3c0.1,0.6,0.4,1.1,0.5,1.6c0.3,0.9,0.4,3-0.4,3.4c-0.1,0-0.2,0.1-0.4,0.1
		c-0.3-0.1-1.3-0.7-1.5-0.9C8,23.4,8,23.2,7.9,23c-0.2-0.5-0.4-1.1-0.5-1.7c0.1-0.5,0.1-0.9,0.2-1.4c-0.5-3,0.1-6.7,0.6-9
		C8.5,9.7,7.5,7.7,7.9,7C8.6,6.3,10.2,6.1,11,5.8"/>
	<path class="st3" d="M47.6,5.8C48.7,5.9,49.9,5.9,51,6c1.4,0.1,3.5-0.2,4.9,0.3c0.3,0.7,0.3,1.4-0.1,2.1c-0.3-0.1-0.6-0.1-0.9-0.2
		c-0.3,0.1-0.6,0.2-0.9,0.3c-2.1-0.3-4.2-0.4-6.3-0.2c-0.8-0.1-1.7-0.1-2.5-0.2C42.8,8.6,41,8.5,38.7,8c-0.1-0.3-0.2-0.7-0.4-1.1
		c1.6-1.4,4.4-0.6,6.7-1.1C46.1,5.6,46.8,6.3,47.6,5.8"/>
	<path class="st3" d="M168.8,5.8c1.1,0.1,2.3,0.2,3.4,0.3c1.4,0.1,3.5-0.2,4.9,0.3c0.3,0.7,0.3,1.5-0.2,2.1
		c-0.7-0.1-1.1,0.2-1.7,0.1c-2-0.3-4.3-0.6-6.4-0.2c-0.8-0.1-1.7-0.1-2.5-0.2c-2,0.5-4.6,0.5-6.4-0.1c-0.2-0.4-0.3-0.6-0.4-1.2
		c0.8-0.3,1.5-0.6,2.3-0.9c0.6-0.1,0.9,0.1,1.4,0.2c1,0.2,2.2-0.2,2.9-0.3C167.3,5.6,168,6.3,168.8,5.8"/>
	<path class="st3" d="M321.3,5.8c1.6,0,3.5,0.1,4.8,0.3c1.1,0.2,2.5-0.3,3.3,0.3c0.6,0.3,0.7,1.6,0.3,2.1c-0.3,0-0.7-0.3-1.2-0.2
		c-0.2,0.1-0.5,0.3-0.9,0.2c-2.8-0.6-5.2,0-8.1-0.4c-1.1-0.1-2.5,0.8-3.7,0.4c-1.5-0.5-3.6,0.4-3.7-1.7c0.8-0.3,1.5-0.6,2.3-0.9
		c0.5,0,0.9,0.1,1.4,0.2c1,0.2,2.3-0.2,2.9-0.3C319.9,5.6,320.6,6.3,321.3,5.8"/>
	<path class="st3" d="M113.1,5.9c0.9,0,1.9,0,2.8,0.1c0.1,0.3,0.5,0.4,0.7,0.6c0,0.2,0,0.4-0.1,0.6c-0.4,0.4-1.2,0.4-1.5,0.8v0.3
		c-0.5,0-1.5-0.1-1.8,0c-0.1,0.1-0.3,0.2-0.4,0.3c-0.4,0-1.9-0.3-2.3-0.4c-1.1-0.2-2.3,0.2-3.3,0.4c-1.1,0.1-2.6-0.2-3.6-0.3
		c-1.4-0.1-1.9,0.7-3.2,0C100,8,99.7,8.1,99.5,7.7c0-0.2-0.1-0.4-0.1-0.6c0.3-1.4,2.8-1,4.2-1c0.9,0,1.5-0.4,2.3-0.2
		c1.1,0.2,2.9,0.3,4.3,0.1C111.3,5.9,112.3,6.3,113.1,5.9"/>
	<path class="st3" d="M234.3,5.9c0.9,0,2.1-0.1,2.7,0.1c0.2,0.3,0.5,0.4,0.7,0.6c0,1.3-1.1,0.7-1.6,1.4v0.3c-0.4,0-1.6-0.1-1.8,0
		c-0.1,0-0.1,0.3-0.3,0.3c-1,0-2.1-0.6-3.3-0.4c-1.7,0.3-3.7,0.5-5.5,0.2s-2,0.7-3.7-0.1c-0.6-0.3-1-0.3-1.1-1.1
		c0.4-0.6,1.3-1,2.1-1.1c0.5,0.1,1,0.1,1.5,0.2c1,0,2.4-0.3,2.9-0.2c1.1,0.2,2.9,0.3,4.3,0.1C232.5,5.9,233.5,6.3,234.3,5.9"/>
	<path class="st3" d="M386.9,5.9c1,0,1.8,0,2.7,0.1c0.1,0.2,0.5,0.5,0.7,0.6c0,0.4,0,0.5-0.1,0.8c-1.2,0.2-1.9,1.1-3.2,1
		c0,0.1-0.1,0.2-0.1,0.3c-1.4-0.6-3.5-0.4-4.9-0.1c-1,0.2-3.1,0-4.1-0.2c-1.9-0.3-2.2,0.8-4-0.2c-0.5-0.2-0.8-0.4-0.8-1
		c0.7-1.4,2.7-0.9,4.4-0.9c0.8,0,1.4-0.3,2.1-0.2C380.8,6.1,386.1,6.3,386.9,5.9"/>
	<path class="st3" d="M143.5,6c0.9,0,2.1,0,2.8,0.1c0.3,0.2,0.6,0.4,0.8,0.7c-0.2,0.3-0.2,0.5-0.1,0.8c-1.2,0-1.5,0.7-2.1,0.8h-1.5
		c0,0.1-0.1,0.2-0.1,0.3c-0.5-0.1-1-0.2-1.5-0.3c-1.7,0.4-4.6,0.5-6.4,0.2c-1.5-0.3-2.2,0.6-3.4-0.1c-0.6-0.3-1-0.4-1.1-1.2
		c0.1-0.1,0.1-0.3,0.2-0.4c0.6-0.2,1.2-0.5,1.9-0.7c0.8-0.1,0.9,0.5,1.7,0.4c0.9-0.1,1.8-0.2,2.7-0.4c1.2,0.2,2.6,0.2,3.8,0
		C142,6,142.9,6.4,143.5,6"/>
	<path class="st3" d="M264.7,6c0.9,0,2.1,0,2.8,0.1c0.3,0.2,0.4,0.5,0.8,0.6c-0.1,0.3,0,0.8-0.1,0.8c-0.4-0.1-1.3,0.3-1.7,0.5
		c0,0.1,0,0.2,0.1,0.3c-0.6,0-1.2,0-1.8,0.1c-0.2,0.1-0.2,0.3-0.6,0.3c-0.6-0.1-1.1-0.1-1.7-0.2c-1.9,0.3-4.2,0.5-6.2,0.1
		c-0.5-0.1-1.1,0.1-1.5,0.2c-1.5,0.3-2.6-0.3-3-1.3c0.3-0.6,1.5-1.5,2.6-1.2c0.4,0.1,0.6,0.5,1.2,0.4c0.9-0.1,1.8-0.2,2.7-0.4
		c1.1,0.2,2.6,0.3,3.7,0C263.1,6,264,6.4,264.7,6"/>
	<path class="st3" d="M296.1,6c0.9,0,2.1,0,2.8,0.1c0.3,0.2,0.5,0.4,0.8,0.7c-0.1,0.5,0.1,0.6,0.2,0.8c-0.5-0.1-1.5,0.1-1.8,0.5v0.3
		h-1.8c-0.1,0.1-0.1,0.2-0.2,0.3c-2.8-0.6-5.2,0.3-8-0.1C287,8.4,286,9.2,285,8.9c-0.7-0.2-1.2-0.8-1.6-1.3c0.1-0.2,0.2-0.4,0.3-0.6
		c0.6-0.2,1.2-0.5,1.9-0.7c0.6-0.1,0.9,0.3,1.2,0.4c0.2,0.1,1.6,0,2-0.1s0.8-0.2,1.2-0.3c1.2,0.2,2.6,0.2,3.8,0
		C294.6,6,295.5,6.4,296.1,6"/>
	<path class="st3" d="M417.3,6c0.9,0,2.1,0,2.8,0.1c0.4,0.3,1,1.1,0.9,1.4c-0.4-0.2-1.3,0.2-1.8,0.5c0,0.1,0,0.2,0.1,0.3
		c-0.7-0.1-1.5,0.2-1.9,0.3c-0.7-0.1-1.3-0.2-2-0.3c-1.6,0.3-4.4,0.5-6.1,0.2c-0.6-0.1-1.3,0.2-1.8,0.3c-1.4,0.3-2.2-0.5-2.8-1.2
		c0.1-0.2,0.2-0.4,0.3-0.7c0.6-0.2,1.2-0.4,1.8-0.7c0.8-0.2,1,0.5,1.8,0.4c0.9-0.1,1.8-0.2,2.7-0.4c1.1,0.2,2.7,0.3,3.8,0
		C415.7,6,416.6,6.4,417.3,6"/>
	<path class="st3" d="M359.6,7.8c0.1,0,0.2,0.1,0.3,0.1L359.8,8C359.7,7.9,359.7,7.9,359.6,7.8"/>
	<path class="st3" d="M298,8.4h0.1H298z"/>
	<path class="st3" d="M7.7,36.5c0.2,0,0.3,0,0.5,0.1c0.2,0.2,0.4,0.4,0.7,0.7c-0.4,0.8,0.2,2.8,0.3,3.7c0,0.7,0,1.3-0.1,2
		c0.3,1.7,0.6,5.4,0.3,7c-0.3,1.7,0.7,2.6-0.6,3.8c-0.4,0-0.6-0.1-0.9-0.2c-0.2-0.3-0.4-0.9-0.6-1.2v-4.1c-0.3-1.5,0-3.4-0.3-5
		c-0.1-0.6-0.1-1.2-0.2-1.9c0.2-2.3-0.9-2.7,0.4-4.6C7.5,36.6,7.6,36.6,7.7,36.5"/>
	<path class="st3" d="M449.2,36.7c0.4,0,0.6,0,0.9,0.2c0.2,0.5,0.5,1.3,0.9,1.8c-0.4,0.2-0.6,2.1-0.5,2.8c0.1,0.2,0.1,0.3,0.2,0.5
		c-0.2,0.4-0.4,1.4-0.4,2.1c0,0.4,0.2,0.8,0.2,1.3c-0.2,1.4-0.5,3.3-0.4,4.5c0.2,1.3,0,3.6-0.8,4.1c-2.1-0.2-0.9-2.2-1.2-3.8
		c-0.1-0.5-0.2-1.1-0.2-1.8c0-0.5,0.3-0.9,0.3-1.5c0-0.5,0-1.3,0.1-1.8c0-0.3,0-0.7-0.1-1c0.2-1.5,0.1-3.3,0.4-4.6
		c0-0.7,0.1-1.3,0.1-2C448.8,37.2,449,37,449.2,36.7"/>
	<path class="st3" d="M8.1,66.7c1.8,0.1,1.2,2.2,1.2,3.8c0,0.7-0.1,1.5-0.2,2.3c-0.1,0.7,0.1,1.6,0.2,2.3c0,0.7-0.1,1.3-0.2,2
		c-0.1,1.7,0.6,3,0.2,4.6c-0.3,1.1,0.2,2.1-0.6,2.7c-0.2,0.1-0.5,0-0.8-0.1c-0.1-0.7-0.6-1.4-0.8-2.1c-0.3-1.2,0.4-2.5,0.1-3.9
		C7.1,78,6.8,77.5,6.9,77C7,76.6,7,76.2,7.1,75.8c-0.2-1-0.2-2.5,0-3.8c0.2-1.7-0.4-3.8,0.5-5.1C7.8,66.9,7.9,66.8,8.1,66.7"/>
	<path class="st3" d="M448.8,67c2.2,0,1.5,2.7,1.6,4.5c0.2,2.4,0.3,5.5-0.2,7.7c-0.2,1.3,0.3,2.4,0.1,3.4c-0.2,0.7-0.7,1.5-0.8,2.2
		h-0.2c-0.8-0.3-1.2-0.9-1.2-2.1c0-0.3,0-0.6,0.1-0.9c-0.1-0.5-0.4-1.2-0.2-2c0.5-3,0-6.1,0.3-9.2C448.3,69,447.5,68.1,448.8,67"/>
	<path class="st3" d="M433.7,97.1c1.4,0.1,4.8,4.1,5.9,5.1c0.5,0.4,1.2,2,2.2,1.7c1.5-0.7,2.4-2.9,3.7-3.8c0.5-0.3,1-0.5,1.4-0.9
		c0.7-0.7,1.4-2,2.9-1.5c0.1,0.2,0.2,0.5,0.4,0.7c-0.1,0.4-2.1,3.5-2.2,3.6c0-0.1,0-0.2-0.1-0.3h-0.2c-1.1,1.5-2.8,2.6-3.9,4.1
		c0.6,3.4,5.4,5.3,6.7,8.9c-0.1,0-0.1,0.1-0.2,0.1c-0.6,0.4-2-0.8-2.4-1c-1.3-0.8-2.1-2-3.2-2.9c-1-0.8-1.9-1.7-2.8-2.5
		c-0.1,0-0.3,0-0.4,0.1c-0.3,0.3-0.6,0.6-0.9,0.9c-0.8,0.6-1.9,1.3-2.5,2c-1.3,1.8-1.2,2.7-3.7,3.6c-0.5-0.3-0.8-0.8-0.8-1.5
		c1.1-1.8,2.9-3,4.2-4.6c0.6-0.8,1-1.7,1.7-2.5c0-0.3,0-0.7-0.1-1c-0.2-0.2-0.4-0.4-0.7-0.6c-1.5-1.7-3.3-3-4.4-5.1
		c-0.3-0.5-1.4-1.6-1.1-2.3C433.3,97.3,433.5,97.2,433.7,97.1"/>
	<path class="st3" d="M8.1,97.5c3.1,1.3,1.8,7.1,1.3,10.4c-0.2,1.1,0.2,2.9,0.4,3.9c0.7,0.9,2.3,0.6,3.6,0.8
		c1.9,0.3,4.2,0.8,6.5,0.5c1.1-0.2,1.8-0.6,2.8-0.8c0.9-0.1,2.1,0.6,2.4,1.1c0,0.1,0.1,0.2,0.1,0.4c-0.5,0.8-0.8,0.6-1.8,0.9
		c-3.4,1.2-7.5,0.3-10.9-0.3c-1.8-0.3-3.9,1.3-4.8-0.1c-1.1-1.6-0.6-4-0.7-6.2c-0.1-1.6,0.6-3.4,0.9-5v-2c0.1-0.3,0.2-0.6,0.3-0.9
		C8.4,99.4,8,98.4,8,97.5C8,97.5,8,97.5,8.1,97.5"/>
	<path class="st3" d="M52.4,112c1.3,0,2.1,0.3,2.8,1.1c-0.1,0.3-0.1,0.6-0.2,0.8c-0.5,0.2-1.1,0.4-1.6,0.6c-0.9,0.2-2.2-0.7-3.6-0.3
		c-0.3,0.1-0.9,0.3-1.4,0.2c-0.7-0.2-1.8-0.4-2.8-0.2c-1.6,0.3-4.8,0.7-6.3,0.3c-0.1-0.3-0.4-0.4-0.5-0.7c0.7-1.4,2.3-1.3,4-1.6
		c0.5,0,0.9,0.1,1.4,0.1c0.3-0.1,1.7-0.3,1.9-0.3c0.9,0,2.4,0.3,3.3,0.1C50.3,112,51.5,112.6,52.4,112"/>
	<path class="st3" d="M173.7,112c1,0.1,2.4,0.2,2.7,1.1c0.1,0.5-0.1,0.4,0.1,0.8c-0.6,1.1-2.2,0.7-3.2,0.5c-0.5,0-1,0.1-1.5,0.1
		c-0.5-0.1-0.7,0.2-1,0.2c-1.6-0.3-3.6-0.4-5.3-0.1c-0.5,0-1-0.1-1.4-0.1c-0.6,0.1-0.8,0.2-1.4,0.1c-1.1-0.2-1.8,0.3-2.6-0.1
		c0.2-0.3,0.1-0.3-0.1-0.7c1.4-1.4,2-1.1,4-1.5c0.5,0,0.9,0.1,1.4,0.1c0.7-0.1,1.4-0.2,2.2-0.3c0.9,0.1,2.1,0.2,2.9,0.1
		C171.5,111.9,172.7,112.6,173.7,112"/>
	<path class="st3" d="M327.6,112c1.4,0.1,2.1,0.3,2.7,1.2c-0.1,0.2-0.1,0.3-0.2,0.5c0.1,0.1,0.2,0.1,0.3,0.2c0,0.1-0.1,0.2-0.1,0.3
		c-0.5,0.2-1.1,0.4-1.6,0.6c-0.6,0.1-1.1-0.3-1.5-0.4h-2c-0.1,0.1-0.2,0.2-0.3,0.3c-0.2,0-0.2-0.1-0.4-0.2c-0.8-0.2-3-0.2-3.8-0.2
		c-1.7,0.1-5.5,0.7-6.8,0.1c0.1-0.3,0-0.3-0.1-0.6c0.2-0.2,0.3-0.4,0.5-0.7c1-0.7,2.2-0.5,3.5-0.8c0.5,0,1,0.1,1.4,0.1
		c0.7-0.1,1.4-0.2,2.2-0.3c0.9,0.1,2.1,0.2,2.9,0.1C325.5,111.9,326.6,112.6,327.6,112"/>
	<path class="st3" d="M111.9,112.2c0.3,0.1,0.7,0.1,1,0.2c1.5,0.3,2.9-0.7,3.6,0.6c0.1,0.2,0.1,0.7,0,0.9c-0.5,1-1.6,0.1-2.3,0.4
		c-0.2,0.1-0.3,0.3-0.6,0.3c-0.4-0.1-0.7-0.1-1.1-0.2c-1.1,0.1-2.8,0.1-4,0.4c-0.6-0.1-1.2-0.1-1.9-0.2c-0.8,0.1-1.7,0.3-2.4,0.2
		c-1.1-0.2-2.3,0.5-3.2,0.4c-0.4-0.1-0.9-0.5-1.5-0.6c0-0.6,0-0.9,0.2-1.3c2.3-1,5.8-0.4,8.3-0.9
		C109.4,112.2,110.7,112.7,111.9,112.2"/>
	<path class="st3" d="M233.1,112.2c0.3,0.1,0.6,0.1,0.9,0.2c1.9,0.4,2.1-0.8,3.7,0.6c0.2,0.9-0.5,1.7-1.4,1.5
		c-1.5-0.3-4.8-0.1-6.7,0.2c-0.6,0-1.2-0.1-1.8-0.1c-0.6,0.1-1.6,0.3-2.2,0.2c-1.7-0.3-2.4,0.6-4-0.1c-0.3-0.1-0.6-0.1-0.7-0.2
		c-0.2-0.3-0.1-0.7-0.1-1.1c2.5-1.1,5.7-0.5,8.4-1C230.5,112.2,231.8,112.7,233.1,112.2"/>
	<path class="st3" d="M387,112.2c0.3,0.1,0.6,0.1,0.9,0.2c1.5,0.3,3-0.7,3.7,0.7c0.2,0.3,0.1,0.7-0.1,1c-1.2,0.5-2.7,0.2-4.2,0.4
		c-0.4,0-0.8-0.1-1.2-0.1c-1.4,0.4-3,0-4.6,0.3c-0.7,0.1-1.4,0.2-2.1,0.2c-1.7-0.3-3.8,1-4.8-0.4c-0.1-0.2-0.1-0.5-0.2-0.7
		c0.5-1,1.4-0.6,2.7-0.8c2.2-0.4,5-0.3,7.2-0.5C385.4,112.4,386.3,112.5,387,112.2"/>
	<path class="st3" d="M83.9,112.3c1.7,0,3.1,0.4,2.8,2.1c-0.5,0.2-1.5,0.7-2.1,0.6s-2.5-0.6-3.3-0.3c-0.9,0.3-1.9-0.3-3.2-0.1
		c-1.5,0.2-3,0-4.5,0c-0.3,0.1-0.7,0.2-1,0.3c-0.9,0.1-2.1,0-3-0.1c0.2-0.4-0.1-0.5-0.3-0.7c0.1-0.1,0.2-0.2,0.3-0.3
		c-0.1-0.2-0.1-0.2-0.1-0.4c2.5-1.8,6.6-0.4,10.3-1.1C81.2,112.1,82.7,113,83.9,112.3"/>
	<path class="st3" d="M143.7,112.3c0.3,0.1,0.6,0.2,0.9,0.3c1.5,0.3,3.1-0.5,2.7,1.6c-0.4-0.2-1.1,0.2-1.6,0.4c0,0.2,0.1,0.2,0,0.3
		c-0.6,0.2-1.3-0.2-1.9-0.2c-0.2,0.1-0.3,0.2-0.5,0.3c-0.6-0.1-1.2-0.1-1.8-0.2c-0.1,0.1-0.1,0.2-0.2,0.3c-0.5,0.1-2-0.3-2.6-0.3
		c0,0,0,0-0.1,0.1c0,0.1,0.1,0.2,0.1,0.3h-0.2c-0.7,0.2-1-0.4-1.9-0.3c-1.4,0.2-2.7,0.1-3.9-0.1c-0.5-0.1-0.6,0.3-1,0.2
		c-0.6-0.1-1.1-0.6-1.7-0.4c0,0.1,0.1,0.2,0.1,0.3c-0.1,0-0.2,0-0.3-0.1c-0.6-1.7,0.3-2.6,2.1-2.5c1.1,0.1,2.5,0.2,3.7,0.4
		c0.7,0.1,1.6-0.3,2.3-0.2c0.7,0.1,1.4,0.1,2.1,0.2c0.5-0.1,1.4-0.3,1.8-0.4C142.6,112.3,143.2,112.3,143.7,112.3"/>
	<path class="st3" d="M205,112.3c1.4,0.1,2.8,0.2,2.7,1.6c0,0.3,0.1,0.5-0.1,0.7c-1.5,1.1-4-0.5-5.3,0.4c-0.8-0.6-3-0.4-3.9-0.2
		c-0.7,0.2-1-0.4-1.7-0.2c-0.4,0.1-5.4,0.1-5.7,0c-0.1-0.3-0.2-0.4-0.4-0.6c0.2-0.3,0-0.5,0.2-0.7c0.2-0.3,0.7-0.3,1.1-0.5
		c0.4-0.2,0.7-0.5,1.3-0.6c0.3,0.1,0.5,0.1,0.8,0.2c0.2,0,0.5-0.2,0.8-0.2c0.8,0.1,1.5,0.2,2.3,0.3c1.3-0.2,2.6-0.2,4-0.3
		C202.5,112.3,204,113,205,112.3"/>
	<path class="st3" d="M264.9,112.3c0.7,0,3.3,0.3,3.6,0.8c0.2,0.2,0.2,0.4,0.2,0.7c-0.6,0.3-1.5,0.8-2.2,1c-1.1,0.2-2.4-0.3-3.6-0.1
		c-0.4,0.1-2.2,0-2.4,0.1c-1.1,0.4-4.8,0.2-6,0c-0.5-0.1-0.6,0.3-1,0.2c-0.4-0.1-1-0.3-1.5-0.4c-0.1,0.1-0.1,0.2-0.2,0.3
		c-0.3-0.2-0.9-1-0.7-1.5c0.3-1.1,2.1-1.1,3.3-0.8c1.5,0.3,3.4,0.2,4.9,0.1c0.7,0.1,1.3,0.1,2,0.2c0.6,0.1,1.5-0.3,2.1-0.4
		C263.7,112.3,264.3,112.3,264.9,112.3"/>
	<path class="st3" d="M297.6,112.3c1.2,0.1,3,0.2,3.7,0.9c0,0.4,0.1,0.8,0.1,1.1h-0.1c0-0.1,0-0.2,0-0.3c-0.5,0.2-1,0.3-1.4,0.5
		c-0.1,0.2,0,0.2-0.1,0.3c-0.5,0.2-0.7-0.2-1.2-0.1c-0.6,0.1-1.2,0.1-1.8,0.2c-0.3-0.1-0.6-0.1-0.9-0.2c-0.2,0.1-0.4,0.2-0.6,0.3
		c-0.6,0-1.8-0.4-2.5-0.2c0,0.1,0.1,0.2,0.1,0.3h-0.2c-0.2,0-2.6-0.2-3.2-0.3c-0.3,0.1-0.6,0.1-0.9,0.2c-0.6-0.1-1.5-0.3-2.2-0.2
		c-0.2,0-0.3,0.2-0.6,0.2c-0.5-0.1-1-0.3-1.4-0.4c-0.1,0.1-0.1,0.2-0.2,0.3c-0.1-0.1-0.2-0.1-0.3-0.2c-0.6-2.5,1.1-2.5,3.3-2.1
		c1.6,0.3,3.2-0.1,4.8,0c0.7,0.1,1.4,0.1,2.1,0.2c0.5-0.1,1.4-0.3,1.8-0.4C296.5,112.3,297.1,112.3,297.6,112.3"/>
	<path class="st3" d="M359,112.3c1.5,0,3.3,0.5,2.7,2.1c-1.1,1.4-4-0.2-5.4,0.6c-0.3-0.3-2.6-0.5-3.5-0.3c-2.4,0.4-5.1-0.3-7.6,0.2
		c-0.3-0.2-0.5-0.5-0.7-0.7c0.2-0.3,0-0.5,0.2-0.7c0.2-0.4,0.6-0.3,1.1-0.5s0.8-0.5,1.4-0.6c0.3,0.1,0.5,0.1,0.8,0.2
		c0.2,0,0.4-0.2,0.8-0.2c0.8,0.1,1.5,0.2,2.3,0.3c1.3-0.2,2.7-0.2,4.1-0.3C356.5,112.3,357.9,112.9,359,112.3"/>
	<path class="st3" d="M418.8,112.3c0.8,0,3.3,0.3,3.6,0.8c0.2,0.2,0.2,0.6,0.1,0.8c-0.6,0.2-1.5,0.9-2.2,0.9c-1,0-2.1-0.1-3.1-0.1
		c-0.5,0.1-0.9,0.1-1.4,0.2c-0.4,0-0.9,0-1.3-0.1c-0.2,0.1-0.5,0.1-0.7,0.2c-1.4-0.2-3.3-0.3-4.3-0.1c-1,0.1-2.9-0.5-3.7-0.1
		c-0.5-0.3-0.8-0.7-0.9-1.5c0.7-1.4,2.3-0.6,3.7-0.7c0.8-0.1,1.6,0,2.3,0.2c0.4,0.1,1.7-0.2,2.2-0.2c0.7,0.1,1.5,0.1,2.2,0.2
		c0.6-0.1,1.2-0.2,1.8-0.4C417.6,112.3,418.2,112.3,418.8,112.3"/>
	<path class="st3" d="M147.4,114.1c0,0.1,0.1,0.1,0.1,0.2C147.4,114.2,147.4,114.3,147.4,114.1"/>
</g>
</svg>
