<?xml version="1.0" encoding="utf-8"?>
<!-- Generator: Adobe Illustrator 24.3.0, SVG Export Plug-In . SVG Version: 6.00 Build 0)  -->
<svg version="1.1" id="Layer_1" xmlns="http://www.w3.org/2000/svg" xmlns:xlink="http://www.w3.org/1999/xlink" x="0px" y="0px"
	 viewBox="0 0 283.5 234.8" style="enable-background:new 0 0 283.5 234.8;" xml:space="preserve">
<style type="text/css">
	.st0{fill:#575756;}
	.st1{fill:#E5007D;}
	.st2{fill:#009AB2;}
</style>
<g>
	<path class="st0" d="M15.6,234.7c-3.4,0-6-1.1-8.2-3.6c-2.1-2.3-3.2-5.3-3.2-9.1c0-3.9,1.1-6.9,3.2-9.1c2.1-2.3,5.2-3.4,8.9-3.4
		c1.8,0,3.9,0.2,6.2,0.7v3.7c-2.5-0.7-4.4-1.1-6-1.1c-2.1,0-3.9,0.9-5.3,2.5c-1.2,1.6-2,3.9-2,6.8c0,2.7,0.7,4.8,2.1,6.6
		c1.2,1.6,3.2,2.5,5.3,2.5c2,0,4.1-0.5,6.2-1.6v3.7C20.1,234.4,17.6,234.7,15.6,234.7"/>
	<path class="st0" d="M38.9,234.7c-3.6,0-6.2-1.1-8.4-3.4c-2-2.3-3-5.3-3-9.1c0-3.9,1.1-6.9,3-9.2c2.1-2.3,5-3.4,8.4-3.4v3.4
		c-4.4,0-6.8,3-6.8,9.2s2.3,9.2,6.8,9.2V234.7z M38.9,209.7c3.6,0,6.4,1.1,8.5,3.4c2,2.3,3,5.3,3,9.1c0,4.1-1.1,7.1-3,9.4
		c-2.1,2.1-5,3.2-8.5,3.2v-3.2c4.6,0,6.9-3.2,6.9-9.4c0-6.1-2.3-9.1-6.9-9.1V209.7z"/>
	<path class="st0" d="M57.3,234.2v-24h4.4v4.4c2.1-3.4,4.8-5,8.2-5c3.2,0,5.5,1.6,6.6,5c2.1-3.4,4.8-5,8.2-5c2,0,3.7,0.5,4.8,1.8
		c1.2,1.4,1.8,3,1.8,5.3v17.4h-4.4v-16.7c0-2.8-1.1-4.1-3.2-4.1c-2.3,0-4.6,1.6-7.1,4.8v16H72v-16.7c0-2.8-1.1-4.3-3.2-4.3
		c-2.3,0-4.6,1.8-7.1,5v16h-4.4C57.3,234.1,57.3,234.2,57.3,234.2z"/>
	<path class="st0" d="M99.8,234.2v-24h4.3v4.4c2.1-3.4,5-5,8.2-5s5.5,1.6,6.6,5c2.1-3.4,4.8-5,8.2-5c2.1,0,3.7,0.5,5,1.8
		c1.1,1.4,1.6,3,1.6,5.3v17.4h-4.3v-16.7c0-2.8-1.1-4.1-3.4-4.1c-2.1,0-4.6,1.6-7.1,4.8v16h-4.3v-16.7c0-2.8-1.2-4.3-3.4-4.3
		c-2.1,0-4.6,1.8-7.1,5v16h-4.3V234.2z"/>
	<path class="st0" d="M157.2,234.2v-4.4c-2.3,3.4-5.2,5-8.5,5c-2.1,0-3.7-0.5-5-2c-1.2-1.2-1.8-3-1.8-5.3v-17.2h4.3V226
		c0,1.8,0.4,3.2,0.9,3.9c0.4,0.7,1.2,1.1,2.5,1.1c2.7,0,5.2-1.8,7.6-5.2v-15.6h4.3v24H157.2z"/>
	<path class="st0" d="M170.2,234.2v-24h4.4v4.4c2.3-3.4,5.2-5,8.5-5c2,0,3.7,0.7,5,2c1.2,1.4,1.8,3.2,1.8,5.3v17.3h-4.3v-15.8
		c0-1.8-0.4-3-0.9-3.7c-0.5-0.9-1.4-1.2-2.5-1.2c-2.8,0-5.3,1.8-7.6,5.3v15.5h-4.4V234.2z"/>
	<path class="st0" d="M198.5,201.5h4.3v4.3h-4.3V201.5z M198.5,210.2h4.3v24h-4.3V210.2z"/>
	<path class="st0" d="M218.7,234.7c-2.1,0-3.9-0.5-5.2-1.8c-1.2-1.2-1.8-3-1.8-5.3v-14.2h-3v-3.2h3v-4.4l4.3-0.4v4.8h6.4v3.2H216
		v13.5c0,3,1.4,4.6,4.1,4.6c0.5,0,1.2,0,2.1-0.4v3C220.9,234.6,219.8,234.7,218.7,234.7"/>
	<path class="st0" d="M228.5,201.5h4.5v4.3h-4.5V201.5z M228.5,210.2h4.5v24h-4.5V210.2z"/>
	<path class="st0" d="M249.7,234.7c-2.7-0.5-4.8-1.6-6.6-3.4c-2.1-2.5-3.4-5.5-3.4-9.2c0-3.6,1.1-6.6,3-8.9c1.8-2.3,4.1-3.4,6.9-3.6
		v3.2c-3.2,0.2-5,2.5-5.3,6.8h5.3v3.4h-5.5c0.5,4.4,2.3,7.1,5.5,8.2v3.5H249.7z M249.7,209.7h0.5c3,0,5.2,1.1,6.8,3
		c1.6,2.1,2.5,5,2.5,8.9v1.4h-9.8v-3.4h5.3c0-4.4-1.6-6.8-5-6.8h-0.4L249.7,209.7L249.7,209.7z M259.3,233.5
		c-2.8,0.9-5.3,1.2-7.5,1.2h-2.1v-3.6c0.9,0.2,2,0.4,3,0.4c1.8,0,3.9-0.5,6.6-1.4V233.5z"/>
	<path class="st0" d="M273.3,234.7c-2,0-4.4-0.4-7.3-1.2v-4.1c2.8,1.4,5.3,2.1,7.5,2.1c1.2,0,2.3-0.4,3.2-1.1
		c0.7-0.5,1.2-1.4,1.2-2.5c0-1.4-1.2-2.7-3.6-3.7l-2.5-1.1c-3.9-1.6-5.7-3.7-5.7-6.8c0-2.1,0.7-3.7,2.1-5c1.6-1.2,3.6-1.8,6.2-1.8
		c1.2,0,3,0.2,5,0.5l0.9,0.2v3.7c-2.5-0.9-4.4-1.1-5.9-1.1c-2.7,0-4.1,0.9-4.1,3c0,1.2,1.1,2.3,3,3.2l2.1,0.9
		c2.5,1.1,4.1,2.1,5.2,3.2c0.9,1.2,1.4,2.5,1.4,4.3c0,2.1-0.9,3.7-2.5,5.2C278.1,234.2,276,234.7,273.3,234.7"/>
	<polygon class="st1" points="67.9,0 101.9,22.1 135.9,44.1 67.9,44.1 0,44.1 34,22.1 	"/>
	<polygon class="st1" points="215.5,0 249.5,22.1 283.5,44.1 215.5,44.1 147.8,44.1 181.6,22.1 	"/>
	<path class="st2" d="M163,144.8c0.2-0.2,50.1-59.3,50.1-28.7c0,15.9-9.2,31.6-14.1,46.2c10.8-11,19.9-25.2,33.8-32.9
		c26.2-13.8,21.8,37,39,22.2c5.7-4.9,9.4-7.5,10.9-8.4V55.8l-133.9-0.4V159C154,153.1,160.5,147.4,163,144.8z"/>
	<path class="st2" d="M268.7,169.5c-23.8,21.1-24.3-31.9-46.3-13.5c-12.4,5.5-37.7,48.9-46.5,29.5c-2.5-5.6,22.2-62.8,0-37.4
		c-3.8,3.3-18.1,19.2-27.1,24.3v18.3l133.9,0.3v-37.1C279.1,158.9,274,164.7,268.7,169.5z"/>
	<path class="st2" d="M0.7,55.4v135.3l134.5,0.3V55.7L0.7,55.4z M70.3,80.3l2.2-1.8c16.9-18.8,24.4,4.8,13.1,19.4
		C73.1,122.9,39.3,98.8,70.3,80.3z M125.3,152.8c-9.3,11.2-21.9,25.5-34.2,32.9c-21.8,17.6-28.6-30.4-37.7-31.9
		c-7.4-1.8-25.3,18.7-35.7,25.7c-23.4,15.9,13.6-26.7,18.4-32.1c8.5-9.5,21.4-25.3,31.3-21.5c20.8,8-4.4,49.5,30.1,37.6
		C100.9,162.4,140.6,134.5,125.3,152.8z"/>
</g>
</svg>
