<?xml version="1.0" encoding="utf-8"?>
<!-- Generator: Adobe Illustrator 24.3.0, SVG Export Plug-In . SVG Version: 6.00 Build 0)  -->
<svg version="1.1" id="Layer_1" xmlns="http://www.w3.org/2000/svg" xmlns:xlink="http://www.w3.org/1999/xlink" x="0px" y="0px"
	 viewBox="0 0 561.3 146" style="enable-background:new 0 0 561.3 146;" xml:space="preserve">
<style type="text/css">
	.st0{fill:#0067B1;}
	.st1{fill:#808285;}
</style>
<g>
	<path class="st0" d="M10.3,130.1v-2.7h11.3v17.9h-2.5v-5.8H19c-1.1,3.9-4.2,6.4-7.7,6.4c-7.2,0-11.2-5.6-11.2-18.2
		s4.1-18.2,11.2-18.2c6.7,0,9.7,4.4,10.1,10.4h-3.2c0-4.2-2.3-7.8-7-7.8c-5,0-8.1,4.1-8.1,15.5s3.1,15.5,8.1,15.5
		c4.7,0,7.4-4.2,7.4-12.5v-0.7h-8.3V130.1z"/>
	<path class="st0" d="M40,129.9c-0.1-6.5-1.9-8.9-5.6-8.9c-3.6,0-5.5,2.4-5.6,8.9H40z M42.9,136.7c-0.4,5.6-3.5,9.3-8.4,9.3
		c-5.5,0-8.8-3.8-8.8-13.7c0-9.1,3.3-13.7,9-13.7c5.8,0,8.4,4,8.4,12.7v1.1H28.8v1.2c0,7.5,2.7,9.9,5.6,9.9c3.1,0,5-2.2,5.5-6.8
		H42.9z"/>
	<path class="st0" d="M48.1,121.6h-3.6v-2.5h3.6v-7.2h3v7.2h4.6v2.5h-4.6v18.8c0,2.1,0.9,2.8,2.8,2.8c0.6,0,1.2-0.1,1.8-0.3v2.5
		c-0.3,0.2-1.1,0.3-2.1,0.3c-4,0-5.5-1.1-5.5-4.6V121.6z"/>
	<path class="st0" d="M87,136.7c-0.5,5.6-3.5,9.3-8.3,9.3c-5.5,0-8.8-3.8-8.8-13.7c0-9.1,3.3-13.7,9-13.7c4.9,0,7.8,3,8.1,8.4h-3
		c-0.4-4.1-2-5.9-5.1-5.9c-3.2,0-5.9,2-5.9,11.2c0,9.9,2.8,11.2,5.6,11.2c3,0,4.9-2.2,5.4-6.8H87z"/>
	<rect x="90.6" y="110.1" class="st0" width="3" height="35.2"/>
	<path class="st0" d="M106.4,143.5c3.3,0,5.9-2.9,5.9-11.2s-2.6-11.2-5.9-11.2s-5.9,2.9-5.9,11.2
		C100.6,140.6,103.1,143.5,106.4,143.5 M106.4,118.6c5.8,0,9,4.6,9,13.7s-3.2,13.7-9,13.7s-9-4.6-9-13.7
		C97.4,123.1,100.7,118.6,106.4,118.6"/>
	<path class="st0" d="M123.5,132.3c-3.7-1.4-5-3.6-5-6.2c0-5.4,3.4-7.5,7.8-7.5c4.9,0,7.2,2.5,7.2,7.3v0.7h-3v-0.7
		c0-3.4-1.6-4.8-4.3-4.8c-3.5,0-4.8,1.8-4.8,4.4c0,1.8,0.6,3.3,3.6,4.4l4.3,1.6c3.6,1.3,4.9,3.8,4.9,6.7c0,4.5-2.6,7.8-8.1,7.8
		c-5.4,0-8-2.2-8-8.1v-0.8h3v0.7c0,3.8,1.7,5.8,5,5.8c3.2,0,5.2-1.8,5.2-4.7c0-2.3-0.9-3.8-3.6-4.8L123.5,132.3z"/>
	<path class="st0" d="M151.2,129.9c-0.1-6.5-1.9-8.9-5.6-8.9c-3.6,0-5.5,2.4-5.6,8.9H151.2z M154.1,136.7c-0.4,5.6-3.5,9.3-8.4,9.3
		c-5.5,0-8.8-3.8-8.8-13.7c0-9.1,3.3-13.7,9-13.7c5.8,0,8.4,4,8.4,12.7v1.1H140v1.2c0,7.5,2.7,9.9,5.6,9.9c3.1,0,5-2.2,5.5-6.8
		H154.1z"/>
	<path class="st0" d="M158.2,119.2h3v4.1h0.1c1.1-2.9,3.5-4.7,6.6-4.7c0.3,0,0.7,0,1,0.1v3c-0.5-0.1-1-0.1-1.4-0.1
		c-3.2,0-6.3,2.4-6.3,7.4v16.4h-3L158.2,119.2L158.2,119.2z"/>
	<rect x="169.5" y="140.3" class="st0" width="3.4" height="5"/>
	<polygon class="st0" points="0,36.4 5.4,36.4 5.4,92.4 30.5,92.4 30.5,97 0,97 	"/>
	<path class="st0" d="M48.8,93.7c5.7,0,10.1-4.9,10.1-19.3c0-14.3-4.4-19.2-10.1-19.2s-10.1,4.9-10.1,19.2
		C38.7,88.8,43.1,93.7,48.8,93.7 M48.8,50.9c9.9,0,15.5,7.9,15.5,23.5c0,15.7-5.6,23.6-15.5,23.6s-15.5-7.9-15.5-23.6
		C33.3,58.8,38.9,50.9,48.8,50.9"/>
	<path class="st0" d="M70.8,51.9h4.6v6.3h0.2c2.5-5,7-7.3,11.5-7.3c6.9,0,11.5,3.6,11.5,12v34h-5.1V64.4c0-6.2-2.5-9.2-7.7-9.2
		c-5.9,0-9.9,4.6-9.9,11.5V97h-5.1V51.9z"/>
	<path class="st0" d="M120.6,93.7c5.2,0,9.8-2.6,9.8-19.3c0-16.6-4.7-19.2-9.8-19.2c-5.1,0-9.9,2.6-9.9,19.2
		C110.8,91.1,115.5,93.7,120.6,93.7 M131,89.5h-0.2c-1.4,5.2-5.7,8.5-11,8.5c-9.9,0-14.4-8-14.4-23.6c0-15.5,4.5-23.5,14.4-23.5
		c5.6,0,9.4,3.1,10.5,7.8h0.2V36.4h5.1V97H131V89.5z"/>
	<path class="st0" d="M157.2,93.7c5.7,0,10.1-4.9,10.1-19.3c0-14.3-4.4-19.2-10.1-19.2c-5.7,0-10.1,4.9-10.1,19.2
		C147.1,88.8,151.5,93.7,157.2,93.7 M157.2,50.9c9.9,0,15.5,7.9,15.5,23.5c0,15.7-5.6,23.6-15.5,23.6s-15.5-7.9-15.5-23.6
		C141.7,58.8,147.3,50.9,157.2,50.9"/>
	<path class="st0" d="M179.1,51.9h4.6v6.3h0.2c2.5-5,7-7.3,11.5-7.3c6.9,0,11.5,3.6,11.5,12v34h-5.1V64.4c0-6.2-2.5-9.2-7.7-9.2
		c-5.9,0-9.9,4.6-9.9,11.5V97h-5.1V51.9z"/>
	<path class="st1" d="M366.8,74.7l-9.3-34.1h-0.2L348,74.7H366.8z M354,36.4h6.8L378.7,97h-5.8L368,79.3h-21.2L341.9,97h-5.8
		L354,36.4z"/>
	<path class="st1" d="M384.2,51.9h5.1v45h-5.1V51.9z M384.2,36.4h5.1V45h-5.1V36.4z"/>
	<path class="st1" d="M397.6,51.9h5.1v7h0.2c2-5,6.1-8.1,11.4-8.1c0.6,0,1.2,0.1,1.8,0.3v5.1c-0.8-0.2-1.7-0.3-2.5-0.3
		c-5.6,0-10.9,4.1-10.9,12.8V97h-5.1V51.9z"/>
	<path class="st1" d="M435.4,55.2c-2.9,0-5.4,1.5-7.1,4c-2.2,3.1-2.9,7.5-2.9,15.4c0,16.6,4.7,19.2,9.8,19.2c5.1,0,9.8-2.6,9.8-19.2
		C445.1,58.1,440.4,55.2,435.4,55.2 M420.3,51.9h4.6v6.4h0.2c1.6-4.2,5.3-7.5,11.1-7.5c10,0,14.3,8,14.3,23.6S446,98,436.1,98
		c-5.6,0-9.4-3-10.5-7.8h-0.2v21.7h-5.1V51.9z"/>
	<path class="st1" d="M471,93.7c5.7,0,10.1-4.9,10.1-19.3c0-14.3-4.4-19.2-10.1-19.2s-10.1,4.9-10.1,19.2
		C460.9,88.8,465.4,93.7,471,93.7 M471,50.9c9.9,0,15.5,7.9,15.5,23.5C486.6,90.1,481,98,471,98c-9.9,0-15.5-7.9-15.5-23.6
		C455.5,58.8,461.1,50.9,471,50.9"/>
	<path class="st1" d="M493,51.9h5.1v7h0.2c1.9-5,6.1-8.1,11.4-8.1c0.6,0,1.2,0.1,1.8,0.3v5.1c-0.8-0.2-1.7-0.3-2.5-0.3
		c-5.6,0-10.9,4.1-10.9,12.8V97H493V51.9z"/>
	<path class="st1" d="M520.1,56.2h-6.2V52h6.2V39.5h5.1V52h8v4.2h-8v32.3c0,3.6,1.5,4.8,4.8,4.8c1,0,2-0.2,3.1-0.5V97
		c-0.6,0.3-1.9,0.5-3.6,0.5c-6.9,0-9.5-1.9-9.5-7.9V56.2H520.1z"/>
	<path class="st1" d="M260.1,76.4c-0.8,13.8-7.1,21.5-18,21.5c-12.4,0-19.4-9.6-19.4-31.3s7-31.3,19.4-31.3
		c12.3,0,17.4,8.7,17.4,18.6h-5.4c0-8.2-4.2-14.1-12-14.1c-8.7,0-13.9,7.1-13.9,26.7s5.3,26.7,13.9,26.7c7.6,0,12-6.5,12.6-17h5.4
		V76.4z"/>
	<path class="st1" d="M266.9,51.9h5.1v45h-5.1V51.9z M266.9,36.4h5.1V45h-5.1V36.4z"/>
	<path class="st1" d="M283,56.2h-6.2V52h6.2V39.5h5.1V52h8v4.2h-8v32.3c0,3.6,1.5,4.8,4.8,4.8c1,0,2-0.2,3.1-0.5V97
		c-0.6,0.3-1.9,0.5-3.6,0.5c-6.9,0-9.5-1.9-9.5-7.9V56.2H283z"/>
	<path class="st1" d="M298.8,51.9h5.4l10.1,39h0.2l9.1-39h5.4l-13.1,48.7c-2.4,8.8-5.1,11.3-12,11.3c-1.4,0-2.4-0.1-3.4-0.2v-4.2
		c1.1,0.1,2.2,0.2,3.3,0.2c3.1,0,5.3-1.3,6.7-6l1.3-4.2L298.8,51.9z"/>
</g>
<g>
	<path class="st0" d="M474.4,26.4c0-0.1,0-0.2-0.1-0.2l-13.4-6.7c-0.1,0-0.2,0-0.3,0l-4,3.2c-0.1,0.1-0.1,0.2,0,0.3l5.8,7.6
		c0,0.1,0.1,0.1,0.2,0.1h0.1l11.6-4.1C474.3,26.6,474.4,26.5,474.4,26.4"/>
	<path class="st0" d="M561.1,7.4c-0.5-1.2-1.8-1.8-3.9-1.8c-0.5,0-1,0-1.5,0.1c-1.5-1.3-4.3-1.5-5.9-1.5c-1.9,0-4,0.3-5.2,0.7
		c-4.5,1.5-8.2,2.7-11.9,3.9c-4.3,1.4-8.5,2.8-13.7,4.6L485.4,0c-0.1,0-0.2,0-0.2,0L481,3.3c-0.1,0.1-0.1,0.2-0.1,0.3l13.4,18
		c-3.5,1.2-8.3,2.9-13.1,4.6c-7.2,2.5-14.7,5.1-17.1,5.9c-0.1,0-0.2,0.1-0.2,0.3c0,0.1,0.1,0.2,0.2,0.2l19.1,4.2
		c0,0,0.3,0.1,0.7,0.1c0.4,0,0.7-0.1,1.1-0.2l0,0l71-24c1.6-0.5,4.3-1.6,5.1-3.4C561.4,8.7,561.4,8.1,561.1,7.4"/>
</g>
</svg>
