<?xml version="1.0" encoding="utf-8"?>
<!-- Generator: Adobe Illustrator 24.3.0, SVG Export Plug-In . SVG Version: 6.00 Build 0)  -->
<svg version="1.1" id="Layer_1" xmlns="http://www.w3.org/2000/svg" xmlns:xlink="http://www.w3.org/1999/xlink" x="0px" y="0px"
	 viewBox="0 0 270.3 89.3" style="enable-background:new 0 0 270.3 89.3;" xml:space="preserve">
<style type="text/css">
	.st0{fill:#262626;}
	.st1{fill:#C0BAAA;}
	.st2{fill:#E3E3E2;}
</style>
<rect class="st0" width="270.3" height="89.3"/>
<path class="st1" d="M36.1,37.2c-4.3-1.3-5.3-1.6-5.3-3.3c0-1.2,0.5-1.9,1.2-2.3c0.6-0.5,1.7-0.8,2.8-0.8s2.1,0.2,2.8,0.7
	c0.2,0.2,0.3,0.4,0.4,0.6l0.7,3.2c1.3-0.2,2.5-0.3,3.8-0.5l-0.6-6.6c-0.7-0.4-2.9-0.9-5.9-0.9c-3.1,0-5.4,0.6-7,1.5
	c-2,0.9-3.9,3-3.9,5.9c0,3.2,2.1,5.3,6.6,6.6c4.1,1.2,5.3,1.5,5.3,3.7c0,1.2-0.6,1.9-1.3,2.3c-1,0.5-2,0.6-3.3,0.6
	c-1.2,0-2.5-0.4-3.3-1c-0.3-0.2-0.4-0.4-0.4-0.6L27.9,43c-1.2,0.2-2.5,0.4-3.7,0.6c0.3,2.2,0.5,4.5,0.8,6.8c1.5,0.5,4,1,6.9,1
	c3,0,5.6-0.5,7.2-1.4c2.6-1.4,3.9-3.6,3.9-6.2C42.8,39.7,40,38.3,36.1,37.2z M58.8,47.3c-1.5,0-2.9-1-2.9-2.9V31.7h8.4
	c0.1-1.2,0.1-2.5,0.1-3.8c-2.7,0-5.6,0.1-8.4,0.1c0.1-1.8,0.1-5.5,0.1-7.1c0-0.2-0.1-0.2-0.2-0.2c-0.2,0-3.6,1.2-5.6,2.3
	c-0.1,1.4-0.2,3.1-0.2,4.6c0,0.2-0.2,0.3-0.3,0.3c-1.1,0.1-2.3,0.1-3.6,0.2c0,1.2-0.1,2.4-0.1,3.6h3.7v6.6c0,1.1-0.1,4.6-0.1,7.4
	c0,1.6,0.1,2.8,1.6,4.2c1.4,1.3,2.9,1.5,4.2,1.5c2.7,0,6.1-0.4,9.3-1.6c-0.2-1.2-0.4-2.3-0.6-3.5C62.7,46.9,60.6,47.3,58.8,47.3z
	 M86.8,29.2c-2-1.4-4.2-2-7-2c-3,0-5.8,0.8-7.9,2.5c-3.2,2.5-4.8,6.2-4.8,10c0,4.1,1.4,7,3.8,9.1c2,1.7,4.9,2.5,8,2.5
	c2.9,0,5.4-0.7,7.5-2.2c2.8-2,5-5.8,5-10.3S89.6,31.1,86.8,29.2z M82.9,46.6c-1,1.2-2.3,1.6-3.7,1.6c-1.5,0-2.7-0.5-3.6-1.6
	c-1.3-1.5-2-3.6-2-7.3c0-3.1,0.6-5.4,2-7c1.1-1.2,2.5-1.6,3.7-1.6c1.5,0,2.8,0.5,3.8,1.8c1.1,1.5,1.6,3.7,1.6,6.7
	C84.9,42.6,84.4,44.9,82.9,46.6z M120.1,35.5c0-1.4-0.2-3-1.1-4.5c-1-1.8-3-3.7-5.7-3.7c-2.4,0-3.7,0.3-8.9,3.6l-0.3-0.1
	c-0.2-1-0.4-2.3-0.6-3.3c0-0.1,0-0.2-0.1-0.2c-0.4,0-6.9,1.2-8.9,1.5v3.3l3.8,0.1v15.1c0,0.1-0.1,0.2-0.1,0.2l-3.1,0.1V51h12.4v-3.4
	l-3.2-0.1c0-3.9,0.1-8.8,0.1-12.8c1.8-1.4,4.4-2.7,6-2.7c1.1,0,2.1,0.1,3,1.6c0.6,1.1,0.6,2.9,0.6,5.2v8.6c0,0.1-0.1,0.2-0.2,0.2
	l-2.7-0.1c-0.1,1.1-0.1,2.3-0.1,3.4h12.1c0-1.1,0.1-2.3,0.1-3.4l-3.1-0.1L120.1,35.5L120.1,35.5z M147.8,37.9c0-2.8-0.6-5.6-2.4-7.8
	c-1.5-1.8-3.8-2.9-6.9-2.9c-7.5,0-12.4,5.9-12.4,13s4.5,11.2,11.7,11.2c2.6,0,6.3-0.9,9.4-2.4c-0.3-1.1-0.6-2.3-0.9-3.4
	c-1.8,0.7-4.8,1.6-7.3,1.6c-1.9,0-3.5-0.2-5-1.8c-1-1.1-1.6-2.9-1.6-5.2c3.9,0,10.5,0,13-0.1C146,40.3,147.6,38.6,147.8,37.9z
	 M141.5,37c-2.5,0.1-6.4,0.1-8.9,0.1c0.1-2.3,1.1-3.7,1.8-4.7c0.8-1.1,2-1.6,3.5-1.6s2.4,0.6,3.1,1.6c0.6,0.9,1.1,2.5,1.1,4
	C142.1,36.7,141.8,37,141.5,37z M176.4,31.3c0-1.2,0-2.5-0.1-3.7c-1.5,0.1-5.2,0.1-7.5,0.2c-0.4,0-0.7-0.1-1.2-0.2
	c-0.6-0.2-2.5-0.4-4.4-0.4c-6.4,0-11.2,4.1-11.2,9.3c0,4.1,2.9,6.6,5.3,7.7v0.4c-4.4,2.8-4.6,3-4.6,3.5c0,2.7,1.9,3.6,3.5,4.2v0.3
	c-1.2,1-2.5,1.8-4.7,3.3c-0.7,0.6-1.1,1.2-1.1,2c0,4,4,6.3,11.1,6.3c3,0,6.2-0.5,8.6-1.4c4-1.5,6.2-4.5,6.2-7.6
	c0-2.4-0.7-3.5-2.4-4.6s-4-1.4-8.6-1.5c-4.9-0.2-6.3-0.3-6.3-1.6c0-0.6,0.9-1.5,2-2.4c4.9,0.3,7.9-1.2,9.7-3s2.4-4.1,2.4-6
	c0-1.8-0.6-3.5-1.5-4.5l0.1-0.2C172.8,31.3,175.3,31.3,176.4,31.3z M159.7,53.3c1,0.1,2.8,0.2,5.6,0.3c4,0.2,5.1,0.7,5.1,2.7
	c0,1.5-0.8,2.7-2.3,3.6c-1.4,0.7-3.6,1.1-5.4,1.1c-2.9,0-5.9-1-5.9-3.3C156.7,56.1,157.9,55,159.7,53.3L159.7,53.3z M162.6,42
	c-2.3,0-4.4-1.4-4.4-5.7c0-3.8,1.9-5.9,4.7-5.9c1.4,0,2.4,0.5,3.1,1.4c0.6,1,1,2.1,1,4.1C167,40,165.1,42,162.6,42L162.6,42z
	 M198.1,46.9c0-2.3,0.1-8.2,0.1-11.2c0-5.6-3.6-8.6-7.7-8.6c-4.6,0-7.9,2.2-11,4.9c0.7,1,1.5,2,2.3,3c2-1.8,4.5-3.3,6.6-3.3
	c2.9,0,4.2,1.8,4,6.3h-3.3c-7.8,0-11.2,4.6-11.2,7.7c0,3.3,3.7,5.7,6.5,5.7c1.9,0,4.1-0.5,7.9-2.3h0.3c0.7,1.1,1.3,1.9,1.8,2.3
	c3.2,0,6.7-0.6,7.5-0.8v-3.3l-3.5,0.2C198.2,47.4,198.1,47.3,198.1,46.9L198.1,46.9z M192.4,45.4c0,0.2,0,0.3-0.1,0.4
	c-1.6,1.1-3.6,1.8-5.1,1.8c-1.7,0-3.1-1-3.1-2.5c0-2.1,1.8-3.9,6.1-3.9c1.1,0,2,0,2.2,0.1L192.4,45.4L192.4,45.4z M216.2,47.3
	c-1.5,0-2.9-1-2.9-2.9V31.7h8.4c0.1-1.2,0.1-2.5,0.1-3.8c-2.7,0-5.6,0.1-8.4,0.1c0.1-1.8,0.1-5.5,0.1-7.1c0-0.2-0.1-0.2-0.2-0.2
	c-0.2,0-3.6,1.2-5.6,2.3c-0.1,1.5-0.2,3.2-0.2,4.7c0,0.2-0.2,0.3-0.3,0.3c-1.1,0.1-2.3,0.1-3.6,0.2c0,1.2-0.1,2.4-0.1,3.6h3.7v6.6
	c0,1.1-0.1,4.6-0.1,7.4c0,1.6,0.1,2.8,1.6,4.2c1.4,1.3,2.9,1.5,4.2,1.5c2.7,0,6.1-0.4,9.3-1.6c-0.2-1.2-0.4-2.3-0.6-3.5
	C220,46.9,218,47.3,216.2,47.3z M237.4,47.3c-1.9,0-3.5-0.2-5-1.8c-1-1.1-1.6-2.9-1.6-5.2c3.9,0,10.5,0,13-0.1
	c0.5-0.1,2.2-1.8,2.3-2.5c0-2.8-0.6-5.6-2.4-7.8c-1.5-1.8-3.8-2.9-6.9-2.9c-7.5,0-12.4,5.9-12.4,13s4.5,11.2,11.7,11.2
	c2.6,0,6.3-0.9,9.4-2.4c-0.3-1.1-0.6-2.3-0.9-3.4C243,46.4,239.9,47.3,237.4,47.3L237.4,47.3z M232.7,32.3c0.8-1.1,2-1.6,3.5-1.6
	s2.4,0.6,3.1,1.6c0.6,0.9,1.1,2.5,1.1,4c0,0.4-0.2,0.6-0.6,0.6c-2.5,0.1-6.4,0.1-8.9,0.1C231,34.7,231.9,33.3,232.7,32.3L232.7,32.3
	z"/>
<path class="st2" d="M25.9,59.3v8H25v1h4.4v-1h-1.6v-2.7h0.7c0.7,0,1.6-0.1,2.3-0.5c1-0.5,1.9-1.6,1.9-2.9c0-1.2-0.8-2.4-2.1-2.8
	c-0.9-0.2-1.4-0.2-2.5-0.2h-3v1C25.1,59.2,25.9,59.3,25.9,59.3z M27.8,59.2h0.7c1.4,0,2.3,0.8,2.3,2.1c0,0.7-0.2,1.4-0.8,1.8
	c-0.4,0.3-0.9,0.4-1.4,0.4c-0.3,0-0.6,0-0.7-0.1L27.8,59.2z M38.1,59.3h1.3v-1h-4.1v1h0.9c0,0,0.1,0,0.1,0.1v5
	c0,1.3,0.2,2.4,1.1,3.2c0.7,0.7,1.7,0.9,2.9,0.9c1.3,0,2.2-0.5,2.7-1c0.6-0.6,1.1-1.7,1.1-3.5v-4.7H45v-1h-3.7v1h1.2v4.8
	c0,1.2-0.3,2.1-0.6,2.5s-0.7,0.7-1.6,0.7c-0.8,0-1.3-0.3-1.6-0.7c-0.4-0.5-0.6-1.1-0.6-2.4C38.1,64.2,38.1,59.3,38.1,59.3z
	 M47.7,67.3v1h4.1c2.5,0,4-1.2,4-2.9c0-1.3-1.1-2.3-2.4-2.5v-0.1c1-0.4,1.8-1.2,1.8-2.3c0-0.8-0.6-1.6-1.3-1.9
	c-0.8-0.4-1.8-0.4-3.3-0.4h-2.9v1h1.1v8c0,0,0,0.1-0.1,0.1C48.7,67.3,47.7,67.3,47.7,67.3z M50.6,59.2h0.8c1.4,0,2.1,0.7,2.1,1.7
	c0,1.1-1,1.8-2.2,1.8h-0.6L50.6,59.2L50.6,59.2z M50.6,63.6h0.7c1.9,0,2.6,1,2.6,1.9c0,1.3-1.1,1.9-2.3,1.9c-0.7,0-1.1-0.1-1.1-0.5
	L50.6,63.6z M63.9,63.8c0,1.7,0.7,3,1.7,3.7c0.9,0.7,2.1,1,3.2,1c0.8,0,2.1-0.3,3.2-0.7c-0.1-0.4-0.1-0.8-0.2-1.1
	c-0.7,0.3-1.8,0.5-2.7,0.5s-1.7-0.3-2.3-0.9c-0.7-0.7-0.9-1.6-0.9-2.9c0-1.4,0.5-2.5,1.2-3.3c0.6-0.6,1.4-0.9,2.1-0.9
	c0.4,0,0.7,0.1,1,0.2c0.1,0,0.1,0.1,0.1,0.2l0.3,1.7c0.4-0.1,0.9-0.1,1.3-0.2c-0.1-1-0.1-1.9-0.2-2.9c-0.4-0.2-1.1-0.3-2.1-0.3
	c-1.2,0-2.6,0.3-3.7,1.2C64.9,60.2,63.9,61.6,63.9,63.8z M79.7,68.5c1.6,0,2.7-0.5,3.6-1.3c1.1-1,1.6-2.6,1.6-4.2
	c0-1.9-0.8-3.4-1.9-4.2c-0.8-0.6-1.7-0.8-2.7-0.8c-1.1,0-2.1,0.2-3.1,0.9C76,59.7,75,61.3,75,63.3c0,1.7,0.5,2.9,1.4,3.9
	C77.1,68,78.3,68.5,79.7,68.5z M80,67.4c-0.7,0-1.5-0.3-2-0.9c-0.7-0.8-1-1.8-1-3.3c0-1.6,0.5-2.7,1.1-3.3c0.5-0.5,1.1-0.8,1.9-0.8
	s1.4,0.3,1.9,1c0.6,0.8,0.9,1.9,0.9,3.2c0,1.5-0.4,2.5-0.9,3.3C81.4,67.2,80.7,67.4,80,67.4z M89,59.3v7.9h-1v1h3.6v-1h-1.3v-6.9
	h0.1c1.1,2.9,2,5.3,3,7.4h1c0.8-1.8,1.8-4.1,3-7.3h0.1v6.7h-1.1v1h3.8v-1h-1v-8h0.9V58H97c-0.9,2.4-1.9,4.9-2.8,7.3h-0.1
	c-1-2.6-2-5.4-2.8-7.3H88v1.1C88,59.1,89,59.3,89,59.3z M104.4,59.3v8h-0.9v1h4.4v-1h-1.6v-2.7h0.7c0.7,0,1.6-0.1,2.3-0.5
	c1-0.5,1.9-1.6,1.9-2.9c0-1.2-0.8-2.4-2.1-2.8c-0.9-0.2-1.4-0.2-2.5-0.2h-3v1C103.6,59.2,104.4,59.3,104.4,59.3z M106.2,59.2h0.7
	c1.4,0,2.3,0.8,2.3,2.1c0,0.7-0.2,1.4-0.8,1.8c-0.4,0.3-0.9,0.4-1.4,0.4c-0.3,0-0.6,0-0.7-0.1L106.2,59.2z M112.4,67.3v1h3.7v-1
	h-1.2l0.6-1.8h3.4c0,0,0.1,0,0.1,0.1c0.2,0.5,0.4,1.1,0.6,1.7v0.1h-1.1v1h3.9v-1h-0.9c-1-2.9-2.2-6.3-3.3-9.2h-1.4
	c-1.1,2.9-2.4,6.3-3.5,9.1l-0.1,0.1C113.2,67.4,112.4,67.3,112.4,67.3z M117.2,60.4c0.5,1.4,0.9,2.8,1.4,4.1h-2.8v-0.1
	C116.2,63.1,116.7,61.7,117.2,60.4z M124.8,67.3v1h3.7v-1h-1.4v-6.2h0.1c1.9,2.8,3.9,5.6,5.3,7.4c0.5,0,1-0.1,1.3-0.2v-9.1h0.9v-1
	h-3.6v1h1.4v6.6h-0.1c-1.5-2.4-3.4-5.2-5.1-7.7h-2.6v1h1.1v8C125.8,67.1,124.8,67.3,124.8,67.3z M139.5,67.3v1h4.4v-1h-1.3v-2.8
	c1-1.6,2.2-3.8,3.1-5.2h0.8v-1H143v1h1.1v0.1c-0.4,1-1.5,3-2,3.9H142c-0.6-1.2-1.5-2.9-2-4h1.2v-1H137v1h0.7c0,0,0.1,0,0.1,0.1
	c0.9,1.5,2.1,3.7,2.9,5.2v2.7C140.7,67.3,139.5,67.3,139.5,67.3z"/>
</svg>
