<?xml version="1.0" encoding="utf-8"?>
<!-- Generator: Adobe Illustrator 24.3.0, SVG Export Plug-In . SVG Version: 6.00 Build 0)  -->
<svg version="1.1" id="Layer_1" xmlns="http://www.w3.org/2000/svg" xmlns:xlink="http://www.w3.org/1999/xlink" x="0px" y="0px"
	 viewBox="0 0 683.1 108.3" style="enable-background:new 0 0 683.1 108.3;" xml:space="preserve">
<style type="text/css">
	.st0{fill:none;stroke:#F78E1E;stroke-width:4;}
	.st1{fill:#808285;}
	.st2{fill:#4D4D4F;}
	.st3{fill:#F78E1E;}
	.st4{opacity:0.5;fill:none;stroke:#F78E1E;stroke-width:2;enable-background:new    ;}
</style>
<line class="st0" x1="0" y1="65.4" x2="333" y2="65.4"/>
<g>
	<path class="st1" d="M12.9,86.9c-0.1,0-0.2,0-0.2,0c-0.1,0-0.2,0-0.5,0h-0.6h-0.7H6.5l-1.4,6h3.5c1.4,0,1.9,0,2.4-0.1l-0.4,1.6
		c-0.4-0.1-0.5-0.1-1.4-0.1H8.3H4.9l-1.1,4.9c-0.4,1.9-0.6,2.7-0.6,3.5H0.7c0.3-0.7,0.6-1.7,1-3.5L4,88.8c0.4-1.8,0.6-2.7,0.6-3.5
		h8.7L12.9,86.9z"/>
	<path class="st1" d="M39.9,90c-0.3,0.7-0.5,1.6-0.9,3.1l-1.5,6.4c-0.3,1.6-0.5,2.5-0.5,3.1h-2.2c0.2-0.6,0.6-1.7,0.9-3.1l1.5-6.4
		c0.3-1.4,0.5-2.6,0.5-3.1H39.9z M39.3,84h1.9l-0.5,2.1h-1.9L39.3,84z"/>
	<path class="st1" d="M68.9,90l-0.3,1.4c-0.1,0.3-0.3,1-0.5,1.7l0.2-0.3c1.5-2.1,2.7-3,4.4-3l-0.6,1.8c-1.2,0-2.6,1.1-3.7,2.9
		c-0.6,0.9-0.8,1.5-1.4,3.9c-0.5,2-0.7,3-0.8,4.2v0.2H64c0.2-0.6,0.6-1.7,0.9-3.1l1.5-6.4c0.3-1.4,0.5-2.5,0.5-3.1h2V90z"/>
	<path class="st1" d="M104.5,100.6c-2,1.4-4.3,2.2-6,2.2c-2.2,0-3.5-1.5-3.5-4.2c0-2.8,1.3-5.9,3.3-7.6c1.1-0.9,2.3-1.4,3.7-1.4
		c1.9,0,3.1,1,3.1,2.7c0,2.7-3.7,5-7.9,5.1c-0.1,0.5-0.1,0.6-0.1,1c0,1.8,0.6,2.7,2,2.7c1.2,0,2.7-0.6,4.4-1.7l0.2-0.2L104.5,100.6z
		 M103.2,92.5c0-0.8-0.6-1.3-1.5-1.3c-1.8,0-3.9,2.3-4.4,4.9C100.7,95.8,103.2,94.3,103.2,92.5z"/>
	<path class="st1" d="M162.1,85.3c0,0.5,0.2,0.9,0.9,2.8l1.9,4.7l4.6-5.3c1-1.2,1.5-1.7,1.8-2.2h2.8c-0.6,0.4-0.8,0.6-2,1.9
		l-6.7,7.6l-1,4.3c-0.4,1.9-0.6,2.7-0.6,3.5h-2.4c0.3-0.7,0.6-1.7,0.9-3.5l1.1-4.6l-2.7-6.2c-1-2.3-1.1-2.5-1.5-3
		C159.2,85.3,162.1,85.3,162.1,85.3z"/>
	<path class="st1" d="M203,94.2c0,4.7-3.2,8.6-6.9,8.6c-2.5,0-3.9-1.6-3.9-4.3c0-4.9,3.1-8.8,7-8.8C201.5,89.7,203,91.4,203,94.2z
		 M194.1,98.4c0,1.9,0.8,2.9,2.3,2.9c2.5,0,4.6-3.1,4.6-7c0-2-0.8-3-2.4-3C196.2,91.2,194.1,94.5,194.1,98.4z"/>
	<path class="st1" d="M235,102.6l0.3-1.4l0.1-0.5l0.2-0.6c0-0.1,0.1-0.3,0.2-0.5l0.1-0.4c-1.5,2.3-3.6,3.6-5.7,3.6
		c-1.4,0-2.2-0.8-2.2-2c0-0.5,0.1-1.3,0.4-2.6l1.2-5.1c0.3-1.4,0.5-2.4,0.6-3.1h2.2c-0.3,0.7-0.6,1.6-0.9,3.1l-1.1,5
		c-0.2,0.9-0.3,1.7-0.3,2.1c0,0.6,0.4,1,1,1c1,0,2.3-0.8,3.5-2.2c0.9-1,1.3-1.7,1.8-3.1c0.6-1.6,1-3.1,1.3-5
		c0.1-0.5,0.1-0.6,0.1-1.1h2.2c-0.2,0.6-0.6,1.7-0.9,3.1l-1.4,6.4c-0.3,1.4-0.5,2.3-0.6,3.1H235V102.6z"/>
	<path class="st1" d="M268.8,90l-0.3,1.4c-0.1,0.3-0.3,1-0.5,1.7l0.2-0.3c1.5-2.1,2.7-3,4.4-3l-0.6,1.8c-1.2,0-2.6,1.1-3.7,2.9
		c-0.6,0.9-0.8,1.5-1.4,3.9c-0.5,2-0.7,3-0.8,4.2v0.2h-2.2c0.2-0.6,0.6-1.7,0.9-3.1l1.5-6.4c0.3-1.4,0.5-2.5,0.5-3.1h2V90z"/>
	<path class="st1" d="M324.3,102.6c0.3-0.7,0.6-1.7,1-3.5l2.3-10.3c0.4-1.9,0.6-2.7,0.6-3.5h2.4c-0.3,0.8-0.6,1.6-1,3.5l-2.4,10.3
		c-0.4,1.9-0.6,2.7-0.6,3.5H324.3z"/>
	<path class="st1" d="M358.9,90l-0.3,1.4c0,0-0.1,0.2-0.1,0.4c-0.1,0.2-0.1,0.4-0.1,0.4l-0.1,0.5l-0.1,0.4c1-1.3,1.5-1.9,2.4-2.5
		s1.8-0.9,2.7-0.9c1.3,0,2.1,0.7,2.1,1.9c0,0.4-0.1,0.9-0.2,1.5c1.4-2.2,3.2-3.4,5-3.4c1.5,0,2.2,0.7,2.2,2.1c0,0.6-0.1,1.3-0.4,2.4
		l-1.2,5.4c-0.3,1.4-0.5,2.3-0.5,3.1h-2.2c0.3-0.7,0.6-1.7,0.9-3.1l1.1-4.8c0.2-1,0.4-1.9,0.4-2.4c0-0.7-0.4-1.1-0.9-1.1
		c-1.6,0-4.1,2.8-5,5.7c-0.6,1.8-1.1,4.6-1.2,5.7H361c0.2-0.6,0.5-1.6,0.9-3.1l1.2-5.2c0.3-1.5,0.4-1.6,0.4-2.1c0-0.6-0.4-1-0.9-1
		c-0.7,0-2,0.9-3.1,2c-0.8,1-1.4,2.1-2,3.7c-0.6,1.8-1.1,4-1.3,5.7H354c0.2-0.6,0.6-1.7,0.9-3.1l1.5-6.4c0.3-1.4,0.5-2.5,0.5-3.1
		L358.9,90L358.9,90z"/>
	<path class="st1" d="M404.4,102.6l0.3-1.2c0.1-0.6,0.4-1.5,0.7-2.2c-1,1.4-1.6,2-2.5,2.6s-2,1-3,1c-1.9,0-2.9-1.2-2.9-3.6
		c0-2.8,1.1-5.9,2.7-7.8c1-1.1,2.5-1.7,4-1.7c1.3,0,2.1,0.4,3.2,1.4l0.2-1.1h2c-0.3,0.7-0.5,1.6-0.9,3.1l-1.5,6.4
		c-0.3,1.4-0.5,2.6-0.5,3.1C406.2,102.6,404.4,102.6,404.4,102.6z M403.7,91.1c-1.6,0-2.8,1-3.7,3c-0.6,1.6-1.1,3.5-1.1,5.1
		c0,1.3,0.5,2,1.4,2c1.6,0,3.7-1.8,4.9-4.3c0.6-1.2,1-2.6,1.3-4.2C406.1,91.8,404.9,91.1,403.7,91.1z"/>
	<path class="st1" d="M443.8,90h2c-0.2,0.6-0.5,1.6-0.9,3.1l-2.2,9.6c-0.6,2.8-1.2,3.8-2.7,4.7c-1,0.6-2.1,0.9-3.4,0.9
		c-1.6,0-3.3-0.4-4.5-1l0.9-1.5c1.3,0.7,2.4,0.9,3.7,0.9c1.6,0,2.9-0.6,3.4-1.7c0.3-0.5,0.6-1.4,0.8-2.5l0.2-0.8
		c0.1-0.3,0.2-0.9,0.4-1.4l0.2-0.5l0.1-0.3c-1.5,2.2-3.3,3.4-5.3,3.4c-1.9,0-3-1.2-3-3.4c0-3.1,1.2-6.6,3-8.3c1-0.9,2.3-1.4,3.7-1.4
		c1.3,0,2.2,0.4,3.2,1.4L443.8,90z M440.2,91.1c-1.5,0-2.7,1-3.6,2.8c-0.7,1.6-1.1,3.6-1.1,5.3c0,1.4,0.4,2.1,1.4,2.1
		c1.5,0,3.4-1.5,4.5-3.5c0.8-1.5,1.3-3,1.7-4.9C442.6,91.8,441.4,91.1,440.2,91.1z"/>
	<path class="st1" d="M475,90c-0.3,0.7-0.5,1.6-0.9,3.1l-1.5,6.4c-0.3,1.6-0.5,2.5-0.5,3.1H470c0.2-0.6,0.6-1.7,0.9-3.1l1.5-6.4
		c0.3-1.4,0.5-2.6,0.5-3.1H475z M474.3,84h1.9l-0.5,2.1h-1.9L474.3,84z"/>
	<path class="st1" d="M504,90l-0.3,1.4l-0.1,0.6l-0.1,0.5c-0.1,0.4-0.1,0.4-0.2,0.6c1.4-2.2,3.3-3.4,5.4-3.4c1.4,0,2.3,0.8,2.3,2.1
		c0,0.6-0.1,1.1-0.4,2.5l-1.2,5.2c-0.3,1.5-0.4,2.2-0.5,3v0.1h-2.2c0.2-0.5,0.5-1.6,0.9-3.1l1.1-5c0.2-1,0.4-1.8,0.4-2.2
		c0-0.7-0.4-1.1-1-1.1c-0.9,0-2.3,0.8-3.4,2.1c-0.9,1-1.5,2-2,3.6c-0.6,1.5-0.9,2.8-1.2,4.8c-0.1,0.5-0.1,0.6-0.1,1h-2.2
		c0.2-0.6,0.6-1.7,0.9-3.1l1.5-6.4c0.3-1.4,0.5-2.5,0.5-3.1L504,90L504,90z"/>
	<path class="st1" d="M543.2,102.6l0.3-1.2c0.1-0.6,0.4-1.5,0.7-2.2c-1,1.4-1.6,2-2.5,2.6s-2,1-3,1c-1.9,0-2.9-1.2-2.9-3.6
		c0-2.8,1.1-5.9,2.7-7.8c1-1.1,2.5-1.7,4-1.7c1.3,0,2.1,0.4,3.2,1.4L546,90h2c-0.3,0.7-0.5,1.6-0.9,3.1l-1.5,6.4
		c-0.3,1.4-0.5,2.6-0.5,3.1H543.2z M542.5,91.1c-1.6,0-2.8,1-3.7,3c-0.6,1.6-1.1,3.5-1.1,5.1c0,1.3,0.5,2,1.4,2
		c1.6,0,3.7-1.8,4.9-4.3c0.6-1.2,1-2.6,1.3-4.2C544.9,91.8,543.6,91.1,542.5,91.1z"/>
	<path class="st1" d="M573.5,90h2l1.1-3.3l1.6-0.3l-0.9,3.5h2.2h0.6h0.5c0.3,0,0.3,0,0.4,0l-0.3,1.6c-0.2,0-0.2,0-0.5-0.1h-0.5h-0.4
		h-2.2l-1.8,7.9c0,0.1-0.1,0.4-0.1,0.7c0,0.2,0,0.3-0.1,0.4l0,0c0,0.4,0.2,0.6,0.6,0.6c0.6,0,1.7-0.6,2.7-1.3l0.7,1.2
		c-1.7,1.2-3.3,1.9-4.4,1.9c-0.9,0-1.6-0.6-1.6-1.5c0-0.3,0.1-0.7,0.2-1.3l2-8.7h-2L573.5,90z"/>
	<path class="st1" d="M608.4,90c-0.3,0.7-0.5,1.6-0.9,3.1l-1.5,6.4c-0.3,1.6-0.5,2.5-0.5,3.1h-2.2c0.2-0.6,0.6-1.7,0.9-3.1l1.5-6.4
		c0.3-1.4,0.5-2.6,0.5-3.1H608.4z M607.7,84h1.9l-0.5,2.1h-1.9L607.7,84z"/>
	<path class="st1" d="M643.7,94.2c0,4.7-3.2,8.6-6.9,8.6c-2.5,0-3.9-1.6-3.9-4.3c0-4.9,3.1-8.8,7-8.8
		C642.2,89.7,643.7,91.4,643.7,94.2z M634.8,98.4c0,1.9,0.8,2.9,2.3,2.9c2.5,0,4.6-3.1,4.6-7c0-2-0.8-3-2.4-3
		C636.9,91.2,634.8,94.5,634.8,98.4z"/>
	<path class="st1" d="M672.9,90l-0.3,1.4l-0.1,0.6l-0.1,0.5c-0.1,0.4-0.1,0.4-0.2,0.6c1.4-2.2,3.3-3.4,5.4-3.4
		c1.4,0,2.3,0.8,2.3,2.1c0,0.6-0.1,1.1-0.4,2.5l-1.2,5.2c-0.3,1.5-0.4,2.2-0.5,3v0.1h-2.2c0.2-0.5,0.5-1.6,0.9-3.1l1.1-5
		c0.2-1,0.4-1.8,0.4-2.2c0-0.7-0.4-1.1-1-1.1c-0.9,0-2.3,0.8-3.4,2.1c-0.9,1-1.5,2-2,3.6c-0.6,1.5-0.9,2.8-1.2,4.8
		c-0.1,0.5-0.1,0.6-0.1,1h-2.2c0.2-0.6,0.6-1.7,0.9-3.1l1.5-6.4c0.3-1.4,0.5-2.5,0.5-3.1L672.9,90L672.9,90z"/>
</g>
<g>
	<path class="st1" d="M40.9,16.1c0,2.1,0.2,4.5,0.6,7.3h-1.6c-1.3-5.3-6.6-8-15.9-8c-9,0-14.6,2.9-14.6,6.7c0,4,5.2,5.5,14.4,7.2
		c13.3,2.3,20.7,4.5,20.7,10.9c0,6.7-9.4,12.4-24.5,12.4c-6.8,0-13.2-1-18.5-2.7c0.1-1.7,0.1-2.9,0.1-3.4c0-2.5-0.2-4.9-0.4-7.3h1.5
		c1.3,6.7,7.3,10.2,17,10.2c9.9,0,15.7-3.2,15.7-7.3c0-3.2-3.6-6-9.4-7.1c-7.5-1.4-13.6-2.3-17.7-4.1c-4.6-2-6.8-4.6-6.8-7.8
		c0-6.3,8.5-10.9,22.8-10.9c5.4,0,11,0.6,16.7,1.9C40.9,14,40.9,14.8,40.9,16.1L40.9,16.1z"/>
	<path class="st1" d="M94.8,12.8c0,3.5,0.5,7.2,1.4,11.2h-1.7c-1.1-6-4.2-7.6-12.6-7.6h-4.7v29.3c0,3.3,0.2,4.5,5.6,5.1V52
		c-3.3-0.3-6.6-0.5-9.8-0.5c-3.2,0-6.5,0.2-9.8,0.5v-1.2c5.4-0.5,5.6-1.7,5.6-5.1V16.4h-4.7c-8.4,0-11.6,1.7-12.6,7.6H50
		c1-3.9,1.4-7.7,1.4-11.2H94.8L94.8,12.8z"/>
	<path class="st1" d="M102.7,33.5c0-5.7,3-11,8.6-15.1c5.6-4.2,13-6.4,20.7-6.4c15.9,0,28.5,8.1,28.5,19.2c0,5.6-3,10.9-8.5,14.9
		c-5.6,4.2-13.2,6.5-21.1,6.5C114.9,52.6,102.7,44.5,102.7,33.5L102.7,33.5z M133.1,48.7c10.7,0,19.3-6,19.3-14.6
		c0-10.2-9.8-18.2-22-18.2c-11.5,0-19.7,6.2-19.7,14.5C110.7,40.9,120.9,48.7,133.1,48.7L133.1,48.7z"/>
	<path class="st1" d="M171.3,13.1c3,0,6.2-0.1,9.1-0.4v1.1c-3,0.1-4.4,0.7-4.4,2.2c0,0.5,0.3,1.3,0.8,2.2l14.8,27.2L206,18.6
		c0.7-1.3,0.9-2.1,0.9-2.6c0-1.3-1.4-2.1-4.4-2.2v-1.1c2.8,0.3,5.5,0.4,8.2,0.4s5.4-0.1,8.1-0.4v1.1c-4.4,0.5-5.4,2.6-7.3,6
		l-18.1,32.4H187l-19.3-34.3c-1.3-2.5-3-3.8-5.8-4v-1.1C165.5,13,168.6,13.1,171.3,13.1L171.3,13.1z"/>
	<path class="st1" d="M240.5,13.1c2.1,0,4-0.1,6.3-0.3c0.7,1.7,1.4,3.2,2.3,4.8l16.6,29.1c1.5,2.6,3.1,3.9,5.9,4.1V52
		c-3.1-0.3-6-0.5-8.9-0.5c-2.8,0-5.8,0.2-9,0.5v-1.2c2.8-0.1,4-0.7,4-2c0-0.4-0.2-1.2-0.6-2l-5.1-9h-21.1l-4.5,8.1
		c-0.6,1.2-1,2-1,2.6c0,1.4,1.3,2,4.2,2.2V52c-2.7-0.3-5.4-0.5-8.1-0.5c-2.6,0-5.2,0.2-7.9,0.5v-1.2c3.7-0.4,5-2.3,7.1-5.9l15-26.4
		c0.6-1.2,1.1-2.1,1.1-2.7c0-1.3-1.3-1.8-3.6-1.9v-1.2C235.5,13,237.9,13.1,240.5,13.1L240.5,13.1z M232.7,34.4h17.6l-8.8-15.8
		L232.7,34.4L232.7,34.4z"/>
	<path class="st1" d="M288.5,13.1c3.2,0,6.4-0.1,9.7-0.4v1.1c-2.9,0.2-4.1,0.4-4.1,1.4c0,0.4,0.4,1.3,1.5,2.4l8.9,9.1l9.8-9.6
		c0.7-0.7,1.1-1.3,1.1-1.7c0-1-1.3-1.4-3.9-1.5v-1.1c3.7,0.2,6.6,0.4,8.9,0.4c2.8,0,5.6-0.1,8.6-0.4v1.1c-3.4,0.1-5.6,1.4-7.9,3.5
		L307.6,30l16,16.6c2.7,2.8,5.5,4.2,8.6,4.2v1.1c-3.8-0.3-7.4-0.5-11-0.5c-3.4,0-6.9,0.2-10.6,0.5v-1.1c3.3-0.1,4.9-0.7,4.9-1.9
		c0-0.7-0.4-1.4-1.4-2.4l-11.6-11.8l-11.6,11.6c-1.2,1.1-1.7,2-1.7,2.6c0,1.2,1.4,1.9,4.3,1.9v1.1c-3.9-0.3-7.1-0.4-9.3-0.4
		c-2.5,0-5.5,0.1-9,0.4v-1.1c3-0.2,6-1.7,8.8-4.4l15.4-14.9L285,16.6c-1.8-1.9-3.9-2.7-6.9-2.7v-1.1C281.7,13,285.1,13.1,288.5,13.1
		L288.5,13.1z"/>
</g>
<path class="st2" d="M678.2,12.4h-49.8c-2.7,0-4.8,2.2-4.9,4.9v30.5c0,2.7,2.2,4.9,4.9,4.9h49.8c2.7,0,4.9-2.2,4.9-4.9V17.3
	C683.1,14.6,680.9,12.4,678.2,12.4z M671.4,38.2c0,1.3-1.1,2.4-2.4,2.4h-31c-1.3,0-2.4-1.1-2.4-2.4V26c-0.1-1.4,1-2.5,2.4-2.5h31
	c1.3,0,2.4,1.1,2.4,2.4V38.2z"/>
<path class="st2" d="M620.6,12.4h-53.8c-2.7,0-4.9,2.2-4.9,4.9v30.5c0,2.7,2.2,4.9,4.9,4.9h53.8v-12h-44.2c-1.3,0-2.4-1.1-2.4-2.4
	V26c0-1.3,1.1-2.4,2.4-2.4h44.2V12.4L620.6,12.4L620.6,12.4z"/>
<polygon class="st1" points="499.7,12.4 558.8,12.4 558.8,23.5 527.3,40.6 558.8,40.6 558.8,51.8 499.7,51.8 499.7,40.6 530.7,23.5 
	499.7,23.5 "/>
<path class="st1" d="M427.6,30.4v7.8c0,1.3-1.1,2.4-2.4,2.4h-31.1c-1.3,0-2.4-1.1-2.4-2.4V26c0-1.3,1.1-2.4,2.4-2.4h45.1V12.4h-54.6
	c-2.7,0-4.9,2.2-4.9,4.9v30.5c0,2.7,2.2,4.9,4.9,4.9h49.8c2.7,0,4.9-2.2,4.9-4.9V30.4H427.6L427.6,30.4L427.6,30.4z"/>
<polygon class="st3" points="469.3,0 466.9,4.1 471.8,4.1 "/>
<polygon class="st3" points="474.1,8 472.7,5.7 466,5.6 464.6,8 "/>
<path class="st3" d="M468.9,11.8h7.4l-1.2-2.1h-11.3l-1.4,2.1h5.6c0-0.3,0-0.7,0-1.1C468.2,10.9,468.9,11.8,468.9,11.8L468.9,11.8
	L468.9,11.8z"/>
<path class="st3" d="M460.1,15.5h7.6c0.1-0.7,0.1-1.3,0.1-2.1h-6.4l-1.2,2.1H460.1L460.1,15.5L460.1,15.5z"/>
<path class="st3" d="M477.3,13.4h-7.1c0.5,0.7,1.1,1.5,1.5,2.1h6.8L477.3,13.4L477.3,13.4L477.3,13.4L477.3,13.4z"/>
<path class="st3" d="M467,19.6c0.2-0.8,0.3-1.6,0.4-2.5h-8.1l-1.5,2.5H467L467,19.6L467,19.6z"/>
<path class="st3" d="M480.9,19.5l-1.4-2.4h-7.1c0.4,0.8,0.7,1.6,1.1,2.5L480.9,19.5L480.9,19.5L480.9,19.5L480.9,19.5z"/>
<path class="st3" d="M465.7,23.3c0.3-0.7,0.6-1.4,0.9-2.2H457l-1.5,2.2H465.7L465.7,23.3L465.7,23.3L465.7,23.3z"/>
<path class="st3" d="M474.8,23.4h8.4l-1.3-2.2H474c0.2,0.7,0.5,1.4,0.7,2.1L474.8,23.4L474.8,23.4L474.8,23.4z"/>
<path class="st3" d="M464.7,25h-10.1l-2.2,3.5H463C463,28.6,464.1,26.3,464.7,25L464.7,25L464.7,25z"/>
<path class="st3" d="M484.1,25h-9c0.1,0.2,0.2,0.4,0.2,0.6c0.2,1,0.3,2,0.3,2.9h10.6l-2.2-3.6L484.1,25L484.1,25L484.1,25z"/>
<path class="st3" d="M487.3,30.2h-11.4c-0.1,1.8-0.8,3.5-1.4,5h15.7l-3.1-5.2L487.3,30.2L487.3,30.2L487.3,30.2z"/>
<path class="st3" d="M448.6,35.2h12.5c0.3-2,0.7-3.6,1.3-5h-10.8l-2.9,5H448.6L448.6,35.2L448.6,35.2z"/>
<path class="st3" d="M460.9,36.8h-13.2l-6.4,10.9c-0.2,1-0.2,1.6,0.2,2.6c0.5,1.2,1.3,1.9,2.6,2.4h21.6c-2.8-4.2-4.8-6.2-4.9-12
	C460.8,39.2,460.8,37.9,460.9,36.8L460.9,36.8L460.9,36.8L460.9,36.8z"/>
<path class="st3" d="M491.2,36.8h-17.4c-2.2,4.5-5.5,8.8-5.3,15.8h26c1.3-0.3,2.1-0.9,2.8-2.1c0.6-1.1,0.5-2,0.2-3.2L491.2,36.8
	L491.2,36.8L491.2,36.8z"/>
<line class="st0" x1="379.7" y1="65.4" x2="683" y2="65.4"/>
<line class="st4" x1="357.2" y1="67.3" x2="357.1" y2="14.2"/>
</svg>
