<?xml version="1.0" encoding="utf-8"?>
<!-- Generator: Adobe Illustrator 24.3.0, SVG Export Plug-In . SVG Version: 6.00 Build 0)  -->
<svg version="1.1" id="Layer_1" xmlns="http://www.w3.org/2000/svg" xmlns:xlink="http://www.w3.org/1999/xlink" x="0px" y="0px"
	 viewBox="0 0 423 113.3" style="enable-background:new 0 0 423 113.3;" xml:space="preserve">
<style type="text/css">
	.st0{fill:#211646;}
	.st1{fill:#0071CE;}
</style>
<path class="st0" d="M160.7,35v19.8c0,5.1,1.5,6.7,4.8,6.7c3.2,0,4.8-1.7,4.8-6.7V35h5.6v19.8c0,8-4.6,11.2-10.4,11.2
	c-5.8,0-10.4-3.1-10.4-11.2V35H160.7z"/>
<path class="st0" d="M179.9,46.7c0-1.4,0-2.7-0.2-3.7h5.1c0,1.1,0.2,2.3,0.2,3.5h0.1l0,0c0.8-1.4,2.3-3.8,6-3.8
	c5.1,0,6.6,3.8,6.6,8.4v14.5h-5.4V52c0-3.5-0.9-4.9-3.1-4.9c-2.8,0-3.8,2.4-3.8,5.3v13.1H180V46.7H179.9z"/>
<path class="st0" d="M201.8,43h5.4v22.5h-5.4V43z M201.7,33.4h5.6v5.3h-5.6V33.4z"/>
<path class="st0" d="M213.4,38.3l5.4-1.7V43h4.5v4h-4.5v11.7c0,2.4,0.9,3.1,2.5,3.1c1,0,1.7-0.3,2.1-0.5v3.8c-0.8,0.4-2,0.7-3.6,0.7
	c-4,0-6.3-1.8-6.3-6.6V46.9h-3.6v-4h3.6L213.4,38.3L213.4,38.3z"/>
<path class="st0" d="M237.9,52.3c0-4-1.3-6-3.8-6c-2.8,0-4,3-4,6H237.9z M242,64.4c-1.1,0.5-3.5,1.4-6.7,1.4
	c-7.3,0-10.4-5.2-10.4-11.3c0-6.7,3.5-11.9,9.3-11.9c4.9,0,9,2.8,9,12v1h-13c0,3.8,1.5,6.2,5.7,6.2c3.3,0,4.9-1,5.9-1.7L242,64.4z"
	/>
<path class="st0" d="M254.8,61.8c3.2,0,4.3-3.5,4.3-7.7c0-4.4-1.2-7.6-4.2-7.6s-4.1,2.9-4.1,7.4C250.8,59.2,251.6,61.8,254.8,61.8
	 M264.5,32.7v28.9c0,1.6,0,3,0.2,3.8h-5.1c-0.1-0.7-0.2-2-0.2-3.5h-0.1c-0.9,1.9-2.5,3.8-6,3.8c-5.6,0-7.9-5.3-7.9-11.6
	c0-7.3,2.9-11.6,7.8-11.6c3.2,0,5,1.8,5.8,3.6h0.1V32.7H264.5z"/>
<polygon class="st0" points="278.7,35 284.3,35 284.3,61 294.4,61 294.4,65.5 278.7,65.5 "/>
<path class="st0" d="M308.7,52.3c0-4-1.3-6-3.8-6c-2.8,0-4,3-4,6H308.7z M312.8,64.4c-1.1,0.5-3.5,1.4-6.7,1.4
	c-7.3,0-10.4-5.2-10.4-11.3c0-6.7,3.5-11.9,9.3-11.9c4.9,0,9,2.8,9,12v1h-13c0,3.8,1.5,6.2,5.7,6.2c3.3,0,4.9-1,5.9-1.7L312.8,64.4z
	"/>
<path class="st0" d="M328.6,54.5h-0.5c-4.6,0-7.4,1-7.4,4.2c0,2.1,1.4,3.5,3.5,3.5c3.2,0,4.4-2.4,4.4-6.4V54.5z M317.9,44.3
	c1.5-0.7,3.7-1.7,7.1-1.7c7,0,8.6,3.4,8.6,9v9.8c0,1.6,0.2,3.1,0.3,4H329c-0.3-0.9-0.3-2-0.3-3.1h-0.1c-1.4,1.8-3.1,3.4-6.3,3.4
	c-3.5,0-6.7-2.4-6.7-6.6c0-6.1,5-7.6,11.8-7.6h1.1v-0.8c0-2.2-1.1-4.3-4.2-4.3c-2.7,0-5.1,1.3-6.2,2.2L317.9,44.3z"/>
<path class="st0" d="M337.6,46.7c0-1.4,0-2.7-0.2-3.7h4.9c0,1.4,0.2,2.8,0.2,4.1h0.1c0.7-1.7,2.4-4.5,5.7-4.5c0.3,0,0.6,0.1,0.9,0.1
	v5.1c-0.5-0.1-1-0.2-1.5-0.2c-2.2,0-4.7,1.4-4.7,5.6v12.3h-5.4V46.7z"/>
<path class="st0" d="M351.5,46.7c0-1.4,0-2.7-0.2-3.7h5.1c0,1.1,0.2,2.3,0.2,3.5h0.1l0,0c0.8-1.4,2.3-3.8,6-3.8
	c5.1,0,6.6,3.8,6.6,8.4v14.5h-5.4V52c0-3.5-0.9-4.9-3.1-4.9c-2.8,0-3.8,2.4-3.8,5.3v13.1h-5.4V46.7H351.5z"/>
<path class="st0" d="M373.4,43h5.4v22.5h-5.4V43z M373.3,33.4h5.6v5.3h-5.6V33.4z"/>
<path class="st0" d="M382.9,46.7c0-1.4,0-2.7-0.2-3.7h5.1c0,1.1,0.2,2.3,0.2,3.5h0.1l0,0c0.8-1.4,2.3-3.8,6-3.8
	c5.1,0,6.6,3.8,6.6,8.4v14.5h-5.4V52c0-3.5-0.9-4.9-3.1-4.9c-2.8,0-3.8,2.4-3.8,5.3v13.1H383V46.7H382.9z"/>
<path class="st0" d="M412.8,61.5c3.4,0,4.8-2.5,4.8-7.6c0-4.7-1.8-7.3-4.4-7.2c-2.8,0-3.9,2.7-3.9,7.3
	C409.3,59.3,411,61.5,412.8,61.5 M405,69c1.3,0.7,3.8,1.9,6.6,1.9c5.1,0,6-3.5,6-7.1v-2.1h-0.1c-0.9,1.7-2.4,3.8-5.9,3.8
	c-3.1,0-7.9-2.1-7.9-11.2c0-6.2,2.2-11.7,8.1-11.7c3.3,0,4.8,1.9,5.9,3.8h0.2c0-1.2,0.1-2.3,0.2-3.5h4.9c-0.1,1.2-0.2,2.4-0.2,3.5
	V63c0,7-2.1,12.1-10.4,12.1c-3.6,0-6.4-0.9-7.7-1.4L405,69z"/>
<polygon class="st1" points="155.1,80.8 168.7,80.8 168.7,82.9 163,82.9 163,105.4 160.8,105.4 160.8,82.9 155.1,82.9 "/>
<path class="st1" d="M170.9,79h2v11.1h0.1c0.4-0.8,1.6-2.9,4.4-2.9c5,0,5,5,5,6.2v12h-2V93.3c0-1.2,0-4.2-3.3-4.2
	c-2.5,0-4.1,2.4-4.1,5.1v11.1h-2L170.9,79L170.9,79z"/>
<path class="st1" d="M195.3,95.2c0-4.8-2-6.1-3.7-6.1c-2.8,0-4.1,3.8-4.1,6.1H195.3z M187.6,97.1c0,6.6,4.3,6.6,5.1,6.6
	c1.2,0,2.8-0.6,3.9-1.5l0.1,2.4c-0.8,0.5-2,1-4.2,1c-7,0-7-7.4-7-9.2c0-6.8,3.3-9.2,6.4-9.2c5.2,0,5.7,5.5,5.7,9.9
	C197.6,97.1,187.6,97.1,187.6,97.1z"/>
<path class="st1" d="M214.2,89.1c-4.4,0-4.4,5.1-4.4,7.5c0,3.7,1,7.1,4.4,7.1c4.1,0,4.1-5.8,4.1-7.3
	C218.3,92.3,217.2,89.1,214.2,89.1 M207.9,79h2v10.8h0.1c1.1-1.7,2.4-2.6,4.5-2.6c4.5,0,5.9,5.1,5.9,8.6c0,2.5-0.2,9.9-6.1,9.9
	c-2.3,0-3.4-1-4.7-2.7h-0.1v2.5h-1.9c0.1-1.5,0.1-3.1,0.1-5.9V79H207.9z"/>
<path class="st1" d="M232.4,95.2c0-4.8-2-6.1-3.7-6.1c-2.8,0-4.1,3.8-4.1,6.1H232.4z M224.6,97.1c0,6.6,4.3,6.6,5.1,6.6
	c1.2,0,2.8-0.6,3.9-1.5l0.1,2.4c-0.8,0.5-2,1-4.2,1c-7,0-7-7.4-7-9.2c0-6.8,3.3-9.2,6.4-9.2c5.2,0,5.7,5.5,5.7,9.9
	C234.6,97.1,224.6,97.1,224.6,97.1z"/>
<path class="st1" d="M244.9,89.9c-1-0.4-1.9-0.7-3.1-0.7c-2.1,0-3.1,1.6-3.1,2.8c0,1.7,0.6,2,3.1,3.3s4.4,2.2,4.4,5.1
	c0,3.2-2.3,5.2-5.3,5.2c-2.2,0-3.5-0.5-4.5-0.8l0.3-2.3c0.6,0.4,2.4,1.2,4.1,1.2c1.9,0,3.3-1.5,3.3-3.1c0-1.7-1.1-2.4-3.2-3.5
	c-3-1.5-4.2-2.5-4.2-5c0-3.4,2.9-5,5.3-5c1.2,0,2.6,0.3,3.3,0.5L244.9,89.9z"/>
<path class="st1" d="M252,83.2v4.2h3.7v1.9H252V101c0,1.4,0.2,2.7,2,2.7c0.9,0,1.3-0.2,1.7-0.4v2c-0.5,0.2-1.4,0.2-2.4,0.2
	c-2.6,0-3.3-2-3.3-4V89.4h-2.7v-1.9h2.7v-3.6L252,83.2z"/>
<path class="st1" d="M265.7,87.5h2v17.9h-2V87.5z M265.4,80.3h2.5v3.2h-2.5V80.3z"/>
<path class="st1" d="M271.8,93c0-1.9-0.1-3.7-0.1-5.6h1.9c0.1,0.8,0.1,1.3,0.1,2.6h0.1c0.4-0.8,1.6-2.9,4.6-2.9c5,0,5,5,5,6.2v12h-2
	v-12c0-1.2,0-4.2-3.3-4.2c-2.5,0-4.1,2.4-4.1,5.1v11.1h-2V93H271.8z"/>
<path class="st1" d="M303.7,95.2c0-4.8-2-6.1-3.7-6.1c-2.8,0-4.1,3.8-4.1,6.1H303.7z M296,97.1c0,6.6,4.3,6.6,5.1,6.6
	c1.2,0,2.9-0.6,3.9-1.5l0.1,2.4c-0.8,0.5-2,1-4.2,1c-7,0-7-7.4-7-9.2c0-6.8,3.3-9.2,6.4-9.2c5.2,0,5.7,5.5,5.7,9.9
	C306,97.1,296,97.1,296,97.1z"/>
<polygon class="st1" points="306.8,87.5 309,87.5 313.3,103.1 313.3,103.1 317.7,87.5 319.8,87.5 314.5,105.4 312.1,105.4 "/>
<path class="st1" d="M330.7,95.2c0-4.8-2-6.1-3.7-6.1c-2.8,0-4.1,3.8-4.1,6.1H330.7z M322.9,97.1c0,6.6,4.3,6.6,5.1,6.6
	c1.2,0,2.9-0.6,3.9-1.5l0.1,2.4c-0.8,0.5-2,1-4.2,1c-7,0-7-7.4-7-9.2c0-6.8,3.3-9.2,6.4-9.2c5.2,0,5.7,5.5,5.7,9.9
	C332.9,97.1,322.9,97.1,322.9,97.1z"/>
<path class="st1" d="M335.8,93c0-1.9-0.1-3.7-0.1-5.6h1.9c0,1.1,0.1,2.1,0.1,2.8h0.1c1.3-2.6,2.8-3.1,4.8-3.1v2.2
	c-3.2,0-4.7,1.4-4.7,4.7v11.3h-2L335.8,93L335.8,93z"/>
<path class="st1" d="M348.8,102.4L348.8,102.4l4.1-14.9h2l-5.9,21.3c-0.7,2.4-1.2,4.5-4.1,4.5c-0.6,0-0.9-0.1-1.4-0.2l0.1-2.1
	c0.4,0.2,1,0.4,1.4,0.4c1,0,1.5-1,1.8-2.1l0.9-3.4l-5.3-18.4h2.2L348.8,102.4z"/>
<path class="st1" d="M367.1,96.4c0-1.4,0-7.3-4.5-7.3s-4.5,5.9-4.5,7.3s0,7.3,4.5,7.3C367.1,103.7,367.1,97.9,367.1,96.4
	 M355.9,96.4c0-4.5,1.5-9.2,6.7-9.2s6.7,4.7,6.7,9.2s-1.5,9.2-6.7,9.2S355.9,100.9,355.9,96.4"/>
<path class="st1" d="M372.3,93c0-1.9-0.1-3.7-0.1-5.6h1.9c0.1,0.8,0.1,1.3,0.1,2.6h0.1c0.4-0.8,1.6-2.9,4.6-2.9c5,0,5,5,5,6.2v12h-2
	v-12c0-1.2,0-4.2-3.3-4.2c-2.5,0-4.1,2.4-4.1,5.1v11.1h-2V93H372.3z"/>
<path class="st1" d="M396.6,95.2c0-4.8-2-6.1-3.7-6.1c-2.8,0-4.1,3.8-4.1,6.1H396.6z M388.9,97.1c0,6.6,4.3,6.6,5.1,6.6
	c1.2,0,2.9-0.6,3.9-1.5l0.1,2.4c-0.8,0.5-2,1-4.2,1c-7,0-7-7.4-7-9.2c0-6.8,3.3-9.2,6.4-9.2c5.2,0,5.7,5.5,5.7,9.9
	C398.9,97.1,388.9,97.1,388.9,97.1z"/>
<path class="st1" d="M413.9,80.8L413.9,80.8l-2.7,6.5h-0.5l-2.6-6.5l0,0v6.5h-0.9V80h1.5l2.3,5.9l2.2-5.9h1.5v7.3h-0.9v-6.5H413.9z
	 M402.7,80.8h-2.4V80h5.6v0.8h-2.4v6.5h-0.9L402.7,80.8L402.7,80.8z"/>
<path class="st0" d="M123.7,99.1h1.6c0.9,0,1.5-0.2,1.5-1.2c0-0.9-0.8-1.1-1.5-1.1h-1.6V99.1z M123,96.1h2.5c1.5,0,2.1,0.6,2.1,1.8
	c0,1.2-0.8,1.7-1.6,1.8l1.9,2.9H127l-1.9-2.9h-1.4v2.9H123V96.1z M125.2,104.3c2.7,0,4.9-2.2,4.9-5s-2.2-5-4.9-5
	c-2.7,0-4.9,2.2-4.9,5C120.3,102.1,122.5,104.3,125.2,104.3 M125.2,93.6c3.2,0,5.7,2.6,5.7,5.7c0,3.2-2.6,5.7-5.7,5.7
	c-3.2,0-5.7-2.6-5.7-5.7S122.1,93.6,125.2,93.6"/>
<path class="st1" d="M51.8,81.1c-10,3.6-16.8-3.6-25.7-5.8c-7.2-1.7-11.6-2.9-11.4-11.3c0-0.4-0.7-0.5-0.9-0.6
	C3,61.2,1.4,47.5,12.1,43.4c2.2-0.9,6.8-2.7,7.5-5.4c1.5-5.4,1-11,2.4-16.6c2.1-8,7.1-18.1,17.1-11.6c5.2,3.4,10.1,0.8,13.9-3.2
	c2.8-3,9.7-5.7,13.4-2.9c1.8,1.3,3.4,3.1,5,4.6c2.8,2.6,3.7,6.6,7,8.5c2.1,1.2,6.1,0.7,8.2-0.2c7.1-2.9,13.9-5.8,18.3,2.5
	C109,27,108,35.7,117,39.9c4.9,2.3,10.3,2.9,14.1,7c2.3,2.4,1.1,7.8,0.3,10.7c-1.1,3.7-4.8,5.9-8,7.4c-12.3,6-25.9,11.6-39,15.9
	c-2.7,0.9-2.2,3,0.6,2.2c9-2.9,17.5-6.8,26.1-10.6c7-3.1,14.7-4.9,20.9-9.8c4.9-3.9,5.2-10.1,4.4-15.9c-0.8-5.7-13.3-7.9-17.3-9.8
	c-10.6-5-6.1-30.8-23.5-26.9c-3,0.7-5.4,1.9-8,3.5c-6.1,3.7-8.8-4.1-11.8-7C72.5,3.3,69-0.6,63.9,0.1c-5,0.6-10.5,1.6-14,5.4
	C45.7,9.9,43.6,8,39.3,5.6c-2-1.1-4.8-1.4-7.1-0.9C26.7,6,22.1,9.2,19.9,14.6c-1.6,3.7-2.5,7.6-3.6,11.5c-1.8,6.9,1.2,12.8-7.8,16.3
	C2.7,44.6-0.1,47.8,0,54.3c0.1,3.6,2.4,6.7,4.8,9c1,1,2.5,1.5,3.7,2.1c1.8,0.8,1.7,4.4,2.1,6c1.5,5.3,9.7,5.5,13.8,6.7
	c9.1,2.7,15.4,7.7,25.4,5.9c1.3-0.2,2.5-0.8,3.7-1.2C56.6,81.7,53.8,80.4,51.8,81.1"/>
<path class="st0" d="M33.8,54.6C50.5,65,65.8,82,55.4,102.3c-1.2,2.3,3.5,2.2,4.4,0.5c11-21.4-4.6-39.7-22.4-50.7
	C35.8,51,31.6,53.3,33.8,54.6"/>
<path class="st0" d="M100,50.5c-25.3,3.9-37.6,24.7-34.8,49.3c0.1,1.1,4.8,0.2,4.7-1.2c-2.4-21.1,6.2-42.5,29.3-46.1
	C101.2,52.2,103.3,50,100,50.5"/>
<path class="st0" d="M68,64.8c-1.3-1.5-9.4-12.6-2.2-11.3c7.5,1.3,0.8,9.6-1.8,11.9c-2,1.8,2.6,1.6,3.7,0.7c5.7-5,9.9-14.3-1-15.2
	c-2.8-0.2-6,1-7.8,3.2c-3.2,3.9,2.3,10,4.7,12.6C64.7,67.7,69.1,66,68,64.8"/>
<path class="st0" d="M107.1,99.1c-11-0.1-21.9-0.7-32.7,1.7c-2.9,0.7-2,4.1,0.9,3.4c10.3-2.3,20.9-1.6,31.4-1.5
	C109.5,102.7,110.3,99.1,107.1,99.1"/>
<path class="st0" d="M50.7,101.8c-13.6-3.9-27.6-4.3-41.7-5c-2.2-0.1-4.8,3.1-1.6,3.2c13.7,0.8,27.3,1,40.6,4.8
	C49.9,105.4,53.5,102.6,50.7,101.8"/>
</svg>
